<?xml version="1.0" encoding="UTF-8" standalone="no"?><svg xmlns="http://www.w3.org/2000/svg" xmlns:xlink="http://www.w3.org/1999/xlink" contentScriptType="application/ecmascript" contentStyleType="text/css" height="1027.52px" preserveAspectRatio="none" style="width:678px;height:1027px;" version="1.1" viewBox="0 0 678 1027" width="678.68px" zoomAndPan="magnify"><defs><filter height="300%" id="fczuqn00hakgy" width="300%" x="-1" y="-1"><feGaussianBlur result="blurOut" stdDeviation="1.52"/><feColorMatrix in="blurOut" result="blurOut2" type="matrix" values="0 0 0 0 0 0 0 0 0 0 0 0 0 0 0 0 0 0 .4 0"/><feOffset dx="3.04" dy="3.04" in="blurOut2" result="blurOut3"/><feBlend in="SourceGraphic" in2="blurOut3" mode="normal"/></filter></defs><g><!--MD5=[1f2cfc53d9d308f53762fd0fcbaa4873]
cluster Controller--><polygon fill="#FFFFFF" filter="url(#fczuqn00hakgy)" points="56.24,4.56,114.76,4.56,120.08,22.5031,259.92,22.5031,259.92,101.84,56.24,101.84,56.24,4.56" style="stroke:#000000;stroke-width:1.1400000000000001;"/><line style="stroke:#000000;stroke-width:1.1400000000000001;" x1="56.24" x2="120.08" y1="22.5031" y2="22.5031"/><text fill="#000000" font-family="sans-serif" font-size="10.64" font-weight="bold" lengthAdjust="spacing" textLength="53.96" x="59.28" y="17.1252">Controller</text><!--MD5=[121a8bf1197281ab89ed693fab589f94]
cluster Domain--><polygon fill="#FFFFFF" filter="url(#fczuqn00hakgy)" points="316.16,301.72,360.24,301.72,365.56,319.6631,524.4,319.6631,524.4,1022.2,316.16,1022.2,316.16,301.72" style="stroke:#000000;stroke-width:1.1400000000000001;"/><line style="stroke:#000000;stroke-width:1.1400000000000001;" x1="316.16" x2="365.56" y1="319.6631" y2="319.6631"/><text fill="#000000" font-family="sans-serif" font-size="10.64" font-weight="bold" lengthAdjust="spacing" textLength="39.52" x="319.2" y="314.2852">Domain</text><!--MD5=[cdfd548b3455e70392372b1f27091970]
cluster Services--><polygon fill="#FFFFFF" filter="url(#fczuqn00hakgy)" points="12.16,120.08,63.84,120.08,69.16,138.0231,259.92,138.0231,259.92,487.92,12.16,487.92,12.16,120.08" style="stroke:#000000;stroke-width:1.1400000000000001;"/><line style="stroke:#000000;stroke-width:1.1400000000000001;" x1="12.16" x2="69.16" y1="138.0231" y2="138.0231"/><text fill="#000000" font-family="sans-serif" font-size="10.64" font-weight="bold" lengthAdjust="spacing" textLength="47.12" x="15.2" y="132.6452">Services</text><!--MD5=[7e40339c58605559321960399585b560]
cluster Utils--><polygon fill="#FFFFFF" filter="url(#fczuqn00hakgy)" points="542.64,322.62,570.76,322.62,576.08,340.5631,665.76,340.5631,665.76,409.26,542.64,409.26,542.64,322.62" style="stroke:#000000;stroke-width:1.1400000000000001;"/><line style="stroke:#000000;stroke-width:1.1400000000000001;" x1="542.64" x2="576.08" y1="340.5631" y2="340.5631"/><text fill="#000000" font-family="sans-serif" font-size="10.64" font-weight="bold" lengthAdjust="spacing" textLength="23.56" x="545.68" y="335.1852">Utils</text><!--MD5=[bea5d70054e872cf6732c927ecd7f145]
class MostTravelledDistanceController--><rect codeLine="5" fill="#FEFECE" filter="url(#fczuqn00hakgy)" height="57.5106" id="MostTravelledDistanceController" style="stroke:#A80036;stroke-width:1.1400000000000001;" width="179.36" x="68.4" y="31.92"/><ellipse cx="88.35" cy="44.08" fill="#ADD1B2" rx="8.36" ry="8.36" style="stroke:#A80036;stroke-width:0.76;"/><path d="M89.87,41.42 Q90.0244,41.04 90.2025,40.85 Q90.3806,40.66 90.5825,40.66 Q90.9388,40.66 91.1644,40.8738 Q91.39,41.0875 91.39,41.5863 L91.39,42.7738 Q91.39,43.2725 91.1763,43.4863 Q90.9625,43.7 90.63,43.7 Q90.3331,43.7 90.1431,43.5694 Q89.9531,43.4388 89.87,43.0944 Q89.8344,42.8569 89.7038,42.7263 Q89.4663,42.4769 89.0388,42.3344 Q88.6113,42.18 88.1838,42.18 Q87.6494,42.18 87.1981,42.3938 Q86.7588,42.6075 86.4144,43.0825 Q86.07,43.5575 86.07,44.2106 L86.07,44.9113 Q86.07,45.695 86.7113,46.2175 Q87.3525,46.74 88.4925,46.74 Q89.1694,46.74 89.6444,46.5856 Q89.9175,46.5025 90.2263,46.2294 Q90.4281,46.075 90.535,46.0275 Q90.6419,45.98 90.7725,45.98 Q91.0219,45.98 91.2,46.1819 Q91.39,46.3719 91.39,46.645 Q91.39,46.9063 91.1288,47.215 Q90.7488,47.6663 90.1431,47.9156 Q89.3475,48.26 88.3738,48.26 Q87.2338,48.26 86.3194,47.8088 Q85.5831,47.4525 85.0606,46.6806 Q84.55,45.9088 84.55,44.9944 L84.55,44.1631 Q84.55,43.2131 85.0013,42.3819 Q85.4644,41.5506 86.26,41.1113 Q87.0675,40.66 87.97,40.66 Q88.5163,40.66 88.9913,40.85 Q89.4663,41.04 89.87,41.42 Z " fill="#000000"/><text fill="#000000" font-family="sans-serif" font-size="9.12" lengthAdjust="spacing" textLength="136.04" x="100.89" y="47.8117">MostTravelledDistanceController</text><line style="stroke:#A80036;stroke-width:1.1400000000000001;" x1="69.16" x2="247" y1="56.24" y2="56.24"/><line style="stroke:#A80036;stroke-width:1.1400000000000001;" x1="69.16" x2="247" y1="62.32" y2="62.32"/><text fill="#000000" font-family="sans-serif" font-size="8.36" lengthAdjust="spacing" textLength="128.44" x="72.96" y="74.0384">+MostTravelledDistanceController()</text><text fill="#000000" font-family="sans-serif" font-size="8.36" lengthAdjust="spacing" textLength="170.24" x="72.96" y="84.5537">+getTopNShips(listTree, startDate, endDate, n)</text><!--MD5=[0dc7f2ddb409b58bcf52b12238c25399]
class Ship--><rect codeLine="13" fill="#FEFECE" filter="url(#fczuqn00hakgy)" height="488.6384" id="Ship" style="stroke:#A80036;stroke-width:1.1400000000000001;" width="158.08" x="334.4" y="521.36"/><ellipse cx="400.71" cy="533.52" fill="#ADD1B2" rx="8.36" ry="8.36" style="stroke:#A80036;stroke-width:0.76;"/><path d="M402.23,530.86 Q402.3844,530.48 402.5625,530.29 Q402.7406,530.1 402.9425,530.1 Q403.2988,530.1 403.5244,530.3138 Q403.75,530.5275 403.75,531.0263 L403.75,532.2138 Q403.75,532.7125 403.5363,532.9263 Q403.3225,533.14 402.99,533.14 Q402.6931,533.14 402.5031,533.0094 Q402.3131,532.8788 402.23,532.5344 Q402.1944,532.2969 402.0638,532.1663 Q401.8263,531.9169 401.3988,531.7744 Q400.9713,531.62 400.5438,531.62 Q400.0094,531.62 399.5581,531.8338 Q399.1188,532.0475 398.7744,532.5225 Q398.43,532.9975 398.43,533.6506 L398.43,534.3513 Q398.43,535.135 399.0713,535.6575 Q399.7125,536.18 400.8525,536.18 Q401.5294,536.18 402.0044,536.0256 Q402.2775,535.9425 402.5863,535.6694 Q402.7881,535.515 402.895,535.4675 Q403.0019,535.42 403.1325,535.42 Q403.3819,535.42 403.56,535.6219 Q403.75,535.8119 403.75,536.085 Q403.75,536.3463 403.4888,536.655 Q403.1088,537.1063 402.5031,537.3556 Q401.7075,537.7 400.7338,537.7 Q399.5938,537.7 398.6794,537.2488 Q397.9431,536.8925 397.4206,536.1206 Q396.91,535.3488 396.91,534.4344 L396.91,533.6031 Q396.91,532.6531 397.3613,531.8219 Q397.8244,530.9906 398.62,530.5513 Q399.4275,530.1 400.33,530.1 Q400.8763,530.1 401.3513,530.29 Q401.8263,530.48 402.23,530.86 Z " fill="#000000"/><text fill="#000000" font-family="sans-serif" font-size="9.12" lengthAdjust="spacing" textLength="19" x="416.29" y="537.2517">Ship</text><line style="stroke:#A80036;stroke-width:1.1400000000000001;" x1="335.16" x2="491.72" y1="545.68" y2="545.68"/><text fill="#000000" font-family="sans-serif" font-size="8.36" lengthAdjust="spacing" textLength="22.04" x="338.96" y="557.3984">-mMSI</text><text fill="#000000" font-family="sans-serif" font-size="8.36" lengthAdjust="spacing" textLength="54.72" x="338.96" y="567.9137">-baseDateTime</text><text fill="#000000" font-family="sans-serif" font-size="8.36" lengthAdjust="spacing" textLength="11.4" x="338.96" y="578.429">-lat</text><text fill="#000000" font-family="sans-serif" font-size="8.36" lengthAdjust="spacing" textLength="13.68" x="338.96" y="588.9443">-lon</text><text fill="#000000" font-family="sans-serif" font-size="8.36" lengthAdjust="spacing" textLength="16.72" x="338.96" y="599.4596">-sog</text><text fill="#000000" font-family="sans-serif" font-size="8.36" lengthAdjust="spacing" textLength="16.72" x="338.96" y="609.975">-cog</text><text fill="#000000" font-family="sans-serif" font-size="8.36" lengthAdjust="spacing" textLength="31.92" x="338.96" y="620.4903">-heading</text><text fill="#000000" font-family="sans-serif" font-size="8.36" lengthAdjust="spacing" textLength="47.88" x="338.96" y="631.0056">-vesselName</text><text fill="#000000" font-family="sans-serif" font-size="8.36" lengthAdjust="spacing" textLength="16.72" x="338.96" y="641.5209">-iMO</text><text fill="#000000" font-family="sans-serif" font-size="8.36" lengthAdjust="spacing" textLength="31.16" x="338.96" y="652.0362">-callSign</text><text fill="#000000" font-family="sans-serif" font-size="8.36" lengthAdjust="spacing" textLength="45.6" x="338.96" y="662.5515">-vesselType</text><text fill="#000000" font-family="sans-serif" font-size="8.36" lengthAdjust="spacing" textLength="25.08" x="338.96" y="673.0668">-length</text><text fill="#000000" font-family="sans-serif" font-size="8.36" lengthAdjust="spacing" textLength="23.56" x="338.96" y="683.5821">-width</text><text fill="#000000" font-family="sans-serif" font-size="8.36" lengthAdjust="spacing" textLength="20.52" x="338.96" y="694.0975">-draft</text><text fill="#000000" font-family="sans-serif" font-size="8.36" lengthAdjust="spacing" textLength="24.32" x="338.96" y="704.6128">-cargo</text><text fill="#000000" font-family="sans-serif" font-size="8.36" lengthAdjust="spacing" textLength="65.36" x="338.96" y="715.1281">-transcieverClass</text><line style="stroke:#A80036;stroke-width:1.1400000000000001;" x1="335.16" x2="491.72" y1="720.005" y2="720.005"/><text fill="#000000" font-family="sans-serif" font-size="8.36" lengthAdjust="spacing" textLength="41.04" x="338.96" y="731.7234">+getMMSI()</text><text fill="#000000" font-family="sans-serif" font-size="8.36" lengthAdjust="spacing" textLength="74.48" x="338.96" y="742.2387">+getBaseDateTime()</text><text fill="#000000" font-family="sans-serif" font-size="8.36" lengthAdjust="spacing" textLength="33.44" x="338.96" y="752.754">+getLat()</text><text fill="#000000" font-family="sans-serif" font-size="8.36" lengthAdjust="spacing" textLength="35.72" x="338.96" y="763.2693">+getLon()</text><text fill="#000000" font-family="sans-serif" font-size="8.36" lengthAdjust="spacing" textLength="39.52" x="338.96" y="773.7846">+getSOG()</text><text fill="#000000" font-family="sans-serif" font-size="8.36" lengthAdjust="spacing" textLength="39.52" x="338.96" y="784.3">+getCOG()</text><text fill="#000000" font-family="sans-serif" font-size="8.36" lengthAdjust="spacing" textLength="51.68" x="338.96" y="794.8153">+getHeading()</text><text fill="#000000" font-family="sans-serif" font-size="8.36" lengthAdjust="spacing" textLength="66.12" x="338.96" y="805.3306">+getVesselType()</text><text fill="#000000" font-family="sans-serif" font-size="8.36" lengthAdjust="spacing" textLength="47.12" x="338.96" y="815.8459">+getLenght()</text><text fill="#000000" font-family="sans-serif" font-size="8.36" lengthAdjust="spacing" textLength="42.56" x="338.96" y="826.3612">+getWidth()</text><text fill="#000000" font-family="sans-serif" font-size="8.36" lengthAdjust="spacing" textLength="40.28" x="338.96" y="836.8765">+getDraft()</text><text fill="#000000" font-family="sans-serif" font-size="8.36" lengthAdjust="spacing" textLength="44.08" x="338.96" y="847.3918">+getCargo()</text><text fill="#000000" font-family="sans-serif" font-size="8.36" lengthAdjust="spacing" textLength="86.64" x="338.96" y="857.9071">+getTranscieverClass()</text><text fill="#000000" font-family="sans-serif" font-size="8.36" lengthAdjust="spacing" textLength="60.04" x="338.96" y="868.4225">+setMMSI(mMSI)</text><text fill="#000000" font-family="sans-serif" font-size="8.36" lengthAdjust="spacing" textLength="126.16" x="338.96" y="878.9378">+setBaseDateTime(baseDateTime)</text><text fill="#000000" font-family="sans-serif" font-size="8.36" lengthAdjust="spacing" textLength="44.84" x="338.96" y="889.4531">+setLati(lati)</text><text fill="#000000" font-family="sans-serif" font-size="8.36" lengthAdjust="spacing" textLength="55.48" x="338.96" y="899.9684">+setLong(long)</text><text fill="#000000" font-family="sans-serif" font-size="8.36" lengthAdjust="spacing" textLength="53.2" x="338.96" y="910.4837">+setSOG(sog)</text><text fill="#000000" font-family="sans-serif" font-size="8.36" lengthAdjust="spacing" textLength="53.2" x="338.96" y="920.999">+setCOG(cog)</text><text fill="#000000" font-family="sans-serif" font-size="8.36" lengthAdjust="spacing" textLength="80.56" x="338.96" y="931.5143">+setHeading(heading)</text><text fill="#000000" font-family="sans-serif" font-size="8.36" lengthAdjust="spacing" textLength="108.68" x="338.96" y="942.0296">+setVesselType(vesselType)</text><text fill="#000000" font-family="sans-serif" font-size="8.36" lengthAdjust="spacing" textLength="69.16" x="338.96" y="952.545">+setLenght(lenght)</text><text fill="#000000" font-family="sans-serif" font-size="8.36" lengthAdjust="spacing" textLength="63.08" x="338.96" y="963.0603">+setWidth(width)</text><text fill="#000000" font-family="sans-serif" font-size="8.36" lengthAdjust="spacing" textLength="57.76" x="338.96" y="973.5756">+setDraft(draft)</text><text fill="#000000" font-family="sans-serif" font-size="8.36" lengthAdjust="spacing" textLength="65.36" x="338.96" y="984.0909">+setCargo(cargo)</text><text fill="#000000" font-family="sans-serif" font-size="8.36" lengthAdjust="spacing" textLength="148.96" x="338.96" y="994.6062">+setTranscieverClass(transcieverClass)</text><text fill="#000000" font-family="sans-serif" font-size="8.36" lengthAdjust="spacing" textLength="26.6" x="338.96" y="1005.1215">+Ship()</text><!--MD5=[10842816a521f091e096081c0b3409a1]
class ShipMMSI--><rect codeLine="60" fill="#FEFECE" filter="url(#fczuqn00hakgy)" height="89.0566" id="ShipMMSI" style="stroke:#A80036;stroke-width:1.1400000000000001;" width="183.16" x="328.7" y="329.08"/><ellipse cx="396.53" cy="341.24" fill="#ADD1B2" rx="8.36" ry="8.36" style="stroke:#A80036;stroke-width:0.76;"/><path d="M398.05,338.58 Q398.2044,338.2 398.3825,338.01 Q398.5606,337.82 398.7625,337.82 Q399.1188,337.82 399.3444,338.0338 Q399.57,338.2475 399.57,338.7463 L399.57,339.9338 Q399.57,340.4325 399.3563,340.6463 Q399.1425,340.86 398.81,340.86 Q398.5131,340.86 398.3231,340.7294 Q398.1331,340.5988 398.05,340.2544 Q398.0144,340.0169 397.8838,339.8863 Q397.6463,339.6369 397.2188,339.4944 Q396.7913,339.34 396.3638,339.34 Q395.8294,339.34 395.3781,339.5538 Q394.9388,339.7675 394.5944,340.2425 Q394.25,340.7175 394.25,341.3706 L394.25,342.0713 Q394.25,342.855 394.8913,343.3775 Q395.5325,343.9 396.6725,343.9 Q397.3494,343.9 397.8244,343.7456 Q398.0975,343.6625 398.4063,343.3894 Q398.6081,343.235 398.715,343.1875 Q398.8219,343.14 398.9525,343.14 Q399.2019,343.14 399.38,343.3419 Q399.57,343.5319 399.57,343.805 Q399.57,344.0663 399.3088,344.375 Q398.9288,344.8263 398.3231,345.0756 Q397.5275,345.42 396.5538,345.42 Q395.4138,345.42 394.4994,344.9688 Q393.7631,344.6125 393.2406,343.8406 Q392.73,343.0688 392.73,342.1544 L392.73,341.3231 Q392.73,340.3731 393.1813,339.5419 Q393.6444,338.7106 394.44,338.2713 Q395.2475,337.82 396.15,337.82 Q396.6963,337.82 397.1713,338.01 Q397.6463,338.2 398.05,338.58 Z " fill="#000000"/><text fill="#000000" font-family="sans-serif" font-size="9.12" lengthAdjust="spacing" textLength="41.04" x="412.11" y="344.9717">ShipMMSI</text><line style="stroke:#A80036;stroke-width:1.1400000000000001;" x1="329.46" x2="511.1" y1="353.4" y2="353.4"/><line style="stroke:#A80036;stroke-width:1.1400000000000001;" x1="329.46" x2="511.1" y1="359.48" y2="359.48"/><text fill="#000000" font-family="sans-serif" font-size="8.36" lengthAdjust="spacing" textLength="60.8" x="333.26" y="371.1984">+ShipMMSI(ship)</text><text fill="#000000" font-family="sans-serif" font-size="8.36" lengthAdjust="spacing" textLength="174.04" x="333.26" y="381.7137">+ShipMMSI(List&lt;Map.Entry&lt;String, ShipMMSI&gt;&gt;)</text><text fill="#000000" font-family="sans-serif" font-size="8.36" lengthAdjust="spacing" textLength="50.16" x="333.26" y="392.229">+getMapList()</text><text fill="#000000" font-family="sans-serif" font-size="8.36" lengthAdjust="spacing" textLength="86.64" x="333.26" y="402.7443">+compareTo(ShipMMSI)</text><text fill="#000000" font-family="sans-serif" font-size="8.36" lengthAdjust="spacing" textLength="38.76" x="333.26" y="413.2596">+toString()</text><!--MD5=[d57db829cf7f468256413986731726a5]
class MostTravelledDistance--><rect codeLine="71" fill="#FEFECE" filter="url(#fczuqn00hakgy)" height="78.5413" id="MostTravelledDistance" style="stroke:#A80036;stroke-width:1.1400000000000001;" width="179.36" x="68.4" y="147.44"/><ellipse cx="107.35" cy="159.6" fill="#ADD1B2" rx="8.36" ry="8.36" style="stroke:#A80036;stroke-width:0.76;"/><path d="M108.87,156.94 Q109.0244,156.56 109.2025,156.37 Q109.3806,156.18 109.5825,156.18 Q109.9388,156.18 110.1644,156.3938 Q110.39,156.6075 110.39,157.1063 L110.39,158.2938 Q110.39,158.7925 110.1763,159.0063 Q109.9625,159.22 109.63,159.22 Q109.3331,159.22 109.1431,159.0894 Q108.9531,158.9588 108.87,158.6144 Q108.8344,158.3769 108.7038,158.2463 Q108.4663,157.9969 108.0388,157.8544 Q107.6113,157.7 107.1838,157.7 Q106.6494,157.7 106.1981,157.9138 Q105.7588,158.1275 105.4144,158.6025 Q105.07,159.0775 105.07,159.7306 L105.07,160.4313 Q105.07,161.215 105.7113,161.7375 Q106.3525,162.26 107.4925,162.26 Q108.1694,162.26 108.6444,162.1056 Q108.9175,162.0225 109.2263,161.7494 Q109.4281,161.595 109.535,161.5475 Q109.6419,161.5 109.7725,161.5 Q110.0219,161.5 110.2,161.7019 Q110.39,161.8919 110.39,162.165 Q110.39,162.4263 110.1288,162.735 Q109.7488,163.1863 109.1431,163.4356 Q108.3475,163.78 107.3738,163.78 Q106.2338,163.78 105.3194,163.3288 Q104.5831,162.9725 104.0606,162.2006 Q103.55,161.4288 103.55,160.5144 L103.55,159.6831 Q103.55,158.7331 104.0013,157.9019 Q104.4644,157.0706 105.26,156.6313 Q106.0675,156.18 106.97,156.18 Q107.5163,156.18 107.9913,156.37 Q108.4663,156.56 108.87,156.94 Z " fill="#000000"/><text fill="#000000" font-family="sans-serif" font-size="9.12" lengthAdjust="spacing" textLength="95" x="122.93" y="163.3317">MostTravelledDistance</text><line style="stroke:#A80036;stroke-width:1.1400000000000001;" x1="69.16" x2="247" y1="171.76" y2="171.76"/><line style="stroke:#A80036;stroke-width:1.1400000000000001;" x1="69.16" x2="247" y1="177.84" y2="177.84"/><text fill="#000000" font-family="sans-serif" font-size="8.36" lengthAdjust="spacing" textLength="170.24" x="72.96" y="189.5584">+getTopNShips(listTree, startDate, endDate, n)</text><text fill="#000000" font-family="sans-serif" font-size="8.36" lengthAdjust="spacing" textLength="86.64" x="72.96" y="200.0737">+containShip(list, mMSI)</text><text fill="#000000" font-family="sans-serif" font-size="8.36" lengthAdjust="spacing" textLength="149.72" x="72.96" y="210.589">+checkDate(firstDate, lastDate, testDate)</text><text fill="#000000" font-family="sans-serif" font-size="8.36" lengthAdjust="spacing" textLength="95.76" x="72.96" y="221.1043">+sameMMSIList(list, mMSI)</text><!--MD5=[8a24afd1cedb2dcfeab70d9bc588ea4f]
class ShipResume--><rect codeLine="78" fill="#FEFECE" filter="url(#fczuqn00hakgy)" height="204.725" id="ShipResume" style="stroke:#A80036;stroke-width:1.1400000000000001;" width="222.68" x="24.7" y="271.32"/><ellipse cx="105.07" cy="283.48" fill="#ADD1B2" rx="8.36" ry="8.36" style="stroke:#A80036;stroke-width:0.76;"/><path d="M106.59,280.82 Q106.7444,280.44 106.9225,280.25 Q107.1006,280.06 107.3025,280.06 Q107.6588,280.06 107.8844,280.2738 Q108.11,280.4875 108.11,280.9863 L108.11,282.1738 Q108.11,282.6725 107.8963,282.8863 Q107.6825,283.1 107.35,283.1 Q107.0531,283.1 106.8631,282.9694 Q106.6731,282.8388 106.59,282.4944 Q106.5544,282.2569 106.4238,282.1263 Q106.1863,281.8769 105.7588,281.7344 Q105.3313,281.58 104.9038,281.58 Q104.3694,281.58 103.9181,281.7938 Q103.4788,282.0075 103.1344,282.4825 Q102.79,282.9575 102.79,283.6106 L102.79,284.3113 Q102.79,285.095 103.4313,285.6175 Q104.0725,286.14 105.2125,286.14 Q105.8894,286.14 106.3644,285.9856 Q106.6375,285.9025 106.9463,285.6294 Q107.1481,285.475 107.255,285.4275 Q107.3619,285.38 107.4925,285.38 Q107.7419,285.38 107.92,285.5819 Q108.11,285.7719 108.11,286.045 Q108.11,286.3063 107.8488,286.615 Q107.4688,287.0663 106.8631,287.3156 Q106.0675,287.66 105.0938,287.66 Q103.9538,287.66 103.0394,287.2088 Q102.3031,286.8525 101.7806,286.0806 Q101.27,285.3088 101.27,284.3944 L101.27,283.5631 Q101.27,282.6131 101.7213,281.7819 Q102.1844,280.9506 102.98,280.5113 Q103.7875,280.06 104.69,280.06 Q105.2363,280.06 105.7113,280.25 Q106.1863,280.44 106.59,280.82 Z " fill="#000000"/><text fill="#000000" font-family="sans-serif" font-size="9.12" lengthAdjust="spacing" textLength="55.48" x="120.65" y="287.2117">ShipResume</text><line style="stroke:#A80036;stroke-width:1.1400000000000001;" x1="25.46" x2="246.62" y1="295.64" y2="295.64"/><line style="stroke:#A80036;stroke-width:1.1400000000000001;" x1="25.46" x2="246.62" y1="301.72" y2="301.72"/><text fill="#000000" font-family="sans-serif" font-size="8.36" lengthAdjust="spacing" textLength="155.04" x="29.26" y="313.4384">+getShipResume( mMSI, BST&lt;ShipMMSI&gt; )</text><text fill="#000000" font-family="sans-serif" font-size="8.36" lengthAdjust="spacing" textLength="151.24" x="29.26" y="323.9537">+getBaseDateTimeInicial(List&lt;ShipMMSI&gt;)</text><text fill="#000000" font-family="sans-serif" font-size="8.36" lengthAdjust="spacing" textLength="150.48" x="29.26" y="334.469">+getBaseDateTimeFinal(List&lt;ShipMMSI&gt; )</text><text fill="#000000" font-family="sans-serif" font-size="8.36" lengthAdjust="spacing" textLength="150.48" x="29.26" y="344.9843">+getTotalMovementTime(List&lt;ShipMMSI&gt;)</text><text fill="#000000" font-family="sans-serif" font-size="8.36" lengthAdjust="spacing" textLength="175.56" x="29.26" y="355.4996">+getTotalNumberOfMovements(List&lt;ShipMMSI&gt;)</text><text fill="#000000" font-family="sans-serif" font-size="8.36" lengthAdjust="spacing" textLength="111.72" x="29.26" y="366.015">+getMaxSOG(List&lt;ShipMMSI&gt;)</text><text fill="#000000" font-family="sans-serif" font-size="8.36" lengthAdjust="spacing" textLength="118.56" x="29.26" y="376.5303">+getMeanSOG(List&lt;ShipMMSI&gt; )</text><text fill="#000000" font-family="sans-serif" font-size="8.36" lengthAdjust="spacing" textLength="118.56" x="29.26" y="387.0456">+getMeanCOG(List&lt;ShipMMSI&gt; )</text><text fill="#000000" font-family="sans-serif" font-size="8.36" lengthAdjust="spacing" textLength="111.72" x="29.26" y="397.5609">+getMaxCOG(List&lt;ShipMMSI&gt;)</text><text fill="#000000" font-family="sans-serif" font-size="8.36" lengthAdjust="spacing" textLength="213.56" x="29.26" y="408.0762">+containShip( mMSI, List&lt;Map.Entry&lt;ShipMMSI, Double&gt;&gt; )</text><text fill="#000000" font-family="sans-serif" font-size="8.36" lengthAdjust="spacing" textLength="144.4" x="29.26" y="418.5915">+getDepartureLatitude(List&lt;ShipMMSI&gt;)</text><text fill="#000000" font-family="sans-serif" font-size="8.36" lengthAdjust="spacing" textLength="153.52" x="29.26" y="429.1068">+getDepartureLongitude(List&lt;ShipMMSI&gt; )</text><text fill="#000000" font-family="sans-serif" font-size="8.36" lengthAdjust="spacing" textLength="134.52" x="29.26" y="439.6221">+getArrivalLatitude(List&lt;ShipMMSI&gt; )</text><text fill="#000000" font-family="sans-serif" font-size="8.36" lengthAdjust="spacing" textLength="141.36" x="29.26" y="450.1375">+getArrivalLongitude(List&lt;ShipMMSI&gt; )</text><text fill="#000000" font-family="sans-serif" font-size="8.36" lengthAdjust="spacing" textLength="136.04" x="29.26" y="460.6528">+getTravelDistance(List&lt;ShipMMSI&gt; )</text><text fill="#000000" font-family="sans-serif" font-size="8.36" lengthAdjust="spacing" textLength="131.48" x="29.26" y="471.1681">+getDeltaDistance(List&lt;ShipMMSI&gt; )</text><!--MD5=[d1906147152c5572c62928d7ca98fae7]
class TopNShipsOutput--><rect codeLine="99" fill="#FEFECE" filter="url(#fczuqn00hakgy)" height="46.9953" id="TopNShipsOutput" style="stroke:#A80036;stroke-width:1.1400000000000001;" width="98.8" x="554.8" y="349.98"/><ellipse cx="566.2" cy="362.14" fill="#ADD1B2" rx="8.36" ry="8.36" style="stroke:#A80036;stroke-width:0.76;"/><path d="M567.72,359.48 Q567.8744,359.1 568.0525,358.91 Q568.2306,358.72 568.4325,358.72 Q568.7888,358.72 569.0144,358.9338 Q569.24,359.1475 569.24,359.6463 L569.24,360.8338 Q569.24,361.3325 569.0263,361.5463 Q568.8125,361.76 568.48,361.76 Q568.1831,361.76 567.9931,361.6294 Q567.8031,361.4988 567.72,361.1544 Q567.6844,360.9169 567.5538,360.7863 Q567.3163,360.5369 566.8888,360.3944 Q566.4613,360.24 566.0338,360.24 Q565.4994,360.24 565.0481,360.4538 Q564.6088,360.6675 564.2644,361.1425 Q563.92,361.6175 563.92,362.2706 L563.92,362.9713 Q563.92,363.755 564.5613,364.2775 Q565.2025,364.8 566.3425,364.8 Q567.0194,364.8 567.4944,364.6456 Q567.7675,364.5625 568.0763,364.2894 Q568.2781,364.135 568.385,364.0875 Q568.4919,364.04 568.6225,364.04 Q568.8719,364.04 569.05,364.2419 Q569.24,364.4319 569.24,364.705 Q569.24,364.9663 568.9788,365.275 Q568.5988,365.7263 567.9931,365.9756 Q567.1975,366.32 566.2238,366.32 Q565.0838,366.32 564.1694,365.8688 Q563.4331,365.5125 562.9106,364.7406 Q562.4,363.9688 562.4,363.0544 L562.4,362.2231 Q562.4,361.2731 562.8513,360.4419 Q563.3144,359.6106 564.11,359.1713 Q564.9175,358.72 565.82,358.72 Q566.3663,358.72 566.8413,358.91 Q567.3163,359.1 567.72,359.48 Z " fill="#000000"/><text fill="#000000" font-family="sans-serif" font-size="9.12" lengthAdjust="spacing" textLength="74.48" x="576.84" y="365.8717">TopNShipsOutput</text><line style="stroke:#A80036;stroke-width:1.1400000000000001;" x1="555.56" x2="652.84" y1="374.3" y2="374.3"/><line style="stroke:#A80036;stroke-width:1.1400000000000001;" x1="555.56" x2="652.84" y1="380.38" y2="380.38"/><text fill="#000000" font-family="sans-serif" font-size="8.36" lengthAdjust="spacing" textLength="82.08" x="559.36" y="392.0984">+outputTopNships(list)</text><!--MD5=[8b1a914b2d9f036be1f9d3f36488bdea]
link MostTravelledDistanceController to MostTravelledDistance--><path codeLine="103" d="M158.08,89.756 C158.08,105.602 158.08,125.6888 158.08,143.3968 " fill="none" id="MostTravelledDistanceController-to-MostTravelledDistance" style="stroke:#A80036;stroke-width:0.76;stroke-dasharray:7.0,7.0;"/><polygon fill="#A80036" points="158.08,147.3716,161.12,140.5316,158.08,143.5716,155.04,140.5316,158.08,147.3716" style="stroke:#A80036;stroke-width:0.76;"/><!--MD5=[0c3d372bb55c20d9f7dab50c92a57b17]
link MostTravelledDistance to Ship--><path codeLine="104" d="M218.1428,225.8112 C234.0192,238.564 249.7436,253.992 260.68,271.32 C315.0656,357.5116 285.8588,396.4616 315.4,494 C320.872,512.0652 326.8608,530.6928 333.0928,549.3204 " fill="none" id="MostTravelledDistance-to-Ship" style="stroke:#A80036;stroke-width:0.76;stroke-dasharray:7.0,7.0;"/><polygon fill="#A80036" points="334.3468,553.0444,335.0543,545.5928,333.1386,549.4416,329.2898,547.5259,334.3468,553.0444" style="stroke:#A80036;stroke-width:0.76;"/><!--MD5=[3f7d0a3576a71780c008d5c549665701]
link MostTravelledDistance to ShipMMSI--><path codeLine="105" d="M234.1484,225.7276 C258.3924,239.0732 284.8632,254.8508 307.8,271.32 C330.6076,287.6904 353.9548,308.0508 373.4184,326.2224 " fill="none" id="MostTravelledDistance-to-ShipMMSI" style="stroke:#A80036;stroke-width:0.76;stroke-dasharray:7.0,7.0;"/><polygon fill="#A80036" points="376.2608,328.89,373.3356,322.0001,373.4832,326.2968,369.1865,326.4444,376.2608,328.89" style="stroke:#A80036;stroke-width:0.76;"/><!--MD5=[4ce75f10f2b4638cb67e67097968651c]
link MostTravelledDistance to ShipResume--><path codeLine="106" d="M153.5124,225.7656 C152.038,238.184 150.3204,252.6088 148.5572,267.482 " fill="none" id="MostTravelledDistance-to-ShipResume" style="stroke:#A80036;stroke-width:0.76;stroke-dasharray:7.0,7.0;"/><polygon fill="#A80036" points="148.1088,271.2668,151.9304,264.8308,148.5547,267.4931,145.8924,264.1173,148.1088,271.2668" style="stroke:#A80036;stroke-width:0.76;"/><!--MD5=[ce6d0b00711e3480c294208b275d215a]
link MostTravelledDistance to TopNShipsOutput--><path codeLine="107" d="M247.8892,191.2844 C326.2604,198.4208 440.2832,218.0136 524.4,271.32 C553.7208,289.902 576.7716,323.1368 590.406,346.4916 " fill="none" id="MostTravelledDistance-to-TopNShipsOutput" style="stroke:#A80036;stroke-width:0.76;stroke-dasharray:7.0,7.0;"/><polygon fill="#A80036" points="592.3516,349.866,591.5632,342.4225,590.4511,346.5754,586.2982,345.4633,592.3516,349.866" style="stroke:#A80036;stroke-width:0.76;"/><!--MD5=[a1b029cdb24dba4faabf1ab8ad44429c]
link ShipMMSI to Ship--><path codeLine="108" d="M419.5124,418.3496 C419.0564,444.296 418.4408,479.4232 417.772,517.3852 " fill="none" id="ShipMMSI-to-Ship" style="stroke:#A80036;stroke-width:0.76;stroke-dasharray:7.0,7.0;"/><polygon fill="#A80036" points="417.7036,521.3068,420.8604,514.5199,417.7687,517.5074,414.7813,514.4157,417.7036,521.3068" style="stroke:#A80036;stroke-width:0.76;"/><!--MD5=[03974c03c39a48a3b7ae4584bfcf13a4]
@startuml
skinparam classAttributeIconSize 0


package Controller{
class MostTravelledDistanceController{
+MostTravelledDistanceController()
+getTopNShips(listTree, startDate, endDate, n)
}
}


package Domain{
class Ship {
  - mMSI
  -baseDateTime
  -lat
  -lon
  -sog
  -cog
  -heading
  -vesselName
  -iMO
  -callSign
  -vesselType
  -length
  -width
  -draft
  -cargo
  -transcieverClass

  +getMMSI()
  +getBaseDateTime()
  +getLat()
  +getLon()
  +getSOG()
  +getCOG()
  +getHeading()
  +getVesselType()
  +getLenght()
  +getWidth()
  +getDraft()
  +getCargo()
  +getTranscieverClass()
  +setMMSI(mMSI)
  +setBaseDateTime(baseDateTime)
  +setLati(lati)
  +setLong(long)
  +setSOG(sog)
  +setCOG(cog)
  +setHeading(heading)
  +setVesselType(vesselType)
  +setLenght(lenght)
  +setWidth(width)
  +setDraft(draft)
  +setCargo(cargo)
  +setTranscieverClass(transcieverClass)
  +Ship()
}

class ShipMMSI{
+ShipMMSI(ship)
+ShipMMSI(List<Map.Entry<String, ShipMMSI>>)
+getMapList()
+compareTo(ShipMMSI)
+toString()
}

}

package Services{
class MostTravelledDistance{
+getTopNShips(listTree, startDate, endDate, n)
+containShip(list, mMSI)
+checkDate(firstDate, lastDate, testDate)
+sameMMSIList(list, mMSI)
}

 class ShipResume {
    +getShipResume( mMSI, BST<ShipMMSI> )
    +getBaseDateTimeInicial(List<ShipMMSI>)
    +getBaseDateTimeFinal(List<ShipMMSI> )
    +getTotalMovementTime(List<ShipMMSI>)
    +getTotalNumberOfMovements(List<ShipMMSI>)
    +getMaxSOG(List<ShipMMSI>)
    +getMeanSOG(List<ShipMMSI> )
    +getMeanCOG(List<ShipMMSI> )
    +getMaxCOG(List<ShipMMSI>)
    +containShip( mMSI, List<Map.Entry<ShipMMSI, Double>> )
    +getDepartureLatitude(List<ShipMMSI>)
    + getDepartureLongitude(List<ShipMMSI> )
    +getArrivalLatitude(List<ShipMMSI> )
    +getArrivalLongitude(List<ShipMMSI> )
    +getTravelDistance(List<ShipMMSI> )
    +getDeltaDistance(List<ShipMMSI> )
}
}

package Utils{
class TopNShipsOutput{
+outputTopNships(list)
}

MostTravelledDistanceController..> MostTravelledDistance
MostTravelledDistance..>Ship
MostTravelledDistance..>ShipMMSI
MostTravelledDistance..> ShipResume
MostTravelledDistance..>TopNShipsOutput
ShipMMSI..>Ship
}
@enduml

PlantUML version 1.2021.00(Sun Jan 10 10:25:05 GMT 2021)
(GPL source distribution)
Java Runtime: OpenJDK Runtime Environment
JVM: OpenJDK 64-Bit Server VM
Default Encoding: Cp1252
Language: pt
Country: PT
--></g></svg>