<?xml version="1.0" encoding="UTF-8" standalone="no"?><svg xmlns="http://www.w3.org/2000/svg" xmlns:xlink="http://www.w3.org/1999/xlink" contentScriptType="application/ecmascript" contentStyleType="text/css" height="1587.5px" preserveAspectRatio="none" style="width:1290px;height:1587px;" version="1.1" viewBox="0 0 1290 1587" width="1290px" zoomAndPan="magnify"><defs><filter height="300%" id="f1q4yqe4ztj9kl" width="300%" x="-1" y="-1"><feGaussianBlur result="blurOut" stdDeviation="2.5"/><feColorMatrix in="blurOut" result="blurOut2" type="matrix" values="0 0 0 0 0 0 0 0 0 0 0 0 0 0 0 0 0 0 .4 0"/><feOffset dx="5.0" dy="5.0" in="blurOut2" result="blurOut3"/><feBlend in="SourceGraphic" in2="blurOut3" mode="normal"/></filter></defs><g><!--MD5=[1f2cfc53d9d308f53762fd0fcbaa4873]
cluster Controller--><polygon fill="#FFFFFF" filter="url(#f1q4yqe4ztj9kl)" points="246.25,7.5,342.5,7.5,351.25,37.0117,1136.25,37.0117,1136.25,510,246.25,510,246.25,7.5" style="stroke:#000000;stroke-width:1.875;"/><line style="stroke:#000000;stroke-width:1.875;" x1="246.25" x2="351.25" y1="37.0117" y2="37.0117"/><text fill="#000000" font-family="sans-serif" font-size="17.5" font-weight="bold" lengthAdjust="spacing" textLength="88.75" x="251.25" y="28.1665">Controller</text><!--MD5=[121a8bf1197281ab89ed693fab589f94]
cluster Domain--><polygon fill="#FFFFFF" filter="url(#f1q4yqe4ztj9kl)" points="20,540,92.5,540,101.25,569.5117,1268.75,569.5117,1268.75,1578.75,20,1578.75,20,540" style="stroke:#000000;stroke-width:1.875;"/><line style="stroke:#000000;stroke-width:1.875;" x1="20" x2="101.25" y1="569.5117" y2="569.5117"/><text fill="#000000" font-family="sans-serif" font-size="17.5" font-weight="bold" lengthAdjust="spacing" textLength="65" x="25" y="560.6665">Domain</text><!--MD5=[02ce099fa09443ce3c624c6e60f8d920]
class ReadShipController--><rect codeLine="5" fill="#FEFECE" filter="url(#f1q4yqe4ztj9kl)" height="181.0645" id="ReadShipController" style="stroke:#A80036;stroke-width:1.875;" width="176.25" x="603.125" y="52.5"/><ellipse cx="621.875" cy="72.5" fill="#ADD1B2" rx="13.75" ry="13.75" style="stroke:#A80036;stroke-width:1.25;"/><path d="M624.375,68.125 Q624.6289,67.5 624.9219,67.1875 Q625.2148,66.875 625.5469,66.875 Q626.1328,66.875 626.5039,67.2266 Q626.875,67.5781 626.875,68.3984 L626.875,70.3516 Q626.875,71.1719 626.5234,71.5234 Q626.1719,71.875 625.625,71.875 Q625.1367,71.875 624.8242,71.6602 Q624.5117,71.4453 624.375,70.8789 Q624.3164,70.4883 624.1016,70.2734 Q623.7109,69.8633 623.0078,69.6289 Q622.3047,69.375 621.6016,69.375 Q620.7227,69.375 619.9805,69.7266 Q619.2578,70.0781 618.6914,70.8594 Q618.125,71.6406 618.125,72.7148 L618.125,73.8672 Q618.125,75.1563 619.1797,76.0156 Q620.2344,76.875 622.1094,76.875 Q623.2227,76.875 624.0039,76.6211 Q624.4531,76.4844 624.9609,76.0352 Q625.293,75.7813 625.4688,75.7031 Q625.6445,75.625 625.8594,75.625 Q626.2695,75.625 626.5625,75.957 Q626.875,76.2695 626.875,76.7188 Q626.875,77.1484 626.4453,77.6563 Q625.8203,78.3984 624.8242,78.8086 Q623.5156,79.375 621.9141,79.375 Q620.0391,79.375 618.5352,78.6328 Q617.3242,78.0469 616.4648,76.7773 Q615.625,75.5078 615.625,74.0039 L615.625,72.6367 Q615.625,71.0742 616.3672,69.707 Q617.1289,68.3398 618.4375,67.6172 Q619.7656,66.875 621.25,66.875 Q622.1484,66.875 622.9297,67.1875 Q623.7109,67.5 624.375,68.125 Z " fill="#000000"/><text fill="#000000" font-family="sans-serif" font-size="15" lengthAdjust="spacing" textLength="136.25" x="639.375" y="78.6377">ReadShipController</text><line style="stroke:#A80036;stroke-width:1.875;" x1="604.375" x2="778.125" y1="92.5" y2="92.5"/><line style="stroke:#A80036;stroke-width:1.875;" x1="604.375" x2="778.125" y1="102.5" y2="102.5"/><text fill="#000000" font-family="sans-serif" font-size="13.75" lengthAdjust="spacing" textLength="42.5" x="610.625" y="121.7737">+load()</text><text fill="#000000" font-family="sans-serif" font-size="13.75" lengthAdjust="spacing" textLength="78.75" x="610.625" y="139.0686">+readShips()</text><text fill="#000000" font-family="sans-serif" font-size="13.75" lengthAdjust="spacing" textLength="125" x="610.625" y="156.3635">+checkCargo(String)</text><text fill="#000000" font-family="sans-serif" font-size="13.75" lengthAdjust="spacing" textLength="107.5" x="610.625" y="173.6584">+checkLat(String)</text><text fill="#000000" font-family="sans-serif" font-size="13.75" lengthAdjust="spacing" textLength="111.25" x="610.625" y="190.9534">+checkLon(String)</text><text fill="#000000" font-family="sans-serif" font-size="13.75" lengthAdjust="spacing" textLength="137.5" x="610.625" y="208.2483">+checkHeading(String)</text><text fill="#000000" font-family="sans-serif" font-size="13.75" lengthAdjust="spacing" textLength="97.5" x="610.625" y="225.5432">+isUseBigFiles()</text><!--MD5=[12b6b72286375a4e7846b6c6dea64ad0]
class ShipsTreeController--><rect codeLine="14" fill="#FEFECE" filter="url(#f1q4yqe4ztj9kl)" height="181.0645" id="ShipsTreeController" style="stroke:#A80036;stroke-width:1.875;" width="848.75" x="266.875" y="308.75"/><ellipse cx="616.5625" cy="328.75" fill="#ADD1B2" rx="13.75" ry="13.75" style="stroke:#A80036;stroke-width:1.25;"/><path d="M619.0625,324.375 Q619.3164,323.75 619.6094,323.4375 Q619.9023,323.125 620.2344,323.125 Q620.8203,323.125 621.1914,323.4766 Q621.5625,323.8281 621.5625,324.6484 L621.5625,326.6016 Q621.5625,327.4219 621.2109,327.7734 Q620.8594,328.125 620.3125,328.125 Q619.8242,328.125 619.5117,327.9102 Q619.1992,327.6953 619.0625,327.1289 Q619.0039,326.7383 618.7891,326.5234 Q618.3984,326.1133 617.6953,325.8789 Q616.9922,325.625 616.2891,325.625 Q615.4102,325.625 614.668,325.9766 Q613.9453,326.3281 613.3789,327.1094 Q612.8125,327.8906 612.8125,328.9648 L612.8125,330.1172 Q612.8125,331.4063 613.8672,332.2656 Q614.9219,333.125 616.7969,333.125 Q617.9102,333.125 618.6914,332.8711 Q619.1406,332.7344 619.6484,332.2852 Q619.9805,332.0313 620.1563,331.9531 Q620.332,331.875 620.5469,331.875 Q620.957,331.875 621.25,332.207 Q621.5625,332.5195 621.5625,332.9688 Q621.5625,333.3984 621.1328,333.9063 Q620.5078,334.6484 619.5117,335.0586 Q618.2031,335.625 616.6016,335.625 Q614.7266,335.625 613.2227,334.8828 Q612.0117,334.2969 611.1523,333.0273 Q610.3125,331.7578 610.3125,330.2539 L610.3125,328.8867 Q610.3125,327.3242 611.0547,325.957 Q611.8164,324.5898 613.125,323.8672 Q614.4531,323.125 615.9375,323.125 Q616.8359,323.125 617.6172,323.4375 Q618.3984,323.75 619.0625,324.375 Z " fill="#000000"/><text fill="#000000" font-family="sans-serif" font-size="15" lengthAdjust="spacing" textLength="138.75" x="642.1875" y="334.8877">ShipsTreeController</text><line style="stroke:#A80036;stroke-width:1.875;" x1="268.125" x2="1114.375" y1="348.75" y2="348.75"/><line style="stroke:#A80036;stroke-width:1.875;" x1="268.125" x2="1114.375" y1="358.75" y2="358.75"/><text fill="#000000" font-family="sans-serif" font-size="13.75" lengthAdjust="spacing" textLength="833.75" x="274.375" y="378.0237">+creatShipTree(mMSI, baseDateTime,lAT,lON,sOG,cOG,heading,vesselName,iMO,callSign,vesselType,length,width,draft,cargo,transClass)</text><text fill="#000000" font-family="sans-serif" font-size="13.75" lengthAdjust="spacing" textLength="135" x="274.375" y="395.3186">+getBSTByShipMMSI()</text><text fill="#000000" font-family="sans-serif" font-size="13.75" lengthAdjust="spacing" textLength="126.25" x="274.375" y="412.6135">+getBSTByShipIMO()</text><text fill="#000000" font-family="sans-serif" font-size="13.75" lengthAdjust="spacing" textLength="125" x="274.375" y="429.9084">+getBSTByCallSign()</text><text fill="#000000" font-family="sans-serif" font-size="13.75" lengthAdjust="spacing" textLength="83.75" x="274.375" y="447.2034">+resetTrees()</text><text fill="#000000" font-family="sans-serif" font-size="13.75" lengthAdjust="spacing" textLength="87.5" x="274.375" y="464.4983">+getInstance()</text><text fill="#000000" font-family="sans-serif" font-size="13.75" lengthAdjust="spacing" textLength="136.25" x="274.375" y="481.7932">+ShipsTreeController()</text><!--MD5=[2c6aedb146fa1671a581aca30496b499]
class ShipTreeCreate--><rect codeLine="29" fill="#FEFECE" filter="url(#f1q4yqe4ztj9kl)" height="319.4238" id="ShipTreeCreate" style="stroke:#A80036;stroke-width:1.875;" width="247.5" x="567.5" y="585"/><ellipse cx="631.5625" cy="605" fill="#ADD1B2" rx="13.75" ry="13.75" style="stroke:#A80036;stroke-width:1.25;"/><path d="M634.0625,600.625 Q634.3164,600 634.6094,599.6875 Q634.9023,599.375 635.2344,599.375 Q635.8203,599.375 636.1914,599.7266 Q636.5625,600.0781 636.5625,600.8984 L636.5625,602.8516 Q636.5625,603.6719 636.2109,604.0234 Q635.8594,604.375 635.3125,604.375 Q634.8242,604.375 634.5117,604.1602 Q634.1992,603.9453 634.0625,603.3789 Q634.0039,602.9883 633.7891,602.7734 Q633.3984,602.3633 632.6953,602.1289 Q631.9922,601.875 631.2891,601.875 Q630.4102,601.875 629.668,602.2266 Q628.9453,602.5781 628.3789,603.3594 Q627.8125,604.1406 627.8125,605.2148 L627.8125,606.3672 Q627.8125,607.6563 628.8672,608.5156 Q629.9219,609.375 631.7969,609.375 Q632.9102,609.375 633.6914,609.1211 Q634.1406,608.9844 634.6484,608.5352 Q634.9805,608.2813 635.1563,608.2031 Q635.332,608.125 635.5469,608.125 Q635.957,608.125 636.25,608.457 Q636.5625,608.7695 636.5625,609.2188 Q636.5625,609.6484 636.1328,610.1563 Q635.5078,610.8984 634.5117,611.3086 Q633.2031,611.875 631.6016,611.875 Q629.7266,611.875 628.2227,611.1328 Q627.0117,610.5469 626.1523,609.2773 Q625.3125,608.0078 625.3125,606.5039 L625.3125,605.1367 Q625.3125,603.5742 626.0547,602.207 Q626.8164,600.8398 628.125,600.1172 Q629.4531,599.375 630.9375,599.375 Q631.8359,599.375 632.6172,599.6875 Q633.3984,600 634.0625,600.625 Z " fill="#000000"/><text fill="#000000" font-family="sans-serif" font-size="15" lengthAdjust="spacing" textLength="108.75" x="657.1875" y="611.1377">ShipTreeCreate</text><line style="stroke:#A80036;stroke-width:1.875;" x1="568.75" x2="813.75" y1="625" y2="625"/><text fill="#000000" font-family="sans-serif" font-size="13.75" lengthAdjust="spacing" textLength="102.5" x="575" y="644.2737">-BST&lt;ShipMMSI&gt;</text><text fill="#000000" font-family="sans-serif" font-size="13.75" lengthAdjust="spacing" textLength="93.75" x="575" y="661.5686">-BST&lt;ShipIMO&gt;</text><text fill="#000000" font-family="sans-serif" font-size="13.75" lengthAdjust="spacing" textLength="118.75" x="575" y="678.8635">-BST&lt;ShipCallSign&gt;</text><text fill="#000000" font-family="sans-serif" font-size="13.75" lengthAdjust="spacing" textLength="222.5" x="575" y="696.1584">-List&lt;Map.Entry&lt;Integer, ShipMMSI&gt;&gt;</text><text fill="#000000" font-family="sans-serif" font-size="13.75" lengthAdjust="spacing" textLength="207.5" x="575" y="713.4534">-List&lt;Map.Entry&lt;String, ShipIMO&gt;&gt;</text><text fill="#000000" font-family="sans-serif" font-size="13.75" lengthAdjust="spacing" textLength="232.5" x="575" y="730.7483">-List&lt;Map.Entry&lt;String, ShipCallSign&gt;&gt;</text><line style="stroke:#A80036;stroke-width:1.875;" x1="568.75" x2="813.75" y1="738.7695" y2="738.7695"/><text fill="#000000" font-family="sans-serif" font-size="13.75" lengthAdjust="spacing" textLength="165" x="575" y="758.0432">+createShipMMSIMap(Ship)</text><text fill="#000000" font-family="sans-serif" font-size="13.75" lengthAdjust="spacing" textLength="156.25" x="575" y="775.3381">+createShipIMOMap(Ship)</text><text fill="#000000" font-family="sans-serif" font-size="13.75" lengthAdjust="spacing" textLength="181.25" x="575" y="792.6331">+createShipCallSignMap(Ship)</text><text fill="#000000" font-family="sans-serif" font-size="13.75" lengthAdjust="spacing" textLength="132.5" x="575" y="809.928">+creatShipTree(Ship )</text><text fill="#000000" font-family="sans-serif" font-size="13.75" lengthAdjust="spacing" textLength="111.25" x="575" y="827.2229">+ShipTreeCreate()</text><text fill="#000000" font-family="sans-serif" font-size="13.75" lengthAdjust="spacing" textLength="95" x="575" y="844.5178">+getTreeMMSI()</text><text fill="#000000" font-family="sans-serif" font-size="13.75" lengthAdjust="spacing" textLength="86.25" x="575" y="861.8127">+getTreeIMO()</text><text fill="#000000" font-family="sans-serif" font-size="13.75" lengthAdjust="spacing" textLength="111.25" x="575" y="879.1077">+getTreeCallSign()</text><text fill="#000000" font-family="sans-serif" font-size="13.75" lengthAdjust="spacing" textLength="83.75" x="575" y="896.4026">+resetTress()</text><!--MD5=[0b518a767dd1028241969b5a153606c0]
class ShipCallSign--><rect codeLine="47" fill="#FEFECE" filter="url(#f1q4yqe4ztj9kl)" height="146.4746" id="ShipCallSign" style="stroke:#A80036;stroke-width:1.875;" width="333.75" x="40.625" y="1196.25"/><ellipse cx="157.1875" cy="1216.25" fill="#ADD1B2" rx="13.75" ry="13.75" style="stroke:#A80036;stroke-width:1.25;"/><path d="M159.6875,1211.875 Q159.9414,1211.25 160.2344,1210.9375 Q160.5273,1210.625 160.8594,1210.625 Q161.4453,1210.625 161.8164,1210.9766 Q162.1875,1211.3281 162.1875,1212.1484 L162.1875,1214.1016 Q162.1875,1214.9219 161.8359,1215.2734 Q161.4844,1215.625 160.9375,1215.625 Q160.4492,1215.625 160.1367,1215.4102 Q159.8242,1215.1953 159.6875,1214.6289 Q159.6289,1214.2383 159.4141,1214.0234 Q159.0234,1213.6133 158.3203,1213.3789 Q157.6172,1213.125 156.9141,1213.125 Q156.0352,1213.125 155.293,1213.4766 Q154.5703,1213.8281 154.0039,1214.6094 Q153.4375,1215.3906 153.4375,1216.4648 L153.4375,1217.6172 Q153.4375,1218.9063 154.4922,1219.7656 Q155.5469,1220.625 157.4219,1220.625 Q158.5352,1220.625 159.3164,1220.3711 Q159.7656,1220.2344 160.2734,1219.7852 Q160.6055,1219.5313 160.7813,1219.4531 Q160.957,1219.375 161.1719,1219.375 Q161.582,1219.375 161.875,1219.707 Q162.1875,1220.0195 162.1875,1220.4688 Q162.1875,1220.8984 161.7578,1221.4063 Q161.1328,1222.1484 160.1367,1222.5586 Q158.8281,1223.125 157.2266,1223.125 Q155.3516,1223.125 153.8477,1222.3828 Q152.6367,1221.7969 151.7773,1220.5273 Q150.9375,1219.2578 150.9375,1217.7539 L150.9375,1216.3867 Q150.9375,1214.8242 151.6797,1213.457 Q152.4414,1212.0898 153.75,1211.3672 Q155.0781,1210.625 156.5625,1210.625 Q157.4609,1210.625 158.2422,1210.9375 Q159.0234,1211.25 159.6875,1211.875 Z " fill="#000000"/><text fill="#000000" font-family="sans-serif" font-size="15" lengthAdjust="spacing" textLength="90" x="182.8125" y="1222.3877">ShipCallSign</text><line style="stroke:#A80036;stroke-width:1.875;" x1="41.875" x2="373.125" y1="1236.25" y2="1236.25"/><line style="stroke:#A80036;stroke-width:1.875;" x1="41.875" x2="373.125" y1="1246.25" y2="1246.25"/><text fill="#000000" font-family="sans-serif" font-size="13.75" lengthAdjust="spacing" textLength="116.25" x="48.125" y="1265.5237">+ShipCallSign(ship)</text><text fill="#000000" font-family="sans-serif" font-size="13.75" lengthAdjust="spacing" textLength="318.75" x="48.125" y="1282.8186">+ShipCallSign(List&lt;Map.Entry&lt;String, ShipCallSign&gt;&gt;)</text><text fill="#000000" font-family="sans-serif" font-size="13.75" lengthAdjust="spacing" textLength="82.5" x="48.125" y="1300.1135">+getMapList()</text><text fill="#000000" font-family="sans-serif" font-size="13.75" lengthAdjust="spacing" textLength="162.5" x="48.125" y="1317.4084">+compareTo(ShipCallSign )</text><text fill="#000000" font-family="sans-serif" font-size="13.75" lengthAdjust="spacing" textLength="63.75" x="48.125" y="1334.7034">+toString()</text><!--MD5=[1fc0a243ea956c06e91a39f313ddcfa8]
class ShipIMO--><rect codeLine="55" fill="#FEFECE" filter="url(#f1q4yqe4ztj9kl)" height="146.4746" id="ShipIMO" style="stroke:#A80036;stroke-width:1.875;" width="283.75" x="418.125" y="1196.25"/><ellipse cx="525.9375" cy="1216.25" fill="#ADD1B2" rx="13.75" ry="13.75" style="stroke:#A80036;stroke-width:1.25;"/><path d="M528.4375,1211.875 Q528.6914,1211.25 528.9844,1210.9375 Q529.2773,1210.625 529.6094,1210.625 Q530.1953,1210.625 530.5664,1210.9766 Q530.9375,1211.3281 530.9375,1212.1484 L530.9375,1214.1016 Q530.9375,1214.9219 530.5859,1215.2734 Q530.2344,1215.625 529.6875,1215.625 Q529.1992,1215.625 528.8867,1215.4102 Q528.5742,1215.1953 528.4375,1214.6289 Q528.3789,1214.2383 528.1641,1214.0234 Q527.7734,1213.6133 527.0703,1213.3789 Q526.3672,1213.125 525.6641,1213.125 Q524.7852,1213.125 524.043,1213.4766 Q523.3203,1213.8281 522.7539,1214.6094 Q522.1875,1215.3906 522.1875,1216.4648 L522.1875,1217.6172 Q522.1875,1218.9063 523.2422,1219.7656 Q524.2969,1220.625 526.1719,1220.625 Q527.2852,1220.625 528.0664,1220.3711 Q528.5156,1220.2344 529.0234,1219.7852 Q529.3555,1219.5313 529.5313,1219.4531 Q529.707,1219.375 529.9219,1219.375 Q530.332,1219.375 530.625,1219.707 Q530.9375,1220.0195 530.9375,1220.4688 Q530.9375,1220.8984 530.5078,1221.4063 Q529.8828,1222.1484 528.8867,1222.5586 Q527.5781,1223.125 525.9766,1223.125 Q524.1016,1223.125 522.5977,1222.3828 Q521.3867,1221.7969 520.5273,1220.5273 Q519.6875,1219.2578 519.6875,1217.7539 L519.6875,1216.3867 Q519.6875,1214.8242 520.4297,1213.457 Q521.1914,1212.0898 522.5,1211.3672 Q523.8281,1210.625 525.3125,1210.625 Q526.2109,1210.625 526.9922,1210.9375 Q527.7734,1211.25 528.4375,1211.875 Z " fill="#000000"/><text fill="#000000" font-family="sans-serif" font-size="15" lengthAdjust="spacing" textLength="57.5" x="551.5625" y="1222.3877">ShipIMO</text><line style="stroke:#A80036;stroke-width:1.875;" x1="419.375" x2="700.625" y1="1236.25" y2="1236.25"/><line style="stroke:#A80036;stroke-width:1.875;" x1="419.375" x2="700.625" y1="1246.25" y2="1246.25"/><text fill="#000000" font-family="sans-serif" font-size="13.75" lengthAdjust="spacing" textLength="91.25" x="425.625" y="1265.5237">+ShipIMO(ship)</text><text fill="#000000" font-family="sans-serif" font-size="13.75" lengthAdjust="spacing" textLength="268.75" x="425.625" y="1282.8186">+ShipIMO(List&lt;Map.Entry&lt;String, ShipIMO&gt;&gt;)</text><text fill="#000000" font-family="sans-serif" font-size="13.75" lengthAdjust="spacing" textLength="82.5" x="425.625" y="1300.1135">+getMapList()</text><text fill="#000000" font-family="sans-serif" font-size="13.75" lengthAdjust="spacing" textLength="137.5" x="425.625" y="1317.4084">+compareTo(ShipIMO )</text><text fill="#000000" font-family="sans-serif" font-size="13.75" lengthAdjust="spacing" textLength="63.75" x="425.625" y="1334.7034">+toString()</text><!--MD5=[10842816a521f091e096081c0b3409a1]
class ShipMMSI--><rect codeLine="63" fill="#FEFECE" filter="url(#f1q4yqe4ztj9kl)" height="146.4746" id="ShipMMSI" style="stroke:#A80036;stroke-width:1.875;" width="301.25" x="745.625" y="1196.25"/><ellipse cx="857.1875" cy="1216.25" fill="#ADD1B2" rx="13.75" ry="13.75" style="stroke:#A80036;stroke-width:1.25;"/><path d="M859.6875,1211.875 Q859.9414,1211.25 860.2344,1210.9375 Q860.5273,1210.625 860.8594,1210.625 Q861.4453,1210.625 861.8164,1210.9766 Q862.1875,1211.3281 862.1875,1212.1484 L862.1875,1214.1016 Q862.1875,1214.9219 861.8359,1215.2734 Q861.4844,1215.625 860.9375,1215.625 Q860.4492,1215.625 860.1367,1215.4102 Q859.8242,1215.1953 859.6875,1214.6289 Q859.6289,1214.2383 859.4141,1214.0234 Q859.0234,1213.6133 858.3203,1213.3789 Q857.6172,1213.125 856.9141,1213.125 Q856.0352,1213.125 855.293,1213.4766 Q854.5703,1213.8281 854.0039,1214.6094 Q853.4375,1215.3906 853.4375,1216.4648 L853.4375,1217.6172 Q853.4375,1218.9063 854.4922,1219.7656 Q855.5469,1220.625 857.4219,1220.625 Q858.5352,1220.625 859.3164,1220.3711 Q859.7656,1220.2344 860.2734,1219.7852 Q860.6055,1219.5313 860.7813,1219.4531 Q860.957,1219.375 861.1719,1219.375 Q861.582,1219.375 861.875,1219.707 Q862.1875,1220.0195 862.1875,1220.4688 Q862.1875,1220.8984 861.7578,1221.4063 Q861.1328,1222.1484 860.1367,1222.5586 Q858.8281,1223.125 857.2266,1223.125 Q855.3516,1223.125 853.8477,1222.3828 Q852.6367,1221.7969 851.7773,1220.5273 Q850.9375,1219.2578 850.9375,1217.7539 L850.9375,1216.3867 Q850.9375,1214.8242 851.6797,1213.457 Q852.4414,1212.0898 853.75,1211.3672 Q855.0781,1210.625 856.5625,1210.625 Q857.4609,1210.625 858.2422,1210.9375 Q859.0234,1211.25 859.6875,1211.875 Z " fill="#000000"/><text fill="#000000" font-family="sans-serif" font-size="15" lengthAdjust="spacing" textLength="67.5" x="882.8125" y="1222.3877">ShipMMSI</text><line style="stroke:#A80036;stroke-width:1.875;" x1="746.875" x2="1045.625" y1="1236.25" y2="1236.25"/><line style="stroke:#A80036;stroke-width:1.875;" x1="746.875" x2="1045.625" y1="1246.25" y2="1246.25"/><text fill="#000000" font-family="sans-serif" font-size="13.75" lengthAdjust="spacing" textLength="100" x="753.125" y="1265.5237">+ShipMMSI(ship)</text><text fill="#000000" font-family="sans-serif" font-size="13.75" lengthAdjust="spacing" textLength="286.25" x="753.125" y="1282.8186">+ShipMMSI(List&lt;Map.Entry&lt;String, ShipMMSI&gt;&gt;)</text><text fill="#000000" font-family="sans-serif" font-size="13.75" lengthAdjust="spacing" textLength="82.5" x="753.125" y="1300.1135">+getMapList()</text><text fill="#000000" font-family="sans-serif" font-size="13.75" lengthAdjust="spacing" textLength="142.5" x="753.125" y="1317.4084">+compareTo(ShipMMSI)</text><text fill="#000000" font-family="sans-serif" font-size="13.75" lengthAdjust="spacing" textLength="63.75" x="753.125" y="1334.7034">+toString()</text><!--MD5=[0dc7f2ddb409b58bcf52b12238c25399]
class Ship--><rect codeLine="71" fill="#FEFECE" filter="url(#f1q4yqe4ztj9kl)" height="578.8477" id="Ship" style="stroke:#A80036;stroke-width:1.875;" width="157.5" x="1091.25" y="980"/><ellipse cx="1149.0625" cy="1000" fill="#ADD1B2" rx="13.75" ry="13.75" style="stroke:#A80036;stroke-width:1.25;"/><path d="M1151.5625,995.625 Q1151.8164,995 1152.1094,994.6875 Q1152.4023,994.375 1152.7344,994.375 Q1153.3203,994.375 1153.6914,994.7266 Q1154.0625,995.0781 1154.0625,995.8984 L1154.0625,997.8516 Q1154.0625,998.6719 1153.7109,999.0234 Q1153.3594,999.375 1152.8125,999.375 Q1152.3242,999.375 1152.0117,999.1602 Q1151.6992,998.9453 1151.5625,998.3789 Q1151.5039,997.9883 1151.2891,997.7734 Q1150.8984,997.3633 1150.1953,997.1289 Q1149.4922,996.875 1148.7891,996.875 Q1147.9102,996.875 1147.168,997.2266 Q1146.4453,997.5781 1145.8789,998.3594 Q1145.3125,999.1406 1145.3125,1000.2148 L1145.3125,1001.3672 Q1145.3125,1002.6563 1146.3672,1003.5156 Q1147.4219,1004.375 1149.2969,1004.375 Q1150.4102,1004.375 1151.1914,1004.1211 Q1151.6406,1003.9844 1152.1484,1003.5352 Q1152.4805,1003.2813 1152.6563,1003.2031 Q1152.832,1003.125 1153.0469,1003.125 Q1153.457,1003.125 1153.75,1003.457 Q1154.0625,1003.7695 1154.0625,1004.2188 Q1154.0625,1004.6484 1153.6328,1005.1563 Q1153.0078,1005.8984 1152.0117,1006.3086 Q1150.7031,1006.875 1149.1016,1006.875 Q1147.2266,1006.875 1145.7227,1006.1328 Q1144.5117,1005.5469 1143.6523,1004.2773 Q1142.8125,1003.0078 1142.8125,1001.5039 L1142.8125,1000.1367 Q1142.8125,998.5742 1143.5547,997.207 Q1144.3164,995.8398 1145.625,995.1172 Q1146.9531,994.375 1148.4375,994.375 Q1149.3359,994.375 1150.1172,994.6875 Q1150.8984,995 1151.5625,995.625 Z " fill="#000000"/><text fill="#000000" font-family="sans-serif" font-size="15" lengthAdjust="spacing" textLength="31.25" x="1174.6875" y="1006.1377">Ship</text><line style="stroke:#A80036;stroke-width:1.875;" x1="1092.5" x2="1247.5" y1="1020" y2="1020"/><text fill="#000000" font-family="sans-serif" font-size="13.75" lengthAdjust="spacing" textLength="36.25" x="1098.75" y="1039.2737">-mMSI</text><text fill="#000000" font-family="sans-serif" font-size="13.75" lengthAdjust="spacing" textLength="90" x="1098.75" y="1056.5686">-baseDateTime</text><text fill="#000000" font-family="sans-serif" font-size="13.75" lengthAdjust="spacing" textLength="21.25" x="1098.75" y="1073.8635">-lati</text><text fill="#000000" font-family="sans-serif" font-size="13.75" lengthAdjust="spacing" textLength="30" x="1098.75" y="1091.1584">-long</text><text fill="#000000" font-family="sans-serif" font-size="13.75" lengthAdjust="spacing" textLength="27.5" x="1098.75" y="1108.4534">-sog</text><text fill="#000000" font-family="sans-serif" font-size="13.75" lengthAdjust="spacing" textLength="27.5" x="1098.75" y="1125.7483">-cog</text><text fill="#000000" font-family="sans-serif" font-size="13.75" lengthAdjust="spacing" textLength="52.5" x="1098.75" y="1143.0432">-heading</text><text fill="#000000" font-family="sans-serif" font-size="13.75" lengthAdjust="spacing" textLength="78.75" x="1098.75" y="1160.3381">-vesselName</text><text fill="#000000" font-family="sans-serif" font-size="13.75" lengthAdjust="spacing" textLength="27.5" x="1098.75" y="1177.6331">-iMO</text><text fill="#000000" font-family="sans-serif" font-size="13.75" lengthAdjust="spacing" textLength="51.25" x="1098.75" y="1194.928">-callSign</text><text fill="#000000" font-family="sans-serif" font-size="13.75" lengthAdjust="spacing" textLength="75" x="1098.75" y="1212.2229">-vesselType</text><text fill="#000000" font-family="sans-serif" font-size="13.75" lengthAdjust="spacing" textLength="41.25" x="1098.75" y="1229.5178">-length</text><text fill="#000000" font-family="sans-serif" font-size="13.75" lengthAdjust="spacing" textLength="38.75" x="1098.75" y="1246.8127">-width</text><text fill="#000000" font-family="sans-serif" font-size="13.75" lengthAdjust="spacing" textLength="33.75" x="1098.75" y="1264.1077">-draft</text><text fill="#000000" font-family="sans-serif" font-size="13.75" lengthAdjust="spacing" textLength="40" x="1098.75" y="1281.4026">-cargo</text><text fill="#000000" font-family="sans-serif" font-size="13.75" lengthAdjust="spacing" textLength="107.5" x="1098.75" y="1298.6975">-transcieverClass</text><line style="stroke:#A80036;stroke-width:1.875;" x1="1092.5" x2="1247.5" y1="1306.7188" y2="1306.7188"/><text fill="#000000" font-family="sans-serif" font-size="13.75" lengthAdjust="spacing" textLength="67.5" x="1098.75" y="1325.9924">+getMMSI()</text><text fill="#000000" font-family="sans-serif" font-size="13.75" lengthAdjust="spacing" textLength="122.5" x="1098.75" y="1343.2874">+getBaseDateTime()</text><text fill="#000000" font-family="sans-serif" font-size="13.75" lengthAdjust="spacing" textLength="57.5" x="1098.75" y="1360.5823">+getLati()</text><text fill="#000000" font-family="sans-serif" font-size="13.75" lengthAdjust="spacing" textLength="66.25" x="1098.75" y="1377.8772">+getLong()</text><text fill="#000000" font-family="sans-serif" font-size="13.75" lengthAdjust="spacing" textLength="65" x="1098.75" y="1395.1721">+getSOG()</text><text fill="#000000" font-family="sans-serif" font-size="13.75" lengthAdjust="spacing" textLength="65" x="1098.75" y="1412.467">+getCOG()</text><text fill="#000000" font-family="sans-serif" font-size="13.75" lengthAdjust="spacing" textLength="85" x="1098.75" y="1429.762">+getHeading()</text><text fill="#000000" font-family="sans-serif" font-size="13.75" lengthAdjust="spacing" textLength="108.75" x="1098.75" y="1447.0569">+getVesselType()</text><text fill="#000000" font-family="sans-serif" font-size="13.75" lengthAdjust="spacing" textLength="77.5" x="1098.75" y="1464.3518">+getLenght()</text><text fill="#000000" font-family="sans-serif" font-size="13.75" lengthAdjust="spacing" textLength="70" x="1098.75" y="1481.6467">+getWidth()</text><text fill="#000000" font-family="sans-serif" font-size="13.75" lengthAdjust="spacing" textLength="66.25" x="1098.75" y="1498.9417">+getDraft()</text><text fill="#000000" font-family="sans-serif" font-size="13.75" lengthAdjust="spacing" textLength="72.5" x="1098.75" y="1516.2366">+getCargo()</text><text fill="#000000" font-family="sans-serif" font-size="13.75" lengthAdjust="spacing" textLength="142.5" x="1098.75" y="1533.5315">+getTranscieverClass()</text><text fill="#000000" font-family="sans-serif" font-size="13.75" lengthAdjust="spacing" textLength="43.75" x="1098.75" y="1550.8264">+Ship()</text><!--MD5=[e3c5af4d2406bb2ed04dd12c7a93c2d3]
link ReadShipController to ShipsTreeController--><path codeLine="104" d="M691.25,233.8375 C691.25,256.0125 691.25,279.8625 691.25,302.3125 " fill="none" id="ReadShipController-to-ShipsTreeController" style="stroke:#A80036;stroke-width:1.25;stroke-dasharray:7.0,7.0;"/><polygon fill="#A80036" points="691.25,308.6125,696.25,297.3625,691.25,302.3625,686.25,297.3625,691.25,308.6125" style="stroke:#A80036;stroke-width:1.25;"/><!--MD5=[bfd008ecbbfa55aa8650adf74670e91b]
link ShipsTreeController to ShipTreeCreate--><path codeLine="105" d="M691.25,490.325 C691.25,517.4 691.25,548.0125 691.25,578.3625 " fill="none" id="ShipsTreeController-to-ShipTreeCreate" style="stroke:#A80036;stroke-width:1.25;stroke-dasharray:7.0,7.0;"/><polygon fill="#A80036" points="691.25,584.8375,696.25,573.5875,691.25,578.5875,686.25,573.5875,691.25,584.8375" style="stroke:#A80036;stroke-width:1.25;"/><!--MD5=[a9f55c91e53e72b604d1fa7d6e56b558]
link ShipTreeCreate to ShipCallSign--><path codeLine="106" d="M567.4875,830.3875 C511.6125,871.725 446.9375,924.525 396.25,980 C337.125,1044.7125 283.825,1129.775 249.0625,1190.675 " fill="none" id="ShipTreeCreate-to-ShipCallSign" style="stroke:#A80036;stroke-width:1.25;stroke-dasharray:7.0,7.0;"/><polygon fill="#A80036" points="245.975,1196.1125,255.8848,1188.8079,249.0662,1190.6805,247.1936,1183.8619,245.975,1196.1125" style="stroke:#A80036;stroke-width:1.25;"/><!--MD5=[f0dc0202858aa4cc8a448bcf7637c981]
link ShipTreeCreate to ShipIMO--><path codeLine="107" d="M651.25,905.3125 C627.525,999.65 598.5,1115.0625 579.6375,1190.0125 " fill="none" id="ShipTreeCreate-to-ShipIMO" style="stroke:#A80036;stroke-width:1.25;stroke-dasharray:7.0,7.0;"/><polygon fill="#A80036" points="578.075,1196.2375,585.6542,1186.5361,579.5908,1190.1741,575.9528,1184.1107,578.075,1196.2375" style="stroke:#A80036;stroke-width:1.25;"/><!--MD5=[783b15a2fcc3d671f4a3416c709e23ea]
link ShipTreeCreate to ShipMMSI--><path codeLine="108" d="M753.725,905.3125 C790.7875,999.65 836.125,1115.0625 865.5625,1190.0125 " fill="none" id="ShipTreeCreate-to-ShipMMSI" style="stroke:#A80036;stroke-width:1.25;stroke-dasharray:7.0,7.0;"/><polygon fill="#A80036" points="868.0125,1196.2375,868.555,1183.9384,865.7283,1190.4199,859.2468,1187.5931,868.0125,1196.2375" style="stroke:#A80036;stroke-width:1.25;"/><!--MD5=[262a6fdfa0356a827e1f020b0722102f]
link ShipTreeCreate to Ship--><path codeLine="109" d="M815.4375,796.6125 C897.6125,835.65 1002.1,897.0875 1068.75,980 C1075.425,988.3 1081.675,997.0625 1087.525,1006.1875 " fill="none" id="ShipTreeCreate-to-Ship" style="stroke:#A80036;stroke-width:1.25;stroke-dasharray:7.0,7.0;"/><polygon fill="#A80036" points="1091.1125,1011.9,1089.3604,999.7142,1087.7872,1006.6081,1080.8933,1005.0348,1091.1125,1011.9" style="stroke:#A80036;stroke-width:1.25;"/><!--MD5=[7f87fbd393b450cb6143363c1c64b0c3]
@startuml
skinparam classAttributeIconSize 0


package Controller{
Class ReadShipController {
+load()
+readShips()
+checkCargo(String)
+checkLat(String)
+checkLon(String)
+checkHeading(String)
+isUseBigFiles()
}
class ShipsTreeController {
+creatShipTree(mMSI, baseDateTime,lAT,lON,sOG,cOG,heading,vesselName,iMO,callSign,vesselType,length,width,draft,cargo,transClass)
+getBSTByShipMMSI()
+getBSTByShipIMO()
+getBSTByCallSign()
+ resetTrees()
+getInstance()
+ShipsTreeController()

}
}


package Domain {

class ShipTreeCreate{
- BST<ShipMMSI>
-BST<ShipIMO>
-BST<ShipCallSign>
-List<Map.Entry<Integer, ShipMMSI>>
-List<Map.Entry<String, ShipIMO>>
-List<Map.Entry<String, ShipCallSign>>
+createShipMMSIMap(Ship)
+createShipIMOMap(Ship)
+createShipCallSignMap(Ship)
+creatShipTree(Ship )
+ShipTreeCreate()
+getTreeMMSI()
+getTreeIMO()
+getTreeCallSign()
+ resetTress()
}

class ShipCallSign{
+ShipCallSign(ship)
+ShipCallSign(List<Map.Entry<String, ShipCallSign>>)
+getMapList()
+compareTo(ShipCallSign )
+toString()
}

class ShipIMO{
+ShipIMO(ship)
+ShipIMO(List<Map.Entry<String, ShipIMO>>)
+getMapList()
+compareTo(ShipIMO )
+toString()
}

class ShipMMSI{
+ShipMMSI(ship)
+ShipMMSI(List<Map.Entry<String, ShipMMSI>>)
+getMapList()
+compareTo(ShipMMSI)
+toString()
}

class Ship {
  - mMSI
  -baseDateTime
  -lati
  -long
  -sog
  -cog
  -heading
  -vesselName
  -iMO
  -callSign
  -vesselType
  -length
  -width
  -draft
  -cargo
  -transcieverClass

  +getMMSI()
  +getBaseDateTime()
  +getLati()
  +getLong()
  +getSOG()
  +getCOG()
  +getHeading()
  +getVesselType()
  +getLenght()
  +getWidth()
  +getDraft()
  +getCargo()
  +getTranscieverClass()
  +Ship()
}
ReadShipController ..> ShipsTreeController
ShipsTreeController ..> ShipTreeCreate
ShipTreeCreate..> ShipCallSign
ShipTreeCreate..> ShipIMO
ShipTreeCreate..> ShipMMSI
ShipTreeCreate..> Ship
@enduml

PlantUML version 1.2021.00(Sun Jan 10 10:25:05 GMT 2021)
(GPL source distribution)
Java Runtime: OpenJDK Runtime Environment
JVM: OpenJDK 64-Bit Server VM
Default Encoding: Cp1252
Language: pt
Country: PT
--></g></svg>