<?xml version="1.0" encoding="UTF-8" standalone="no"?><svg xmlns="http://www.w3.org/2000/svg" xmlns:xlink="http://www.w3.org/1999/xlink" contentScriptType="application/ecmascript" contentStyleType="text/css" height="651.32px" preserveAspectRatio="none" style="width:432px;height:651px;" version="1.1" viewBox="0 0 432 651" width="432.44px" zoomAndPan="magnify"><defs><filter height="300%" id="f11ov7n6due4ct" width="300%" x="-1" y="-1"><feGaussianBlur result="blurOut" stdDeviation="1.52"/><feColorMatrix in="blurOut" result="blurOut2" type="matrix" values="0 0 0 0 0 0 0 0 0 0 0 0 0 0 0 0 0 0 .4 0"/><feOffset dx="3.04" dy="3.04" in="blurOut2" result="blurOut3"/><feBlend in="SourceGraphic" in2="blurOut3" mode="normal"/></filter></defs><g><!--MD5=[1f2cfc53d9d308f53762fd0fcbaa4873]
cluster Controller--><polygon fill="#FFFFFF" filter="url(#f11ov7n6due4ct)" points="117.8,4.56,176.32,4.56,181.64,22.5031,307.8,22.5031,307.8,101.84,117.8,101.84,117.8,4.56" style="stroke:#000000;stroke-width:1.1400000000000001;"/><line style="stroke:#000000;stroke-width:1.1400000000000001;" x1="117.8" x2="181.64" y1="22.5031" y2="22.5031"/><text fill="#000000" font-family="sans-serif" font-size="10.64" font-weight="bold" lengthAdjust="spacing" textLength="53.96" x="120.84" y="17.1252">Controller</text><!--MD5=[121a8bf1197281ab89ed693fab589f94]
cluster Domain--><polygon fill="#FFFFFF" filter="url(#f11ov7n6due4ct)" points="12.16,120.08,56.24,120.08,61.56,138.0231,419.52,138.0231,419.52,646,12.16,646,12.16,120.08" style="stroke:#000000;stroke-width:1.1400000000000001;"/><line style="stroke:#000000;stroke-width:1.1400000000000001;" x1="12.16" x2="61.56" y1="138.0231" y2="138.0231"/><text fill="#000000" font-family="sans-serif" font-size="10.64" font-weight="bold" lengthAdjust="spacing" textLength="39.52" x="15.2" y="132.6452">Domain</text><!--MD5=[670bb0ae9c7d6832df505d2e976e8577]
class ShipResumeController--><rect codeLine="5" fill="#FEFECE" filter="url(#f11ov7n6due4ct)" height="57.5106" id="ShipResumeController" style="stroke:#A80036;stroke-width:1.1400000000000001;" width="165.68" x="129.96" y="31.92"/><ellipse cx="161.538" cy="44.08" fill="#ADD1B2" rx="8.36" ry="8.36" style="stroke:#A80036;stroke-width:0.76;"/><path d="M163.058,41.42 Q163.2124,41.04 163.3905,40.85 Q163.5686,40.66 163.7705,40.66 Q164.1268,40.66 164.3524,40.8738 Q164.578,41.0875 164.578,41.5863 L164.578,42.7738 Q164.578,43.2725 164.3643,43.4863 Q164.1505,43.7 163.818,43.7 Q163.5211,43.7 163.3311,43.5694 Q163.1411,43.4388 163.058,43.0944 Q163.0224,42.8569 162.8918,42.7263 Q162.6543,42.4769 162.2268,42.3344 Q161.7993,42.18 161.3718,42.18 Q160.8374,42.18 160.3861,42.3938 Q159.9468,42.6075 159.6024,43.0825 Q159.258,43.5575 159.258,44.2106 L159.258,44.9113 Q159.258,45.695 159.8993,46.2175 Q160.5405,46.74 161.6805,46.74 Q162.3574,46.74 162.8324,46.5856 Q163.1055,46.5025 163.4143,46.2294 Q163.6161,46.075 163.723,46.0275 Q163.8299,45.98 163.9605,45.98 Q164.2099,45.98 164.388,46.1819 Q164.578,46.3719 164.578,46.645 Q164.578,46.9063 164.3168,47.215 Q163.9368,47.6663 163.3311,47.9156 Q162.5355,48.26 161.5618,48.26 Q160.4218,48.26 159.5074,47.8088 Q158.7711,47.4525 158.2486,46.6806 Q157.738,45.9088 157.738,44.9944 L157.738,44.1631 Q157.738,43.2131 158.1893,42.3819 Q158.6524,41.5506 159.448,41.1113 Q160.2555,40.66 161.158,40.66 Q161.7043,40.66 162.1793,40.85 Q162.6543,41.04 163.058,41.42 Z " fill="#000000"/><text fill="#000000" font-family="sans-serif" font-size="9.12" lengthAdjust="spacing" textLength="96.52" x="176.662" y="47.8117">ShipResumeController</text><line style="stroke:#A80036;stroke-width:1.1400000000000001;" x1="130.72" x2="294.88" y1="56.24" y2="56.24"/><line style="stroke:#A80036;stroke-width:1.1400000000000001;" x1="130.72" x2="294.88" y1="62.32" y2="62.32"/><text fill="#000000" font-family="sans-serif" font-size="8.36" lengthAdjust="spacing" textLength="91.2" x="134.52" y="74.0384">+ShipResumeController()</text><text fill="#000000" font-family="sans-serif" font-size="8.36" lengthAdjust="spacing" textLength="156.56" x="134.52" y="84.5537">+getShipResume(Integer, BST&lt;ShipMMSI&gt;)</text><!--MD5=[1fc0a243ea956c06e91a39f313ddcfa8]
class ShipIMO--><rect codeLine="13" fill="#FEFECE" filter="url(#f11ov7n6due4ct)" height="89.0566" id="ShipIMO" style="stroke:#A80036;stroke-width:1.1400000000000001;" width="172.52" x="24.7" y="544.92"/><ellipse cx="90.25" cy="557.08" fill="#ADD1B2" rx="8.36" ry="8.36" style="stroke:#A80036;stroke-width:0.76;"/><path d="M91.77,554.42 Q91.9244,554.04 92.1025,553.85 Q92.2806,553.66 92.4825,553.66 Q92.8388,553.66 93.0644,553.8738 Q93.29,554.0875 93.29,554.5863 L93.29,555.7738 Q93.29,556.2725 93.0763,556.4863 Q92.8625,556.7 92.53,556.7 Q92.2331,556.7 92.0431,556.5694 Q91.8531,556.4388 91.77,556.0944 Q91.7344,555.8569 91.6038,555.7263 Q91.3663,555.4769 90.9388,555.3344 Q90.5113,555.18 90.0838,555.18 Q89.5494,555.18 89.0981,555.3938 Q88.6588,555.6075 88.3144,556.0825 Q87.97,556.5575 87.97,557.2106 L87.97,557.9113 Q87.97,558.695 88.6113,559.2175 Q89.2525,559.74 90.3925,559.74 Q91.0694,559.74 91.5444,559.5856 Q91.8175,559.5025 92.1263,559.2294 Q92.3281,559.075 92.435,559.0275 Q92.5419,558.98 92.6725,558.98 Q92.9219,558.98 93.1,559.1819 Q93.29,559.3719 93.29,559.645 Q93.29,559.9063 93.0288,560.215 Q92.6488,560.6663 92.0431,560.9156 Q91.2475,561.26 90.2738,561.26 Q89.1338,561.26 88.2194,560.8088 Q87.4831,560.4525 86.9606,559.6806 Q86.45,558.9088 86.45,557.9944 L86.45,557.1631 Q86.45,556.2131 86.9013,555.3819 Q87.3644,554.5506 88.16,554.1113 Q88.9675,553.66 89.87,553.66 Q90.4163,553.66 90.8913,553.85 Q91.3663,554.04 91.77,554.42 Z " fill="#000000"/><text fill="#000000" font-family="sans-serif" font-size="9.12" lengthAdjust="spacing" textLength="34.96" x="105.83" y="560.8117">ShipIMO</text><line style="stroke:#A80036;stroke-width:1.1400000000000001;" x1="25.46" x2="196.46" y1="569.24" y2="569.24"/><line style="stroke:#A80036;stroke-width:1.1400000000000001;" x1="25.46" x2="196.46" y1="575.32" y2="575.32"/><text fill="#000000" font-family="sans-serif" font-size="8.36" lengthAdjust="spacing" textLength="55.48" x="29.26" y="587.0384">+ShipIMO(ship)</text><text fill="#000000" font-family="sans-serif" font-size="8.36" lengthAdjust="spacing" textLength="163.4" x="29.26" y="597.5537">+ShipIMO(List&lt;Map.Entry&lt;String, ShipIMO&gt;&gt;)</text><text fill="#000000" font-family="sans-serif" font-size="8.36" lengthAdjust="spacing" textLength="50.16" x="29.26" y="608.069">+getMapList()</text><text fill="#000000" font-family="sans-serif" font-size="8.36" lengthAdjust="spacing" textLength="83.6" x="29.26" y="618.5843">+compareTo(ShipIMO )</text><text fill="#000000" font-family="sans-serif" font-size="8.36" lengthAdjust="spacing" textLength="38.76" x="29.26" y="629.0996">+toString()</text><!--MD5=[10842816a521f091e096081c0b3409a1]
class ShipMMSI--><rect codeLine="21" fill="#FEFECE" filter="url(#f11ov7n6due4ct)" height="89.0566" id="ShipMMSI" style="stroke:#A80036;stroke-width:1.1400000000000001;" width="183.16" x="223.82" y="544.92"/><ellipse cx="291.65" cy="557.08" fill="#ADD1B2" rx="8.36" ry="8.36" style="stroke:#A80036;stroke-width:0.76;"/><path d="M293.17,554.42 Q293.3244,554.04 293.5025,553.85 Q293.6806,553.66 293.8825,553.66 Q294.2388,553.66 294.4644,553.8738 Q294.69,554.0875 294.69,554.5863 L294.69,555.7738 Q294.69,556.2725 294.4763,556.4863 Q294.2625,556.7 293.93,556.7 Q293.6331,556.7 293.4431,556.5694 Q293.2531,556.4388 293.17,556.0944 Q293.1344,555.8569 293.0038,555.7263 Q292.7663,555.4769 292.3388,555.3344 Q291.9113,555.18 291.4838,555.18 Q290.9494,555.18 290.4981,555.3938 Q290.0588,555.6075 289.7144,556.0825 Q289.37,556.5575 289.37,557.2106 L289.37,557.9113 Q289.37,558.695 290.0113,559.2175 Q290.6525,559.74 291.7925,559.74 Q292.4694,559.74 292.9444,559.5856 Q293.2175,559.5025 293.5263,559.2294 Q293.7281,559.075 293.835,559.0275 Q293.9419,558.98 294.0725,558.98 Q294.3219,558.98 294.5,559.1819 Q294.69,559.3719 294.69,559.645 Q294.69,559.9063 294.4288,560.215 Q294.0488,560.6663 293.4431,560.9156 Q292.6475,561.26 291.6738,561.26 Q290.5338,561.26 289.6194,560.8088 Q288.8831,560.4525 288.3606,559.6806 Q287.85,558.9088 287.85,557.9944 L287.85,557.1631 Q287.85,556.2131 288.3013,555.3819 Q288.7644,554.5506 289.56,554.1113 Q290.3675,553.66 291.27,553.66 Q291.8163,553.66 292.2913,553.85 Q292.7663,554.04 293.17,554.42 Z " fill="#000000"/><text fill="#000000" font-family="sans-serif" font-size="9.12" lengthAdjust="spacing" textLength="41.04" x="307.23" y="560.8117">ShipMMSI</text><line style="stroke:#A80036;stroke-width:1.1400000000000001;" x1="224.58" x2="406.22" y1="569.24" y2="569.24"/><line style="stroke:#A80036;stroke-width:1.1400000000000001;" x1="224.58" x2="406.22" y1="575.32" y2="575.32"/><text fill="#000000" font-family="sans-serif" font-size="8.36" lengthAdjust="spacing" textLength="60.8" x="228.38" y="587.0384">+ShipMMSI(ship)</text><text fill="#000000" font-family="sans-serif" font-size="8.36" lengthAdjust="spacing" textLength="174.04" x="228.38" y="597.5537">+ShipMMSI(List&lt;Map.Entry&lt;String, ShipMMSI&gt;&gt;)</text><text fill="#000000" font-family="sans-serif" font-size="8.36" lengthAdjust="spacing" textLength="50.16" x="228.38" y="608.069">+getMapList()</text><text fill="#000000" font-family="sans-serif" font-size="8.36" lengthAdjust="spacing" textLength="86.64" x="228.38" y="618.5843">+compareTo(ShipMMSI)</text><text fill="#000000" font-family="sans-serif" font-size="8.36" lengthAdjust="spacing" textLength="38.76" x="228.38" y="629.0996">+toString()</text><!--MD5=[0dc7f2ddb409b58bcf52b12238c25399]
class Ship--><rect codeLine="29" fill="#FEFECE" filter="url(#f11ov7n6due4ct)" height="351.9394" id="Ship" style="stroke:#A80036;stroke-width:1.1400000000000001;" width="95.76" x="164.92" y="147.44"/><ellipse cx="200.07" cy="159.6" fill="#ADD1B2" rx="8.36" ry="8.36" style="stroke:#A80036;stroke-width:0.76;"/><path d="M201.59,156.94 Q201.7444,156.56 201.9225,156.37 Q202.1006,156.18 202.3025,156.18 Q202.6588,156.18 202.8844,156.3938 Q203.11,156.6075 203.11,157.1063 L203.11,158.2938 Q203.11,158.7925 202.8963,159.0063 Q202.6825,159.22 202.35,159.22 Q202.0531,159.22 201.8631,159.0894 Q201.6731,158.9588 201.59,158.6144 Q201.5544,158.3769 201.4238,158.2463 Q201.1863,157.9969 200.7588,157.8544 Q200.3313,157.7 199.9038,157.7 Q199.3694,157.7 198.9181,157.9138 Q198.4788,158.1275 198.1344,158.6025 Q197.79,159.0775 197.79,159.7306 L197.79,160.4313 Q197.79,161.215 198.4313,161.7375 Q199.0725,162.26 200.2125,162.26 Q200.8894,162.26 201.3644,162.1056 Q201.6375,162.0225 201.9463,161.7494 Q202.1481,161.595 202.255,161.5475 Q202.3619,161.5 202.4925,161.5 Q202.7419,161.5 202.92,161.7019 Q203.11,161.8919 203.11,162.165 Q203.11,162.4263 202.8488,162.735 Q202.4688,163.1863 201.8631,163.4356 Q201.0675,163.78 200.0938,163.78 Q198.9538,163.78 198.0394,163.3288 Q197.3031,162.9725 196.7806,162.2006 Q196.27,161.4288 196.27,160.5144 L196.27,159.6831 Q196.27,158.7331 196.7213,157.9019 Q197.1844,157.0706 197.98,156.6313 Q198.7875,156.18 199.69,156.18 Q200.2363,156.18 200.7113,156.37 Q201.1863,156.56 201.59,156.94 Z " fill="#000000"/><text fill="#000000" font-family="sans-serif" font-size="9.12" lengthAdjust="spacing" textLength="19" x="215.65" y="163.3317">Ship</text><line style="stroke:#A80036;stroke-width:1.1400000000000001;" x1="165.68" x2="259.92" y1="171.76" y2="171.76"/><text fill="#000000" font-family="sans-serif" font-size="8.36" lengthAdjust="spacing" textLength="22.04" x="169.48" y="183.4784">-mMSI</text><text fill="#000000" font-family="sans-serif" font-size="8.36" lengthAdjust="spacing" textLength="54.72" x="169.48" y="193.9937">-baseDateTime</text><text fill="#000000" font-family="sans-serif" font-size="8.36" lengthAdjust="spacing" textLength="12.92" x="169.48" y="204.509">-lati</text><text fill="#000000" font-family="sans-serif" font-size="8.36" lengthAdjust="spacing" textLength="18.24" x="169.48" y="215.0243">-long</text><text fill="#000000" font-family="sans-serif" font-size="8.36" lengthAdjust="spacing" textLength="16.72" x="169.48" y="225.5396">-sog</text><text fill="#000000" font-family="sans-serif" font-size="8.36" lengthAdjust="spacing" textLength="16.72" x="169.48" y="236.055">-cog</text><text fill="#000000" font-family="sans-serif" font-size="8.36" lengthAdjust="spacing" textLength="31.92" x="169.48" y="246.5703">-heading</text><text fill="#000000" font-family="sans-serif" font-size="8.36" lengthAdjust="spacing" textLength="47.88" x="169.48" y="257.0856">-vesselName</text><text fill="#000000" font-family="sans-serif" font-size="8.36" lengthAdjust="spacing" textLength="16.72" x="169.48" y="267.6009">-iMO</text><text fill="#000000" font-family="sans-serif" font-size="8.36" lengthAdjust="spacing" textLength="31.16" x="169.48" y="278.1162">-callSign</text><text fill="#000000" font-family="sans-serif" font-size="8.36" lengthAdjust="spacing" textLength="45.6" x="169.48" y="288.6315">-vesselType</text><text fill="#000000" font-family="sans-serif" font-size="8.36" lengthAdjust="spacing" textLength="25.08" x="169.48" y="299.1468">-length</text><text fill="#000000" font-family="sans-serif" font-size="8.36" lengthAdjust="spacing" textLength="23.56" x="169.48" y="309.6621">-width</text><text fill="#000000" font-family="sans-serif" font-size="8.36" lengthAdjust="spacing" textLength="20.52" x="169.48" y="320.1775">-draft</text><text fill="#000000" font-family="sans-serif" font-size="8.36" lengthAdjust="spacing" textLength="24.32" x="169.48" y="330.6928">-cargo</text><text fill="#000000" font-family="sans-serif" font-size="8.36" lengthAdjust="spacing" textLength="65.36" x="169.48" y="341.2081">-transcieverClass</text><line style="stroke:#A80036;stroke-width:1.1400000000000001;" x1="165.68" x2="259.92" y1="346.085" y2="346.085"/><text fill="#000000" font-family="sans-serif" font-size="8.36" lengthAdjust="spacing" textLength="41.04" x="169.48" y="357.8034">+getMMSI()</text><text fill="#000000" font-family="sans-serif" font-size="8.36" lengthAdjust="spacing" textLength="74.48" x="169.48" y="368.3187">+getBaseDateTime()</text><text fill="#000000" font-family="sans-serif" font-size="8.36" lengthAdjust="spacing" textLength="34.96" x="169.48" y="378.834">+getLati()</text><text fill="#000000" font-family="sans-serif" font-size="8.36" lengthAdjust="spacing" textLength="40.28" x="169.48" y="389.3493">+getLong()</text><text fill="#000000" font-family="sans-serif" font-size="8.36" lengthAdjust="spacing" textLength="39.52" x="169.48" y="399.8646">+getSOG()</text><text fill="#000000" font-family="sans-serif" font-size="8.36" lengthAdjust="spacing" textLength="39.52" x="169.48" y="410.38">+getCOG()</text><text fill="#000000" font-family="sans-serif" font-size="8.36" lengthAdjust="spacing" textLength="51.68" x="169.48" y="420.8953">+getHeading()</text><text fill="#000000" font-family="sans-serif" font-size="8.36" lengthAdjust="spacing" textLength="66.12" x="169.48" y="431.4106">+getVesselType()</text><text fill="#000000" font-family="sans-serif" font-size="8.36" lengthAdjust="spacing" textLength="47.12" x="169.48" y="441.9259">+getLenght()</text><text fill="#000000" font-family="sans-serif" font-size="8.36" lengthAdjust="spacing" textLength="42.56" x="169.48" y="452.4412">+getWidth()</text><text fill="#000000" font-family="sans-serif" font-size="8.36" lengthAdjust="spacing" textLength="40.28" x="169.48" y="462.9565">+getDraft()</text><text fill="#000000" font-family="sans-serif" font-size="8.36" lengthAdjust="spacing" textLength="44.08" x="169.48" y="473.4718">+getCargo()</text><text fill="#000000" font-family="sans-serif" font-size="8.36" lengthAdjust="spacing" textLength="86.64" x="169.48" y="483.9871">+getTranscieverClass()</text><text fill="#000000" font-family="sans-serif" font-size="8.36" lengthAdjust="spacing" textLength="26.6" x="169.48" y="494.5025">+Ship()</text><!--MD5=[c4e381aa49e62fb4189c2f8cbf60367d]
link ShipResumeController to Ship--><path codeLine="63" d="M212.8,89.7484 C212.8,104.082 212.8,122.8312 212.8,143.4728 " fill="none" id="ShipResumeController-to-Ship" style="stroke:#A80036;stroke-width:0.76;stroke-dasharray:7.0,7.0;"/><polygon fill="#A80036" points="212.8,147.3488,215.84,140.5088,212.8,143.5488,209.76,140.5088,212.8,147.3488" style="stroke:#A80036;stroke-width:0.76;"/><!--MD5=[7d9d2bdbec688ed60bf1f82b5d03bd58]
link Ship to ShipIMO--><path codeLine="64" d="M164.8592,448.6356 C152.228,481.4524 139.3384,514.9152 129.3444,540.8844 " fill="none" id="Ship-to-ShipIMO" style="stroke:#A80036;stroke-width:0.76;stroke-dasharray:7.0,7.0;"/><polygon fill="#A80036" points="127.8852,544.6616,133.1867,539.3775,129.2551,541.1171,127.5155,537.1856,127.8852,544.6616" style="stroke:#A80036;stroke-width:0.76;"/><!--MD5=[eb84e9f881b4c236abc7de8c35f3a3df]
link Ship to ShipMMSI--><path codeLine="65" d="M260.718,447.6704 C273.6076,480.8824 286.7784,514.8392 296.9624,541.0972 " fill="none" id="Ship-to-ShipMMSI" style="stroke:#A80036;stroke-width:0.76;stroke-dasharray:7.0,7.0;"/><polygon fill="#A80036" points="298.4444,544.9124,298.7941,537.4354,297.065,541.3716,293.1289,539.6425,298.4444,544.9124" style="stroke:#A80036;stroke-width:0.76;"/><!--MD5=[d71821eff581d4dd7ca337025bb5588e]
@startuml
skinparam classAttributeIconSize 0


package Controller{
Class ShipResumeController {
+ShipResumeController()
+getShipResume(Integer, BST<ShipMMSI>)
}
}

package Domain {

class ShipIMO{
+ShipIMO(ship)
+ShipIMO(List<Map.Entry<String, ShipIMO>>)
+getMapList()
+compareTo(ShipIMO )
+toString()
}

class ShipMMSI{
+ShipMMSI(ship)
+ShipMMSI(List<Map.Entry<String, ShipMMSI>>)
+getMapList()
+compareTo(ShipMMSI)
+toString()
}

class Ship {
  - mMSI
  -baseDateTime
  -lati
  -long
  -sog
  -cog
  -heading
  -vesselName
  -iMO
  -callSign
  -vesselType
  -length
  -width
  -draft
  -cargo
  -transcieverClass

  +getMMSI()
  +getBaseDateTime()
  +getLati()
  +getLong()
  +getSOG()
  +getCOG()
  +getHeading()
  +getVesselType()
  +getLenght()
  +getWidth()
  +getDraft()
  +getCargo()
  +getTranscieverClass()
  +Ship()
}

ShipResumeController..>Ship
Ship..> ShipIMO
Ship..> ShipMMSI

@enduml

PlantUML version 1.2021.00(Sun Jan 10 10:25:05 GMT 2021)
(GPL source distribution)
Java Runtime: OpenJDK Runtime Environment
JVM: OpenJDK 64-Bit Server VM
Default Encoding: Cp1252
Language: pt
Country: PT
--></g></svg>