<?xml version="1.0" encoding="UTF-8" standalone="no"?><svg xmlns="http://www.w3.org/2000/svg" xmlns:xlink="http://www.w3.org/1999/xlink" contentScriptType="application/ecmascript" contentStyleType="text/css" height="457.98px" preserveAspectRatio="none" style="width:622px;height:457px;" version="1.1" viewBox="0 0 622 457" width="622.2px" zoomAndPan="magnify"><defs><filter height="300%" id="f1kwfst6311oes" width="300%" x="-1" y="-1"><feGaussianBlur result="blurOut" stdDeviation="1.02"/><feColorMatrix in="blurOut" result="blurOut2" type="matrix" values="0 0 0 0 0 0 0 0 0 0 0 0 0 0 0 0 0 0 .4 0"/><feOffset dx="2.04" dy="2.04" in="blurOut2" result="blurOut3"/><feBlend in="SourceGraphic" in2="blurOut3" mode="normal"/></filter></defs><g><!--MD5=[1f2cfc53d9d308f53762fd0fcbaa4873]
cluster Controller--><polygon fill="#FFFFFF" filter="url(#f1kwfst6311oes)" points="289.68,3.06,328.95,3.06,332.52,15.1008,441.66,15.1008,441.66,82.11,289.68,82.11,289.68,3.06" style="stroke:#000000;stroke-width:0.765;"/><line style="stroke:#000000;stroke-width:0.765;" x1="289.68" x2="332.52" y1="15.1008" y2="15.1008"/><text fill="#000000" font-family="sans-serif" font-size="7.14" font-weight="bold" lengthAdjust="spacing" textLength="36.21" x="291.72" y="11.4919">Controller</text><!--MD5=[121a8bf1197281ab89ed693fab589f94]
cluster Domain--><polygon fill="#FFFFFF" filter="url(#f1kwfst6311oes)" points="8.16,94.35,37.74,94.35,41.31,106.3908,517.65,106.3908,517.65,454.41,8.16,454.41,8.16,94.35" style="stroke:#000000;stroke-width:0.765;"/><line style="stroke:#000000;stroke-width:0.765;" x1="8.16" x2="41.31" y1="106.3908" y2="106.3908"/><text fill="#000000" font-family="sans-serif" font-size="7.14" font-weight="bold" lengthAdjust="spacing" textLength="26.52" x="10.2" y="102.7819">Domain</text><!--MD5=[7e40339c58605559321960399585b560]
cluster Utils--><polygon fill="#FFFFFF" filter="url(#f1kwfst6311oes)" points="529.89,294.015,548.76,294.015,552.33,306.0558,613.53,306.0558,613.53,352.155,529.89,352.155,529.89,294.015" style="stroke:#000000;stroke-width:0.765;"/><line style="stroke:#000000;stroke-width:0.765;" x1="529.89" x2="552.33" y1="306.0558" y2="306.0558"/><text fill="#000000" font-family="sans-serif" font-size="7.14" font-weight="bold" lengthAdjust="spacing" textLength="15.81" x="531.93" y="302.4469">Utils</text><!--MD5=[7cc2e289dc396f18cad34ffd5338fbc3]
class ShipDetailsController--><rect codeLine="5" fill="#FEFECE" filter="url(#f1kwfst6311oes)" height="52.7053" id="ShipDetailsController" style="stroke:#A80036;stroke-width:0.765;" width="135.66" x="297.84" y="21.42"/><ellipse cx="333.4125" cy="29.58" fill="#ADD1B2" rx="5.61" ry="5.61" style="stroke:#A80036;stroke-width:0.51;"/><path d="M334.4325,27.795 Q334.5361,27.54 334.6556,27.4125 Q334.7752,27.285 334.9106,27.285 Q335.1497,27.285 335.3011,27.4284 Q335.4525,27.5719 335.4525,27.9066 L335.4525,28.7034 Q335.4525,29.0381 335.3091,29.1816 Q335.1656,29.325 334.9425,29.325 Q334.7433,29.325 334.6158,29.2373 Q334.4883,29.1497 334.4325,28.9186 Q334.4086,28.7592 334.3209,28.6716 Q334.1616,28.5042 333.8747,28.4086 Q333.5878,28.305 333.3009,28.305 Q332.9423,28.305 332.6395,28.4484 Q332.3447,28.5919 332.1136,28.9106 Q331.8825,29.2294 331.8825,29.6677 L331.8825,30.1378 Q331.8825,30.6638 332.3128,31.0144 Q332.7431,31.365 333.5081,31.365 Q333.9623,31.365 334.2811,31.2614 Q334.4644,31.2056 334.6716,31.0223 Q334.807,30.9188 334.8788,30.8869 Q334.9505,30.855 335.0381,30.855 Q335.2055,30.855 335.325,30.9905 Q335.4525,31.118 335.4525,31.3013 Q335.4525,31.4766 335.2772,31.6838 Q335.0222,31.9866 334.6158,32.1539 Q334.0819,32.385 333.4284,32.385 Q332.6634,32.385 332.0498,32.0822 Q331.5558,31.8431 331.2052,31.3252 Q330.8625,30.8072 330.8625,30.1936 L330.8625,29.6358 Q330.8625,28.9983 331.1653,28.4405 Q331.4761,27.8827 332.01,27.5878 Q332.5519,27.285 333.1575,27.285 Q333.5241,27.285 333.8428,27.4125 Q334.1616,27.54 334.4325,27.795 Z " fill="#000000"/><text fill="#000000" font-family="sans-serif" font-size="6.12" lengthAdjust="spacing" textLength="60.18" x="343.8675" y="32.0842">ShipDetailsController</text><line style="stroke:#A80036;stroke-width:0.765;" x1="298.35" x2="432.99" y1="37.74" y2="37.74"/><line style="stroke:#A80036;stroke-width:0.765;" x1="298.35" x2="432.99" y1="41.82" y2="41.82"/><text fill="#000000" font-family="sans-serif" font-size="5.61" lengthAdjust="spacing" textLength="57.63" x="300.9" y="49.6837">+ShipDetailsController()</text><text fill="#000000" font-family="sans-serif" font-size="5.61" lengthAdjust="spacing" textLength="111.69" x="300.9" y="56.74">+getShipDetailsMMSI(mMSI, BST&lt;ShipMMSI&gt; )</text><text fill="#000000" font-family="sans-serif" font-size="5.61" lengthAdjust="spacing" textLength="99.45" x="300.9" y="63.7963">+getShipDetailsIMO(iMO, BST&lt;ShipIMO&gt;)</text><text fill="#000000" font-family="sans-serif" font-size="5.61" lengthAdjust="spacing" textLength="129.54" x="300.9" y="70.8526">+getShipDetailsCallSign(callSign, BST&lt;ShipCallSign&gt;)</text><!--MD5=[c0675f9529c5fb4670e8b6d6da79f295]
class ShipDetails--><rect codeLine="16" fill="#FEFECE" filter="url(#f1kwfst6311oes)" height="66.818" id="ShipDetails" style="stroke:#A80036;stroke-width:0.765;" width="135.66" x="297.84" y="112.71"/><ellipse cx="347.1825" cy="120.87" fill="#ADD1B2" rx="5.61" ry="5.61" style="stroke:#A80036;stroke-width:0.51;"/><path d="M348.2025,119.085 Q348.3061,118.83 348.4256,118.7025 Q348.5452,118.575 348.6806,118.575 Q348.9197,118.575 349.0711,118.7184 Q349.2225,118.8619 349.2225,119.1966 L349.2225,119.9934 Q349.2225,120.3281 349.0791,120.4716 Q348.9356,120.615 348.7125,120.615 Q348.5133,120.615 348.3858,120.5273 Q348.2583,120.4397 348.2025,120.2086 Q348.1786,120.0492 348.0909,119.9616 Q347.9316,119.7942 347.6447,119.6986 Q347.3578,119.595 347.0709,119.595 Q346.7123,119.595 346.4095,119.7384 Q346.1147,119.8819 345.8836,120.2006 Q345.6525,120.5194 345.6525,120.9577 L345.6525,121.4278 Q345.6525,121.9538 346.0828,122.3044 Q346.5131,122.655 347.2781,122.655 Q347.7323,122.655 348.0511,122.5514 Q348.2344,122.4956 348.4416,122.3123 Q348.577,122.2088 348.6488,122.1769 Q348.7205,122.145 348.8081,122.145 Q348.9755,122.145 349.095,122.2805 Q349.2225,122.408 349.2225,122.5913 Q349.2225,122.7666 349.0472,122.9738 Q348.7922,123.2766 348.3858,123.4439 Q347.8519,123.675 347.1984,123.675 Q346.4334,123.675 345.8198,123.3722 Q345.3258,123.1331 344.9752,122.6152 Q344.6325,122.0972 344.6325,121.4836 L344.6325,120.9258 Q344.6325,120.2883 344.9353,119.7305 Q345.2461,119.1727 345.78,118.8778 Q346.3219,118.575 346.9275,118.575 Q347.2941,118.575 347.6128,118.7025 Q347.9316,118.83 348.2025,119.085 Z " fill="#000000"/><text fill="#000000" font-family="sans-serif" font-size="6.12" lengthAdjust="spacing" textLength="32.64" x="357.6375" y="123.3742">ShipDetails</text><line style="stroke:#A80036;stroke-width:0.765;" x1="298.35" x2="432.99" y1="129.03" y2="129.03"/><line style="stroke:#A80036;stroke-width:0.765;" x1="298.35" x2="432.99" y1="133.11" y2="133.11"/><text fill="#000000" font-family="sans-serif" font-size="5.61" lengthAdjust="spacing" textLength="110.16" x="300.9" y="140.9737">+getShipDetailsMMSI(mMSI, BST&lt;ShipMMSI&gt;)</text><text fill="#000000" font-family="sans-serif" font-size="5.61" lengthAdjust="spacing" textLength="99.45" x="300.9" y="148.03">+getShipDetailsIMO(iMO, BST&lt;ShipIMO&gt;)</text><text fill="#000000" font-family="sans-serif" font-size="5.61" lengthAdjust="spacing" textLength="129.54" x="300.9" y="155.0863">+getShipDetailsCallSign(callSign, BST&lt;ShipCallSign&gt;)</text><text fill="#000000" font-family="sans-serif" font-size="5.61" lengthAdjust="spacing" textLength="60.18" x="300.9" y="162.1426">+checkCallSign(callSign)</text><text fill="#000000" font-family="sans-serif" font-size="5.61" lengthAdjust="spacing" textLength="47.43" x="300.9" y="169.199">+checkMMSI(mMSI)</text><text fill="#000000" font-family="sans-serif" font-size="5.61" lengthAdjust="spacing" textLength="40.29" x="300.9" y="176.2553">+checkIMO(iMO)</text><!--MD5=[0b518a767dd1028241969b5a153606c0]
class ShipCallSign--><rect codeLine="26" fill="#FEFECE" filter="url(#f1kwfst6311oes)" height="59.7616" id="ShipCallSign" style="stroke:#A80036;stroke-width:0.765;" width="136.17" x="16.575" y="298.35"/><ellipse cx="64.1325" cy="306.51" fill="#ADD1B2" rx="5.61" ry="5.61" style="stroke:#A80036;stroke-width:0.51;"/><path d="M65.1525,304.725 Q65.2561,304.47 65.3756,304.3425 Q65.4952,304.215 65.6306,304.215 Q65.8697,304.215 66.0211,304.3584 Q66.1725,304.5019 66.1725,304.8366 L66.1725,305.6334 Q66.1725,305.9681 66.0291,306.1116 Q65.8856,306.255 65.6625,306.255 Q65.4633,306.255 65.3358,306.1673 Q65.2083,306.0797 65.1525,305.8486 Q65.1286,305.6892 65.0409,305.6016 Q64.8816,305.4342 64.5947,305.3386 Q64.3078,305.235 64.0209,305.235 Q63.6623,305.235 63.3595,305.3784 Q63.0647,305.5219 62.8336,305.8406 Q62.6025,306.1594 62.6025,306.5977 L62.6025,307.0678 Q62.6025,307.5938 63.0328,307.9444 Q63.4631,308.295 64.2281,308.295 Q64.6823,308.295 65.0011,308.1914 Q65.1844,308.1356 65.3916,307.9523 Q65.527,307.8488 65.5988,307.8169 Q65.6705,307.785 65.7581,307.785 Q65.9255,307.785 66.045,307.9205 Q66.1725,308.048 66.1725,308.2313 Q66.1725,308.4066 65.9972,308.6138 Q65.7422,308.9166 65.3358,309.0839 Q64.8019,309.315 64.1484,309.315 Q63.3834,309.315 62.7698,309.0122 Q62.2758,308.7731 61.9252,308.2552 Q61.5825,307.7372 61.5825,307.1236 L61.5825,306.5658 Q61.5825,305.9283 61.8853,305.3705 Q62.1961,304.8127 62.73,304.5178 Q63.2719,304.215 63.8775,304.215 Q64.2441,304.215 64.5628,304.3425 Q64.8816,304.47 65.1525,304.725 Z " fill="#000000"/><text fill="#000000" font-family="sans-serif" font-size="6.12" lengthAdjust="spacing" textLength="36.72" x="74.5875" y="309.0142">ShipCallSign</text><line style="stroke:#A80036;stroke-width:0.765;" x1="17.085" x2="152.235" y1="314.67" y2="314.67"/><line style="stroke:#A80036;stroke-width:0.765;" x1="17.085" x2="152.235" y1="318.75" y2="318.75"/><text fill="#000000" font-family="sans-serif" font-size="5.61" lengthAdjust="spacing" textLength="47.43" x="19.635" y="326.6137">+ShipCallSign(ship)</text><text fill="#000000" font-family="sans-serif" font-size="5.61" lengthAdjust="spacing" textLength="130.05" x="19.635" y="333.67">+ShipCallSign(List&lt;Map.Entry&lt;String, ShipCallSign&gt;&gt;)</text><text fill="#000000" font-family="sans-serif" font-size="5.61" lengthAdjust="spacing" textLength="33.66" x="19.635" y="340.7263">+getMapList()</text><text fill="#000000" font-family="sans-serif" font-size="5.61" lengthAdjust="spacing" textLength="66.3" x="19.635" y="347.7826">+compareTo(ShipCallSign )</text><text fill="#000000" font-family="sans-serif" font-size="5.61" lengthAdjust="spacing" textLength="26.01" x="19.635" y="354.839">+toString()</text><!--MD5=[1fc0a243ea956c06e91a39f313ddcfa8]
class ShipIMO--><rect codeLine="34" fill="#FEFECE" filter="url(#f1kwfst6311oes)" height="59.7616" id="ShipIMO" style="stroke:#A80036;stroke-width:0.765;" width="115.77" x="170.595" y="298.35"/><ellipse cx="214.5825" cy="306.51" fill="#ADD1B2" rx="5.61" ry="5.61" style="stroke:#A80036;stroke-width:0.51;"/><path d="M215.6025,304.725 Q215.7061,304.47 215.8256,304.3425 Q215.9452,304.215 216.0806,304.215 Q216.3197,304.215 216.4711,304.3584 Q216.6225,304.5019 216.6225,304.8366 L216.6225,305.6334 Q216.6225,305.9681 216.4791,306.1116 Q216.3356,306.255 216.1125,306.255 Q215.9133,306.255 215.7858,306.1673 Q215.6583,306.0797 215.6025,305.8486 Q215.5786,305.6892 215.4909,305.6016 Q215.3316,305.4342 215.0447,305.3386 Q214.7578,305.235 214.4709,305.235 Q214.1123,305.235 213.8095,305.3784 Q213.5147,305.5219 213.2836,305.8406 Q213.0525,306.1594 213.0525,306.5977 L213.0525,307.0678 Q213.0525,307.5938 213.4828,307.9444 Q213.9131,308.295 214.6781,308.295 Q215.1323,308.295 215.4511,308.1914 Q215.6344,308.1356 215.8416,307.9523 Q215.977,307.8488 216.0488,307.8169 Q216.1205,307.785 216.2081,307.785 Q216.3755,307.785 216.495,307.9205 Q216.6225,308.048 216.6225,308.2313 Q216.6225,308.4066 216.4472,308.6138 Q216.1922,308.9166 215.7858,309.0839 Q215.2519,309.315 214.5984,309.315 Q213.8334,309.315 213.2198,309.0122 Q212.7258,308.7731 212.3752,308.2552 Q212.0325,307.7372 212.0325,307.1236 L212.0325,306.5658 Q212.0325,305.9283 212.3353,305.3705 Q212.6461,304.8127 213.18,304.5178 Q213.7219,304.215 214.3275,304.215 Q214.6941,304.215 215.0128,304.3425 Q215.3316,304.47 215.6025,304.725 Z " fill="#000000"/><text fill="#000000" font-family="sans-serif" font-size="6.12" lengthAdjust="spacing" textLength="23.46" x="225.0375" y="309.0142">ShipIMO</text><line style="stroke:#A80036;stroke-width:0.765;" x1="171.105" x2="285.855" y1="314.67" y2="314.67"/><line style="stroke:#A80036;stroke-width:0.765;" x1="171.105" x2="285.855" y1="318.75" y2="318.75"/><text fill="#000000" font-family="sans-serif" font-size="5.61" lengthAdjust="spacing" textLength="37.23" x="173.655" y="326.6137">+ShipIMO(ship)</text><text fill="#000000" font-family="sans-serif" font-size="5.61" lengthAdjust="spacing" textLength="109.65" x="173.655" y="333.67">+ShipIMO(List&lt;Map.Entry&lt;String, ShipIMO&gt;&gt;)</text><text fill="#000000" font-family="sans-serif" font-size="5.61" lengthAdjust="spacing" textLength="33.66" x="173.655" y="340.7263">+getMapList()</text><text fill="#000000" font-family="sans-serif" font-size="5.61" lengthAdjust="spacing" textLength="56.1" x="173.655" y="347.7826">+compareTo(ShipIMO )</text><text fill="#000000" font-family="sans-serif" font-size="5.61" lengthAdjust="spacing" textLength="26.01" x="173.655" y="354.839">+toString()</text><!--MD5=[10842816a521f091e096081c0b3409a1]
class ShipMMSI--><rect codeLine="42" fill="#FEFECE" filter="url(#f1kwfst6311oes)" height="59.7616" id="ShipMMSI" style="stroke:#A80036;stroke-width:0.765;" width="122.91" x="304.215" y="298.35"/><ellipse cx="349.7325" cy="306.51" fill="#ADD1B2" rx="5.61" ry="5.61" style="stroke:#A80036;stroke-width:0.51;"/><path d="M350.7525,304.725 Q350.8561,304.47 350.9756,304.3425 Q351.0952,304.215 351.2306,304.215 Q351.4697,304.215 351.6211,304.3584 Q351.7725,304.5019 351.7725,304.8366 L351.7725,305.6334 Q351.7725,305.9681 351.6291,306.1116 Q351.4856,306.255 351.2625,306.255 Q351.0633,306.255 350.9358,306.1673 Q350.8083,306.0797 350.7525,305.8486 Q350.7286,305.6892 350.6409,305.6016 Q350.4816,305.4342 350.1947,305.3386 Q349.9078,305.235 349.6209,305.235 Q349.2623,305.235 348.9595,305.3784 Q348.6647,305.5219 348.4336,305.8406 Q348.2025,306.1594 348.2025,306.5977 L348.2025,307.0678 Q348.2025,307.5938 348.6328,307.9444 Q349.0631,308.295 349.8281,308.295 Q350.2823,308.295 350.6011,308.1914 Q350.7844,308.1356 350.9916,307.9523 Q351.127,307.8488 351.1988,307.8169 Q351.2705,307.785 351.3581,307.785 Q351.5255,307.785 351.645,307.9205 Q351.7725,308.048 351.7725,308.2313 Q351.7725,308.4066 351.5972,308.6138 Q351.3422,308.9166 350.9358,309.0839 Q350.4019,309.315 349.7484,309.315 Q348.9834,309.315 348.3698,309.0122 Q347.8758,308.7731 347.5252,308.2552 Q347.1825,307.7372 347.1825,307.1236 L347.1825,306.5658 Q347.1825,305.9283 347.4853,305.3705 Q347.7961,304.8127 348.33,304.5178 Q348.8719,304.215 349.4775,304.215 Q349.8441,304.215 350.1628,304.3425 Q350.4816,304.47 350.7525,304.725 Z " fill="#000000"/><text fill="#000000" font-family="sans-serif" font-size="6.12" lengthAdjust="spacing" textLength="27.54" x="360.1875" y="309.0142">ShipMMSI</text><line style="stroke:#A80036;stroke-width:0.765;" x1="304.725" x2="426.615" y1="314.67" y2="314.67"/><line style="stroke:#A80036;stroke-width:0.765;" x1="304.725" x2="426.615" y1="318.75" y2="318.75"/><text fill="#000000" font-family="sans-serif" font-size="5.61" lengthAdjust="spacing" textLength="40.8" x="307.275" y="326.6137">+ShipMMSI(ship)</text><text fill="#000000" font-family="sans-serif" font-size="5.61" lengthAdjust="spacing" textLength="116.79" x="307.275" y="333.67">+ShipMMSI(List&lt;Map.Entry&lt;String, ShipMMSI&gt;&gt;)</text><text fill="#000000" font-family="sans-serif" font-size="5.61" lengthAdjust="spacing" textLength="33.66" x="307.275" y="340.7263">+getMapList()</text><text fill="#000000" font-family="sans-serif" font-size="5.61" lengthAdjust="spacing" textLength="58.14" x="307.275" y="347.7826">+compareTo(ShipMMSI)</text><text fill="#000000" font-family="sans-serif" font-size="5.61" lengthAdjust="spacing" textLength="26.01" x="307.275" y="354.839">+toString()</text><!--MD5=[0dc7f2ddb409b58bcf52b12238c25399]
class Ship--><rect codeLine="50" fill="#FEFECE" filter="url(#f1kwfst6311oes)" height="236.1698" id="Ship" style="stroke:#A80036;stroke-width:0.765;" width="64.26" x="445.23" y="210.12"/><ellipse cx="468.8175" cy="218.28" fill="#ADD1B2" rx="5.61" ry="5.61" style="stroke:#A80036;stroke-width:0.51;"/><path d="M469.8375,216.495 Q469.9411,216.24 470.0606,216.1125 Q470.1802,215.985 470.3156,215.985 Q470.5547,215.985 470.7061,216.1284 Q470.8575,216.2719 470.8575,216.6066 L470.8575,217.4034 Q470.8575,217.7381 470.7141,217.8816 Q470.5706,218.025 470.3475,218.025 Q470.1483,218.025 470.0208,217.9373 Q469.8933,217.8497 469.8375,217.6186 Q469.8136,217.4592 469.7259,217.3716 Q469.5666,217.2042 469.2797,217.1086 Q468.9928,217.005 468.7059,217.005 Q468.3473,217.005 468.0445,217.1484 Q467.7497,217.2919 467.5186,217.6106 Q467.2875,217.9294 467.2875,218.3677 L467.2875,218.8378 Q467.2875,219.3638 467.7178,219.7144 Q468.1481,220.065 468.9131,220.065 Q469.3673,220.065 469.6861,219.9614 Q469.8694,219.9056 470.0766,219.7223 Q470.212,219.6188 470.2838,219.5869 Q470.3555,219.555 470.4431,219.555 Q470.6105,219.555 470.73,219.6905 Q470.8575,219.818 470.8575,220.0013 Q470.8575,220.1766 470.6822,220.3838 Q470.4272,220.6866 470.0208,220.8539 Q469.4869,221.085 468.8334,221.085 Q468.0684,221.085 467.4548,220.7822 Q466.9608,220.5431 466.6102,220.0252 Q466.2675,219.5072 466.2675,218.8936 L466.2675,218.3358 Q466.2675,217.6983 466.5703,217.1405 Q466.8811,216.5827 467.415,216.2878 Q467.9569,215.985 468.5625,215.985 Q468.9291,215.985 469.2478,216.1125 Q469.5666,216.24 469.8375,216.495 Z " fill="#000000"/><text fill="#000000" font-family="sans-serif" font-size="6.12" lengthAdjust="spacing" textLength="12.75" x="479.2725" y="220.7842">Ship</text><line style="stroke:#A80036;stroke-width:0.765;" x1="445.74" x2="508.98" y1="226.44" y2="226.44"/><text fill="#000000" font-family="sans-serif" font-size="5.61" lengthAdjust="spacing" textLength="14.79" x="448.29" y="234.3037">-mMSI</text><text fill="#000000" font-family="sans-serif" font-size="5.61" lengthAdjust="spacing" textLength="36.72" x="448.29" y="241.36">-baseDateTime</text><text fill="#000000" font-family="sans-serif" font-size="5.61" lengthAdjust="spacing" textLength="8.67" x="448.29" y="248.4163">-lati</text><text fill="#000000" font-family="sans-serif" font-size="5.61" lengthAdjust="spacing" textLength="12.24" x="448.29" y="255.4726">-long</text><text fill="#000000" font-family="sans-serif" font-size="5.61" lengthAdjust="spacing" textLength="11.22" x="448.29" y="262.529">-sog</text><text fill="#000000" font-family="sans-serif" font-size="5.61" lengthAdjust="spacing" textLength="11.22" x="448.29" y="269.5853">-cog</text><text fill="#000000" font-family="sans-serif" font-size="5.61" lengthAdjust="spacing" textLength="21.42" x="448.29" y="276.6416">-heading</text><text fill="#000000" font-family="sans-serif" font-size="5.61" lengthAdjust="spacing" textLength="32.13" x="448.29" y="283.698">-vesselName</text><text fill="#000000" font-family="sans-serif" font-size="5.61" lengthAdjust="spacing" textLength="11.22" x="448.29" y="290.7543">-iMO</text><text fill="#000000" font-family="sans-serif" font-size="5.61" lengthAdjust="spacing" textLength="20.91" x="448.29" y="297.8106">-callSign</text><text fill="#000000" font-family="sans-serif" font-size="5.61" lengthAdjust="spacing" textLength="30.6" x="448.29" y="304.8669">-vesselType</text><text fill="#000000" font-family="sans-serif" font-size="5.61" lengthAdjust="spacing" textLength="16.83" x="448.29" y="311.9233">-length</text><text fill="#000000" font-family="sans-serif" font-size="5.61" lengthAdjust="spacing" textLength="15.81" x="448.29" y="318.9796">-width</text><text fill="#000000" font-family="sans-serif" font-size="5.61" lengthAdjust="spacing" textLength="13.77" x="448.29" y="326.0359">-draft</text><text fill="#000000" font-family="sans-serif" font-size="5.61" lengthAdjust="spacing" textLength="16.32" x="448.29" y="333.0923">-cargo</text><text fill="#000000" font-family="sans-serif" font-size="5.61" lengthAdjust="spacing" textLength="43.86" x="448.29" y="340.1486">-transcieverClass</text><line style="stroke:#A80036;stroke-width:0.765;" x1="445.74" x2="508.98" y1="343.4213" y2="343.4213"/><text fill="#000000" font-family="sans-serif" font-size="5.61" lengthAdjust="spacing" textLength="27.54" x="448.29" y="351.2849">+getMMSI()</text><text fill="#000000" font-family="sans-serif" font-size="5.61" lengthAdjust="spacing" textLength="49.98" x="448.29" y="358.3412">+getBaseDateTime()</text><text fill="#000000" font-family="sans-serif" font-size="5.61" lengthAdjust="spacing" textLength="23.46" x="448.29" y="365.3976">+getLati()</text><text fill="#000000" font-family="sans-serif" font-size="5.61" lengthAdjust="spacing" textLength="27.03" x="448.29" y="372.4539">+getLong()</text><text fill="#000000" font-family="sans-serif" font-size="5.61" lengthAdjust="spacing" textLength="26.52" x="448.29" y="379.5102">+getSOG()</text><text fill="#000000" font-family="sans-serif" font-size="5.61" lengthAdjust="spacing" textLength="26.52" x="448.29" y="386.5666">+getCOG()</text><text fill="#000000" font-family="sans-serif" font-size="5.61" lengthAdjust="spacing" textLength="34.68" x="448.29" y="393.6229">+getHeading()</text><text fill="#000000" font-family="sans-serif" font-size="5.61" lengthAdjust="spacing" textLength="44.37" x="448.29" y="400.6792">+getVesselType()</text><text fill="#000000" font-family="sans-serif" font-size="5.61" lengthAdjust="spacing" textLength="31.62" x="448.29" y="407.7355">+getLenght()</text><text fill="#000000" font-family="sans-serif" font-size="5.61" lengthAdjust="spacing" textLength="28.56" x="448.29" y="414.7919">+getWidth()</text><text fill="#000000" font-family="sans-serif" font-size="5.61" lengthAdjust="spacing" textLength="27.03" x="448.29" y="421.8482">+getDraft()</text><text fill="#000000" font-family="sans-serif" font-size="5.61" lengthAdjust="spacing" textLength="29.58" x="448.29" y="428.9045">+getCargo()</text><text fill="#000000" font-family="sans-serif" font-size="5.61" lengthAdjust="spacing" textLength="58.14" x="448.29" y="435.9608">+getTranscieverClass()</text><text fill="#000000" font-family="sans-serif" font-size="5.61" lengthAdjust="spacing" textLength="17.85" x="448.29" y="443.0172">+Ship()</text><!--MD5=[219c9a37a47750c3832658d345ed8500]
class ShipDetailsOutput--><rect codeLine="85" fill="#FEFECE" filter="url(#f1kwfst6311oes)" height="31.5363" id="ShipDetailsOutput" style="stroke:#A80036;stroke-width:0.765;" width="67.32" x="538.05" y="312.375"/><ellipse cx="545.7" cy="320.535" fill="#ADD1B2" rx="5.61" ry="5.61" style="stroke:#A80036;stroke-width:0.51;"/><path d="M546.72,318.75 Q546.8236,318.495 546.9431,318.3675 Q547.0627,318.24 547.1981,318.24 Q547.4372,318.24 547.5886,318.3834 Q547.74,318.5269 547.74,318.8616 L547.74,319.6584 Q547.74,319.9931 547.5966,320.1366 Q547.4531,320.28 547.23,320.28 Q547.0308,320.28 546.9033,320.1923 Q546.7758,320.1047 546.72,319.8736 Q546.6961,319.7142 546.6084,319.6266 Q546.4491,319.4592 546.1622,319.3636 Q545.8753,319.26 545.5884,319.26 Q545.2298,319.26 544.927,319.4034 Q544.6322,319.5469 544.4011,319.8656 Q544.17,320.1844 544.17,320.6227 L544.17,321.0928 Q544.17,321.6188 544.6003,321.9694 Q545.0306,322.32 545.7956,322.32 Q546.2498,322.32 546.5686,322.2164 Q546.7519,322.1606 546.9591,321.9773 Q547.0945,321.8738 547.1663,321.8419 Q547.238,321.81 547.3256,321.81 Q547.493,321.81 547.6125,321.9455 Q547.74,322.073 547.74,322.2563 Q547.74,322.4316 547.5647,322.6388 Q547.3097,322.9416 546.9033,323.1089 Q546.3694,323.34 545.7159,323.34 Q544.9509,323.34 544.3373,323.0372 Q543.8433,322.7981 543.4927,322.2802 Q543.15,321.7622 543.15,321.1486 L543.15,320.5908 Q543.15,319.9533 543.4528,319.3955 Q543.7636,318.8377 544.2975,318.5428 Q544.8394,318.24 545.445,318.24 Q545.8116,318.24 546.1303,318.3675 Q546.4491,318.495 546.72,318.75 Z " fill="#000000"/><text fill="#000000" font-family="sans-serif" font-size="6.12" lengthAdjust="spacing" textLength="51" x="552.84" y="323.0392">ShipDetailsOutput</text><line style="stroke:#A80036;stroke-width:0.765;" x1="538.56" x2="604.86" y1="328.695" y2="328.695"/><line style="stroke:#A80036;stroke-width:0.765;" x1="538.56" x2="604.86" y1="332.775" y2="332.775"/><text fill="#000000" font-family="sans-serif" font-size="5.61" lengthAdjust="spacing" textLength="54.06" x="541.11" y="340.6387">+output(String details)</text><!--MD5=[35a2f44f89405b7559599ee8ce6deeb7]
link ShipDetailsController to ShipDetails--><path codeLine="89" d="M365.67,74.0418 C365.67,85.0476 365.67,98.0628 365.67,109.9611 " fill="none" id="ShipDetailsController-to-ShipDetails" style="stroke:#A80036;stroke-width:0.51;stroke-dasharray:7.0,7.0;"/><polygon fill="#A80036" points="365.67,112.6386,367.71,108.0486,365.67,110.0886,363.63,108.0486,365.67,112.6386" style="stroke:#A80036;stroke-width:0.51;"/><!--MD5=[fdc8249e9bded2bc769f206b5f5daab9]
link ShipDetails to ShipCallSign--><path codeLine="90" d="M297.636,155.7948 C255.1836,164.2506 201.2766,180.2442 161.67,210.12 C132.2226,232.3356 110.6955,269.3106 98.0067,295.8663 " fill="none" id="ShipDetails-to-ShipCallSign" style="stroke:#A80036;stroke-width:0.51;stroke-dasharray:7.0,7.0;"/><polygon fill="#A80036" points="96.8847,298.2429,100.6959,294.9711,97.9782,295.9393,97.0101,293.2215,96.8847,298.2429" style="stroke:#A80036;stroke-width:0.51;"/><!--MD5=[6aacd955ea748976ebe512f1c93ec544]
link ShipDetails to ShipIMO--><path codeLine="91" d="M324.5895,179.6679 C314.3742,188.9295 303.8937,199.41 295.29,210.12 C273.8547,236.8032 255.1632,271.2231 243.0456,295.9122 " fill="none" id="ShipDetails-to-ShipIMO" style="stroke:#A80036;stroke-width:0.51;stroke-dasharray:7.0,7.0;"/><polygon fill="#A80036" points="241.893,298.2684,245.7417,295.0408,243.013,295.9775,242.0763,293.2488,241.893,298.2684" style="stroke:#A80036;stroke-width:0.51;"/><!--MD5=[073acd5d403012f668da1bfe5b09140d]
link ShipDetails to ShipMMSI--><path codeLine="92" d="M365.67,179.622 C365.67,212.6088 365.67,262.9917 365.67,295.6368 " fill="none" id="ShipDetails-to-ShipMMSI" style="stroke:#A80036;stroke-width:0.51;stroke-dasharray:7.0,7.0;"/><polygon fill="#A80036" points="365.67,298.3449,367.71,293.7549,365.67,295.7949,363.63,293.7549,365.67,298.3449" style="stroke:#A80036;stroke-width:0.51;"/><!--MD5=[0b36d802110a79071e029b385de7210e]
link ShipDetails to Ship--><path codeLine="93" d="M409.1985,179.6832 C419.0262,188.7204 428.7111,199.0938 436.05,210.12 C438.855,214.3377 441.4968,218.7645 443.9754,223.3341 " fill="none" id="ShipDetails-to-Ship" style="stroke:#A80036;stroke-width:0.51;stroke-dasharray:7.0,7.0;"/><polygon fill="#A80036" points="445.179,225.5883,444.8165,220.5785,443.9779,223.3389,441.2174,222.5003,445.179,225.5883" style="stroke:#A80036;stroke-width:0.51;"/><!--MD5=[b0a717212cfb3499721cc33998b0c1d9]
link ShipDetails to ShipDetailsOutput--><path codeLine="95" d="M433.5765,163.0521 C462.3507,172.8084 494.5062,187.7769 517.65,210.12 C546.5568,238.0221 561.459,284.3199 567.8187,309.6873 " fill="none" id="ShipDetails-to-ShipDetailsOutput" style="stroke:#A80036;stroke-width:0.51;stroke-dasharray:7.0,7.0;"/><polygon fill="#A80036" points="568.4409,312.222,569.3171,307.2761,567.8276,309.7469,565.3568,308.2574,568.4409,312.222" style="stroke:#A80036;stroke-width:0.51;"/><!--MD5=[7f1ee558e2f7ca32ebcf231f80ab3af0]
@startuml
skinparam classAttributeIconSize 0


package Controller{
class ShipDetailsController {
+ShipDetailsController()
+getShipDetailsMMSI(mMSI, BST<ShipMMSI> )
+getShipDetailsIMO(iMO, BST<ShipIMO>)
+getShipDetailsCallSign(callSign, BST<ShipCallSign>)
}
}


package Domain {

class ShipDetails{
+getShipDetailsMMSI(mMSI, BST<ShipMMSI>)
+getShipDetailsIMO(iMO, BST<ShipIMO>)
+getShipDetailsCallSign(callSign, BST<ShipCallSign>)
+checkCallSign(callSign)
+checkMMSI(mMSI)
+checkIMO(iMO)

}

class ShipCallSign{
+ShipCallSign(ship)
+ShipCallSign(List<Map.Entry<String, ShipCallSign>>)
+getMapList()
+compareTo(ShipCallSign )
+toString()
}

class ShipIMO{
+ShipIMO(ship)
+ShipIMO(List<Map.Entry<String, ShipIMO>>)
+getMapList()
+compareTo(ShipIMO )
+toString()
}

class ShipMMSI{
+ShipMMSI(ship)
+ShipMMSI(List<Map.Entry<String, ShipMMSI>>)
+getMapList()
+compareTo(ShipMMSI)
+toString()
}

class Ship {
  - mMSI
  -baseDateTime
  -lati
  -long
  -sog
  -cog
  -heading
  -vesselName
  -iMO
  -callSign
  -vesselType
  -length
  -width
  -draft
  -cargo
  -transcieverClass

  +getMMSI()
  +getBaseDateTime()
  +getLati()
  +getLong()
  +getSOG()
  +getCOG()
  +getHeading()
  +getVesselType()
  +getLenght()
  +getWidth()
  +getDraft()
  +getCargo()
  +getTranscieverClass()
  +Ship()
}
}
package Utils{
class ShipDetailsOutput{
+output(String details)
}

ShipDetailsController ..> ShipDetails
ShipDetails..> ShipCallSign
ShipDetails..> ShipIMO
ShipDetails..> ShipMMSI
ShipDetails..> Ship

ShipDetails ..> ShipDetailsOutput

@enduml

PlantUML version 1.2021.00(Sun Jan 10 10:25:05 GMT 2021)
(GPL source distribution)
Java Runtime: OpenJDK Runtime Environment
JVM: OpenJDK 64-Bit Server VM
Default Encoding: Cp1252
Language: pt
Country: PT
--></g></svg>