<?xml version="1.0" encoding="UTF-8" standalone="no"?><svg xmlns="http://www.w3.org/2000/svg" xmlns:xlink="http://www.w3.org/1999/xlink" contentScriptType="application/ecmascript" contentStyleType="text/css" height="551.25px" preserveAspectRatio="none" style="width:440px;height:551px;" version="1.1" viewBox="0 0 440 551" width="440px" zoomAndPan="magnify"><defs><filter height="300%" id="fs79y8pocfv1v" width="300%" x="-1" y="-1"><feGaussianBlur result="blurOut" stdDeviation="2.5"/><feColorMatrix in="blurOut" result="blurOut2" type="matrix" values="0 0 0 0 0 0 0 0 0 0 0 0 0 0 0 0 0 0 .4 0"/><feOffset dx="5.0" dy="5.0" in="blurOut2" result="blurOut3"/><feBlend in="SourceGraphic" in2="blurOut3" mode="normal"/></filter></defs><g><rect fill="#FFFFFF" filter="url(#fs79y8pocfv1v)" height="308.916" style="stroke:#A80036;stroke-width:1.25;" width="12.5" x="85" y="124.5117"/><rect fill="#FFFFFF" filter="url(#fs79y8pocfv1v)" height="37.9395" style="stroke:#A80036;stroke-width:1.25;" width="12.5" x="361.25" y="184.1406"/><rect fill="#FFFFFF" filter="url(#fs79y8pocfv1v)" height="37.9395" style="stroke:#A80036;stroke-width:1.25;" width="12.5" x="361.25" y="279.8145"/><rect fill="#FFFFFF" filter="url(#fs79y8pocfv1v)" height="37.9395" style="stroke:#A80036;stroke-width:1.25;" width="12.5" x="361.25" y="375.4883"/><rect fill="#FFFFFF" filter="url(#fs79y8pocfv1v)" height="290.166" style="stroke:#000000;stroke-width:2.5;" width="410" x="12.5" y="133.2617"/><rect fill="#FFFFFF" height="95.6738" style="stroke:none;stroke-width:1.25;" width="410" x="12.5" y="232.0801"/><rect fill="#FFFFFF" height="95.6738" style="stroke:none;stroke-width:1.25;" width="410" x="12.5" y="327.7539"/><line style="stroke:#A80036;stroke-width:1.25;stroke-dasharray:5.0,5.0;" x1="91.25" x2="91.25" y1="112.0117" y2="444.6777"/><line style="stroke:#A80036;stroke-width:1.25;stroke-dasharray:5.0,5.0;" x1="367.5" x2="367.5" y1="112.0117" y2="444.6777"/><text fill="#000000" font-family="sans-serif" font-size="17.5" lengthAdjust="spacing" textLength="125" x="25" y="108.1665">Traffic manager</text><ellipse cx="91.25" cy="18.75" fill="#FEFECE" filter="url(#fs79y8pocfv1v)" rx="10" ry="10" style="stroke:#A80036;stroke-width:2.5;"/><path d="M91.25,28.75 L91.25,62.5 M75,38.75 L107.5,38.75 M91.25,62.5 L75,81.25 M91.25,62.5 L107.5,81.25 " fill="none" filter="url(#fs79y8pocfv1v)" style="stroke:#A80036;stroke-width:2.5;"/><text fill="#000000" font-family="sans-serif" font-size="17.5" lengthAdjust="spacing" textLength="125" x="25" y="461.5942">Traffic manager</text><ellipse cx="91.25" cy="477.9395" fill="#FEFECE" filter="url(#fs79y8pocfv1v)" rx="10" ry="10" style="stroke:#A80036;stroke-width:2.5;"/><path d="M91.25,487.9395 L91.25,521.6895 M75,497.9395 L107.5,497.9395 M91.25,521.6895 L75,540.4395 M91.25,521.6895 L107.5,540.4395 " fill="none" filter="url(#fs79y8pocfv1v)" style="stroke:#A80036;stroke-width:2.5;"/><rect fill="#FEFECE" filter="url(#fs79y8pocfv1v)" height="39.5117" style="stroke:#A80036;stroke-width:1.875;" width="80" x="325" y="66.25"/><text fill="#000000" font-family="sans-serif" font-size="17.5" lengthAdjust="spacing" textLength="62.5" x="333.75" y="93.1665">:System</text><rect fill="#FEFECE" filter="url(#fs79y8pocfv1v)" height="39.5117" style="stroke:#A80036;stroke-width:1.875;" width="80" x="325" y="443.4277"/><text fill="#000000" font-family="sans-serif" font-size="17.5" lengthAdjust="spacing" textLength="62.5" x="333.75" y="470.3442">:System</text><rect fill="#FFFFFF" filter="url(#fs79y8pocfv1v)" height="308.916" style="stroke:#A80036;stroke-width:1.25;" width="12.5" x="85" y="124.5117"/><rect fill="#FFFFFF" filter="url(#fs79y8pocfv1v)" height="37.9395" style="stroke:#A80036;stroke-width:1.25;" width="12.5" x="361.25" y="184.1406"/><rect fill="#FFFFFF" filter="url(#fs79y8pocfv1v)" height="37.9395" style="stroke:#A80036;stroke-width:1.25;" width="12.5" x="361.25" y="279.8145"/><rect fill="#FFFFFF" filter="url(#fs79y8pocfv1v)" height="37.9395" style="stroke:#A80036;stroke-width:1.25;" width="12.5" x="361.25" y="375.4883"/><path d="M12.5,133.2617 L88.75,133.2617 L88.75,143.2617 L76.25,155.7617 L12.5,155.7617 L12.5,133.2617 " fill="#EEEEEE" style="stroke:#000000;stroke-width:1.25;"/><rect fill="none" height="290.166" style="stroke:#000000;stroke-width:2.5;" width="410" x="12.5" y="133.2617"/><text fill="#000000" font-family="sans-serif" font-size="16.25" font-weight="bold" lengthAdjust="spacing" textLength="20" x="31.25" y="151.3806">alt</text><text fill="#000000" font-family="sans-serif" font-size="13.75" font-weight="bold" lengthAdjust="spacing" textLength="260" x="107.5" y="150.0354">[chooses to search the ship by MMSI]</text><polygon fill="#A80036" points="346.25,179.1406,358.75,184.1406,346.25,189.1406,351.25,184.1406" style="stroke:#A80036;stroke-width:1.25;"/><line style="stroke:#A80036;stroke-width:1.25;" x1="97.5" x2="353.75" y1="184.1406" y2="184.1406"/><text fill="#000000" font-family="sans-serif" font-size="16.25" font-weight="bold" lengthAdjust="spacing" textLength="8.75" x="106.25" y="178.0701">1</text><text fill="#000000" font-family="sans-serif" font-size="16.25" lengthAdjust="spacing" textLength="203.75" x="120" y="178.0701">inserts the MMSI of the ship</text><polygon fill="#A80036" points="111.25,217.0801,98.75,222.0801,111.25,227.0801,106.25,222.0801" style="stroke:#A80036;stroke-width:1.25;"/><line style="stroke:#A80036;stroke-width:1.25;stroke-dasharray:2.0,2.0;" x1="103.75" x2="366.25" y1="222.0801" y2="222.0801"/><text fill="#000000" font-family="sans-serif" font-size="16.25" font-weight="bold" lengthAdjust="spacing" textLength="8.75" x="118.75" y="216.0095">2</text><text fill="#000000" font-family="sans-serif" font-size="16.25" lengthAdjust="spacing" textLength="133.75" x="132.5" y="216.0095">shows ship details</text><line style="stroke:#000000;stroke-width:1.25;stroke-dasharray:2.0,2.0;" x1="12.5" x2="422.5" y1="233.3301" y2="233.3301"/><text fill="#000000" font-family="sans-serif" font-size="13.75" font-weight="bold" lengthAdjust="spacing" textLength="248.75" x="18.75" y="247.6038">[chooses to search the ship by IMO]</text><polygon fill="#A80036" points="346.25,274.8145,358.75,279.8145,346.25,284.8145,351.25,279.8145" style="stroke:#A80036;stroke-width:1.25;"/><line style="stroke:#A80036;stroke-width:1.25;" x1="97.5" x2="353.75" y1="279.8145" y2="279.8145"/><text fill="#000000" font-family="sans-serif" font-size="16.25" font-weight="bold" lengthAdjust="spacing" textLength="8.75" x="106.25" y="273.7439">3</text><text fill="#000000" font-family="sans-serif" font-size="16.25" lengthAdjust="spacing" textLength="191.25" x="120" y="273.7439">inserts the IMO of the ship</text><polygon fill="#A80036" points="111.25,312.7539,98.75,317.7539,111.25,322.7539,106.25,317.7539" style="stroke:#A80036;stroke-width:1.25;"/><line style="stroke:#A80036;stroke-width:1.25;stroke-dasharray:2.0,2.0;" x1="103.75" x2="366.25" y1="317.7539" y2="317.7539"/><text fill="#000000" font-family="sans-serif" font-size="16.25" font-weight="bold" lengthAdjust="spacing" textLength="8.75" x="118.75" y="311.6833">4</text><text fill="#000000" font-family="sans-serif" font-size="16.25" lengthAdjust="spacing" textLength="133.75" x="132.5" y="311.6833">shows ship details</text><line style="stroke:#000000;stroke-width:1.25;stroke-dasharray:2.0,2.0;" x1="12.5" x2="422.5" y1="329.0039" y2="329.0039"/><text fill="#000000" font-family="sans-serif" font-size="13.75" font-weight="bold" lengthAdjust="spacing" textLength="281.25" x="18.75" y="343.2776">[chooses to search the ship by Call Sign]</text><polygon fill="#A80036" points="346.25,370.4883,358.75,375.4883,346.25,380.4883,351.25,375.4883" style="stroke:#A80036;stroke-width:1.25;"/><line style="stroke:#A80036;stroke-width:1.25;" x1="97.5" x2="353.75" y1="375.4883" y2="375.4883"/><text fill="#000000" font-family="sans-serif" font-size="16.25" font-weight="bold" lengthAdjust="spacing" textLength="8.75" x="106.25" y="369.4177">5</text><text fill="#000000" font-family="sans-serif" font-size="16.25" lengthAdjust="spacing" textLength="226.25" x="120" y="369.4177">inserts the Call Sign of the ship</text><polygon fill="#A80036" points="111.25,408.4277,98.75,413.4277,111.25,418.4277,106.25,413.4277" style="stroke:#A80036;stroke-width:1.25;"/><line style="stroke:#A80036;stroke-width:1.25;stroke-dasharray:2.0,2.0;" x1="103.75" x2="366.25" y1="413.4277" y2="413.4277"/><text fill="#000000" font-family="sans-serif" font-size="16.25" font-weight="bold" lengthAdjust="spacing" textLength="8.75" x="118.75" y="407.3572">6</text><text fill="#000000" font-family="sans-serif" font-size="16.25" lengthAdjust="spacing" textLength="133.75" x="132.5" y="407.3572">shows ship details</text><!--MD5=[01f57a58a4ceea7a4d83c4f717b8ad1a]
@startuml
autonumber
actor "Traffic manager" as TM

activate TM
alt chooses to search the ship by MMSI

TM -> ":System" : inserts the MMSI of the ship
activate ":System"

":System" - -> TM : shows ship details
deactivate ":System"

else chooses to search the ship by IMO

TM -> ":System" : inserts the IMO of the ship
activate ":System"

":System" - -> TM : shows ship details
deactivate ":System"

else chooses to search the ship by Call Sign

TM -> ":System" : inserts the Call Sign of the ship
activate ":System"

":System" - -> TM : shows ship details
deactivate ":System"

end
@enduml

PlantUML version 1.2021.00(Sun Jan 10 10:25:05 GMT 2021)
(GPL source distribution)
Java Runtime: OpenJDK Runtime Environment
JVM: OpenJDK 64-Bit Server VM
Default Encoding: Cp1252
Language: pt
Country: PT
--></g></svg>