<?xml version="1.0" encoding="UTF-8" standalone="no"?><svg xmlns="http://www.w3.org/2000/svg" xmlns:xlink="http://www.w3.org/1999/xlink" contentScriptType="application/ecmascript" contentStyleType="text/css" height="1165.08px" preserveAspectRatio="none" style="width:524px;height:1165px;" version="1.1" viewBox="0 0 524 1165" width="524.4px" zoomAndPan="magnify"><defs><filter height="300%" id="fu35x2d7g3jf0" width="300%" x="-1" y="-1"><feGaussianBlur result="blurOut" stdDeviation="1.52"/><feColorMatrix in="blurOut" result="blurOut2" type="matrix" values="0 0 0 0 0 0 0 0 0 0 0 0 0 0 0 0 0 0 .4 0"/><feOffset dx="3.04" dy="3.04" in="blurOut2" result="blurOut3"/><feBlend in="SourceGraphic" in2="blurOut3" mode="normal"/></filter></defs><g><!--MD5=[1f2cfc53d9d308f53762fd0fcbaa4873]
cluster Controller--><polygon fill="#FFFFFF" filter="url(#fu35x2d7g3jf0)" points="123.88,4.56,182.4,4.56,187.72,22.5031,397.48,22.5031,397.48,112.48,123.88,112.48,123.88,4.56" style="stroke:#000000;stroke-width:1.1400000000000001;"/><line style="stroke:#000000;stroke-width:1.1400000000000001;" x1="123.88" x2="187.72" y1="22.5031" y2="22.5031"/><text fill="#000000" font-family="sans-serif" font-size="10.64" font-weight="bold" lengthAdjust="spacing" textLength="53.96" x="126.92" y="17.1252">Controller</text><!--MD5=[121a8bf1197281ab89ed693fab589f94]
cluster Domain--><polygon fill="#FFFFFF" filter="url(#fu35x2d7g3jf0)" points="12.16,256.88,56.24,256.88,61.56,274.8231,248.52,274.8231,248.52,1159.76,12.16,1159.76,12.16,256.88" style="stroke:#000000;stroke-width:1.1400000000000001;"/><line style="stroke:#000000;stroke-width:1.1400000000000001;" x1="12.16" x2="61.56" y1="274.8231" y2="274.8231"/><text fill="#000000" font-family="sans-serif" font-size="10.64" font-weight="bold" lengthAdjust="spacing" textLength="39.52" x="15.2" y="269.4452">Domain</text><!--MD5=[cdfd548b3455e70392372b1f27091970]
cluster Services--><polygon fill="#FFFFFF" filter="url(#fu35x2d7g3jf0)" points="123.88,130.72,175.56,130.72,180.88,148.6631,397.48,148.6631,397.48,238.64,123.88,238.64,123.88,130.72" style="stroke:#000000;stroke-width:1.1400000000000001;"/><line style="stroke:#000000;stroke-width:1.1400000000000001;" x1="123.88" x2="180.88" y1="148.6631" y2="148.6631"/><text fill="#000000" font-family="sans-serif" font-size="10.64" font-weight="bold" lengthAdjust="spacing" textLength="47.12" x="126.92" y="143.2852">Services</text><!--MD5=[7e40339c58605559321960399585b560]
cluster Utils--><polygon fill="#FFFFFF" filter="url(#fu35x2d7g3jf0)" points="266.76,330.6,294.88,330.6,300.2,348.5431,511.48,348.5431,511.48,417.24,266.76,417.24,266.76,330.6" style="stroke:#000000;stroke-width:1.1400000000000001;"/><line style="stroke:#000000;stroke-width:1.1400000000000001;" x1="266.76" x2="300.2" y1="348.5431" y2="348.5431"/><text fill="#000000" font-family="sans-serif" font-size="10.64" font-weight="bold" lengthAdjust="spacing" textLength="23.56" x="269.8" y="343.1652">Utils</text><!--MD5=[24b1c14f929cd2f186b47617abc92255]
class ShipSortedTemporallyController--><rect codeLine="5" fill="#FEFECE" filter="url(#fu35x2d7g3jf0)" height="68.0259" id="ShipSortedTemporallyController" style="stroke:#A80036;stroke-width:1.1400000000000001;" width="249.28" x="136.04" y="31.92"/><ellipse cx="190.57" cy="44.08" fill="#ADD1B2" rx="8.36" ry="8.36" style="stroke:#A80036;stroke-width:0.76;"/><path d="M192.09,41.42 Q192.2444,41.04 192.4225,40.85 Q192.6006,40.66 192.8025,40.66 Q193.1588,40.66 193.3844,40.8738 Q193.61,41.0875 193.61,41.5863 L193.61,42.7738 Q193.61,43.2725 193.3963,43.4863 Q193.1825,43.7 192.85,43.7 Q192.5531,43.7 192.3631,43.5694 Q192.1731,43.4388 192.09,43.0944 Q192.0544,42.8569 191.9238,42.7263 Q191.6863,42.4769 191.2588,42.3344 Q190.8313,42.18 190.4038,42.18 Q189.8694,42.18 189.4181,42.3938 Q188.9788,42.6075 188.6344,43.0825 Q188.29,43.5575 188.29,44.2106 L188.29,44.9113 Q188.29,45.695 188.9313,46.2175 Q189.5725,46.74 190.7125,46.74 Q191.3894,46.74 191.8644,46.5856 Q192.1375,46.5025 192.4463,46.2294 Q192.6481,46.075 192.755,46.0275 Q192.8619,45.98 192.9925,45.98 Q193.2419,45.98 193.42,46.1819 Q193.61,46.3719 193.61,46.645 Q193.61,46.9063 193.3488,47.215 Q192.9688,47.6663 192.3631,47.9156 Q191.5675,48.26 190.5938,48.26 Q189.4538,48.26 188.5394,47.8088 Q187.8031,47.4525 187.2806,46.6806 Q186.77,45.9088 186.77,44.9944 L186.77,44.1631 Q186.77,43.2131 187.2213,42.3819 Q187.6844,41.5506 188.48,41.1113 Q189.2875,40.66 190.19,40.66 Q190.7363,40.66 191.2113,40.85 Q191.6863,41.04 192.09,41.42 Z " fill="#000000"/><text fill="#000000" font-family="sans-serif" font-size="9.12" lengthAdjust="spacing" textLength="133.76" x="206.15" y="47.8117">ShipSortedTemporallyController</text><line style="stroke:#A80036;stroke-width:1.1400000000000001;" x1="136.8" x2="384.56" y1="56.24" y2="56.24"/><line style="stroke:#A80036;stroke-width:1.1400000000000001;" x1="136.8" x2="384.56" y1="62.32" y2="62.32"/><text fill="#000000" font-family="sans-serif" font-size="8.36" lengthAdjust="spacing" textLength="125.4" x="140.6" y="74.0384">+ShipSortedTemporallyController()</text><text fill="#000000" font-family="sans-serif" font-size="8.36" lengthAdjust="spacing" textLength="147.44" x="140.6" y="84.5537">+sortTemporally(mMSI, BST&lt;ShipMMSI&gt;)</text><text fill="#000000" font-family="sans-serif" font-size="8.36" lengthAdjust="spacing" textLength="240.16" x="140.6" y="95.069">+positionValues(List&lt;ShipMMSI&gt;, startDatePeriod, endDatePeriod)</text><!--MD5=[945875cf6d588d237381ff70a37dedf0]
class PositionalMMessage--><rect codeLine="14" fill="#FEFECE" filter="url(#fu35x2d7g3jf0)" height="194.2097" id="PositionalMMessage" style="stroke:#A80036;stroke-width:1.1400000000000001;" width="111.72" x="88.54" y="284.24"/><ellipse cx="99.94" cy="296.4" fill="#ADD1B2" rx="8.36" ry="8.36" style="stroke:#A80036;stroke-width:0.76;"/><path d="M101.46,293.74 Q101.6144,293.36 101.7925,293.17 Q101.9706,292.98 102.1725,292.98 Q102.5288,292.98 102.7544,293.1938 Q102.98,293.4075 102.98,293.9063 L102.98,295.0938 Q102.98,295.5925 102.7663,295.8063 Q102.5525,296.02 102.22,296.02 Q101.9231,296.02 101.7331,295.8894 Q101.5431,295.7588 101.46,295.4144 Q101.4244,295.1769 101.2938,295.0463 Q101.0563,294.7969 100.6288,294.6544 Q100.2013,294.5 99.7738,294.5 Q99.2394,294.5 98.7881,294.7138 Q98.3488,294.9275 98.0044,295.4025 Q97.66,295.8775 97.66,296.5306 L97.66,297.2313 Q97.66,298.015 98.3013,298.5375 Q98.9425,299.06 100.0825,299.06 Q100.7594,299.06 101.2344,298.9056 Q101.5075,298.8225 101.8163,298.5494 Q102.0181,298.395 102.125,298.3475 Q102.2319,298.3 102.3625,298.3 Q102.6119,298.3 102.79,298.5019 Q102.98,298.6919 102.98,298.965 Q102.98,299.2263 102.7188,299.535 Q102.3388,299.9863 101.7331,300.2356 Q100.9375,300.58 99.9638,300.58 Q98.8238,300.58 97.9094,300.1288 Q97.1731,299.7725 96.6506,299.0006 Q96.14,298.2288 96.14,297.3144 L96.14,296.4831 Q96.14,295.5331 96.5913,294.7019 Q97.0544,293.8706 97.85,293.4313 Q98.6575,292.98 99.56,292.98 Q100.1063,292.98 100.5813,293.17 Q101.0563,293.36 101.46,293.74 Z " fill="#000000"/><text fill="#000000" font-family="sans-serif" font-size="9.12" lengthAdjust="spacing" textLength="87.4" x="110.58" y="300.1317">PositionalMMessage</text><line style="stroke:#A80036;stroke-width:1.1400000000000001;" x1="89.3" x2="199.5" y1="308.56" y2="308.56"/><text fill="#000000" font-family="sans-serif" font-size="8.36" lengthAdjust="spacing" textLength="22.04" x="93.1" y="320.2784">-mMSI</text><text fill="#000000" font-family="sans-serif" font-size="8.36" lengthAdjust="spacing" textLength="45.6" x="93.1" y="330.7937">-vesselType</text><text fill="#000000" font-family="sans-serif" font-size="8.36" lengthAdjust="spacing" textLength="19" x="93.1" y="341.309">-date</text><text fill="#000000" font-family="sans-serif" font-size="8.36" lengthAdjust="spacing" textLength="11.4" x="93.1" y="351.8243">-lat</text><text fill="#000000" font-family="sans-serif" font-size="8.36" lengthAdjust="spacing" textLength="13.68" x="93.1" y="362.3396">-lon</text><text fill="#000000" font-family="sans-serif" font-size="8.36" lengthAdjust="spacing" textLength="16.72" x="93.1" y="372.855">-sog</text><text fill="#000000" font-family="sans-serif" font-size="8.36" lengthAdjust="spacing" textLength="16.72" x="93.1" y="383.3703">-cog</text><line style="stroke:#A80036;stroke-width:1.1400000000000001;" x1="89.3" x2="199.5" y1="388.2472" y2="388.2472"/><text fill="#000000" font-family="sans-serif" font-size="8.36" lengthAdjust="spacing" textLength="41.04" x="93.1" y="399.9656">+getMMSI()</text><text fill="#000000" font-family="sans-serif" font-size="8.36" lengthAdjust="spacing" textLength="66.12" x="93.1" y="410.4809">+getVesselType()</text><text fill="#000000" font-family="sans-serif" font-size="8.36" lengthAdjust="spacing" textLength="74.48" x="93.1" y="420.9962">+getBaseDateTime()</text><text fill="#000000" font-family="sans-serif" font-size="8.36" lengthAdjust="spacing" textLength="33.44" x="93.1" y="431.5115">+getLat()</text><text fill="#000000" font-family="sans-serif" font-size="8.36" lengthAdjust="spacing" textLength="35.72" x="93.1" y="442.0268">+getLon()</text><text fill="#000000" font-family="sans-serif" font-size="8.36" lengthAdjust="spacing" textLength="39.52" x="93.1" y="452.5421">+getSOG()</text><text fill="#000000" font-family="sans-serif" font-size="8.36" lengthAdjust="spacing" textLength="39.52" x="93.1" y="463.0575">+getCOG()</text><text fill="#000000" font-family="sans-serif" font-size="8.36" lengthAdjust="spacing" textLength="38.76" x="93.1" y="473.5728">+toString()</text><!--MD5=[0dc7f2ddb409b58bcf52b12238c25399]
class Ship--><rect codeLine="33" fill="#FEFECE" filter="url(#fu35x2d7g3jf0)" height="488.6384" id="Ship" style="stroke:#A80036;stroke-width:1.1400000000000001;" width="158.08" x="44.84" y="658.92"/><ellipse cx="111.15" cy="671.08" fill="#ADD1B2" rx="8.36" ry="8.36" style="stroke:#A80036;stroke-width:0.76;"/><path d="M112.67,668.42 Q112.8244,668.04 113.0025,667.85 Q113.1806,667.66 113.3825,667.66 Q113.7388,667.66 113.9644,667.8738 Q114.19,668.0875 114.19,668.5863 L114.19,669.7738 Q114.19,670.2725 113.9763,670.4863 Q113.7625,670.7 113.43,670.7 Q113.1331,670.7 112.9431,670.5694 Q112.7531,670.4388 112.67,670.0944 Q112.6344,669.8569 112.5038,669.7263 Q112.2663,669.4769 111.8388,669.3344 Q111.4113,669.18 110.9838,669.18 Q110.4494,669.18 109.9981,669.3938 Q109.5588,669.6075 109.2144,670.0825 Q108.87,670.5575 108.87,671.2106 L108.87,671.9113 Q108.87,672.695 109.5113,673.2175 Q110.1525,673.74 111.2925,673.74 Q111.9694,673.74 112.4444,673.5856 Q112.7175,673.5025 113.0263,673.2294 Q113.2281,673.075 113.335,673.0275 Q113.4419,672.98 113.5725,672.98 Q113.8219,672.98 114,673.1819 Q114.19,673.3719 114.19,673.645 Q114.19,673.9063 113.9288,674.215 Q113.5488,674.6663 112.9431,674.9156 Q112.1475,675.26 111.1738,675.26 Q110.0338,675.26 109.1194,674.8088 Q108.3831,674.4525 107.8606,673.6806 Q107.35,672.9088 107.35,671.9944 L107.35,671.1631 Q107.35,670.2131 107.8013,669.3819 Q108.2644,668.5506 109.06,668.1113 Q109.8675,667.66 110.77,667.66 Q111.3163,667.66 111.7913,667.85 Q112.2663,668.04 112.67,668.42 Z " fill="#000000"/><text fill="#000000" font-family="sans-serif" font-size="9.12" lengthAdjust="spacing" textLength="19" x="126.73" y="674.8117">Ship</text><line style="stroke:#A80036;stroke-width:1.1400000000000001;" x1="45.6" x2="202.16" y1="683.24" y2="683.24"/><text fill="#000000" font-family="sans-serif" font-size="8.36" lengthAdjust="spacing" textLength="22.04" x="49.4" y="694.9584">-mMSI</text><text fill="#000000" font-family="sans-serif" font-size="8.36" lengthAdjust="spacing" textLength="54.72" x="49.4" y="705.4737">-baseDateTime</text><text fill="#000000" font-family="sans-serif" font-size="8.36" lengthAdjust="spacing" textLength="11.4" x="49.4" y="715.989">-lat</text><text fill="#000000" font-family="sans-serif" font-size="8.36" lengthAdjust="spacing" textLength="13.68" x="49.4" y="726.5043">-lon</text><text fill="#000000" font-family="sans-serif" font-size="8.36" lengthAdjust="spacing" textLength="16.72" x="49.4" y="737.0196">-sog</text><text fill="#000000" font-family="sans-serif" font-size="8.36" lengthAdjust="spacing" textLength="16.72" x="49.4" y="747.535">-cog</text><text fill="#000000" font-family="sans-serif" font-size="8.36" lengthAdjust="spacing" textLength="31.92" x="49.4" y="758.0503">-heading</text><text fill="#000000" font-family="sans-serif" font-size="8.36" lengthAdjust="spacing" textLength="47.88" x="49.4" y="768.5656">-vesselName</text><text fill="#000000" font-family="sans-serif" font-size="8.36" lengthAdjust="spacing" textLength="16.72" x="49.4" y="779.0809">-iMO</text><text fill="#000000" font-family="sans-serif" font-size="8.36" lengthAdjust="spacing" textLength="31.16" x="49.4" y="789.5962">-callSign</text><text fill="#000000" font-family="sans-serif" font-size="8.36" lengthAdjust="spacing" textLength="45.6" x="49.4" y="800.1115">-vesselType</text><text fill="#000000" font-family="sans-serif" font-size="8.36" lengthAdjust="spacing" textLength="25.08" x="49.4" y="810.6268">-length</text><text fill="#000000" font-family="sans-serif" font-size="8.36" lengthAdjust="spacing" textLength="23.56" x="49.4" y="821.1421">-width</text><text fill="#000000" font-family="sans-serif" font-size="8.36" lengthAdjust="spacing" textLength="20.52" x="49.4" y="831.6575">-draft</text><text fill="#000000" font-family="sans-serif" font-size="8.36" lengthAdjust="spacing" textLength="24.32" x="49.4" y="842.1728">-cargo</text><text fill="#000000" font-family="sans-serif" font-size="8.36" lengthAdjust="spacing" textLength="65.36" x="49.4" y="852.6881">-transcieverClass</text><line style="stroke:#A80036;stroke-width:1.1400000000000001;" x1="45.6" x2="202.16" y1="857.565" y2="857.565"/><text fill="#000000" font-family="sans-serif" font-size="8.36" lengthAdjust="spacing" textLength="41.04" x="49.4" y="869.2834">+getMMSI()</text><text fill="#000000" font-family="sans-serif" font-size="8.36" lengthAdjust="spacing" textLength="74.48" x="49.4" y="879.7987">+getBaseDateTime()</text><text fill="#000000" font-family="sans-serif" font-size="8.36" lengthAdjust="spacing" textLength="33.44" x="49.4" y="890.314">+getLat()</text><text fill="#000000" font-family="sans-serif" font-size="8.36" lengthAdjust="spacing" textLength="35.72" x="49.4" y="900.8293">+getLon()</text><text fill="#000000" font-family="sans-serif" font-size="8.36" lengthAdjust="spacing" textLength="39.52" x="49.4" y="911.3446">+getSOG()</text><text fill="#000000" font-family="sans-serif" font-size="8.36" lengthAdjust="spacing" textLength="39.52" x="49.4" y="921.86">+getCOG()</text><text fill="#000000" font-family="sans-serif" font-size="8.36" lengthAdjust="spacing" textLength="51.68" x="49.4" y="932.3753">+getHeading()</text><text fill="#000000" font-family="sans-serif" font-size="8.36" lengthAdjust="spacing" textLength="66.12" x="49.4" y="942.8906">+getVesselType()</text><text fill="#000000" font-family="sans-serif" font-size="8.36" lengthAdjust="spacing" textLength="47.12" x="49.4" y="953.4059">+getLenght()</text><text fill="#000000" font-family="sans-serif" font-size="8.36" lengthAdjust="spacing" textLength="42.56" x="49.4" y="963.9212">+getWidth()</text><text fill="#000000" font-family="sans-serif" font-size="8.36" lengthAdjust="spacing" textLength="40.28" x="49.4" y="974.4365">+getDraft()</text><text fill="#000000" font-family="sans-serif" font-size="8.36" lengthAdjust="spacing" textLength="44.08" x="49.4" y="984.9518">+getCargo()</text><text fill="#000000" font-family="sans-serif" font-size="8.36" lengthAdjust="spacing" textLength="86.64" x="49.4" y="995.4671">+getTranscieverClass()</text><text fill="#000000" font-family="sans-serif" font-size="8.36" lengthAdjust="spacing" textLength="60.04" x="49.4" y="1005.9825">+setMMSI(mMSI)</text><text fill="#000000" font-family="sans-serif" font-size="8.36" lengthAdjust="spacing" textLength="126.16" x="49.4" y="1016.4978">+setBaseDateTime(baseDateTime)</text><text fill="#000000" font-family="sans-serif" font-size="8.36" lengthAdjust="spacing" textLength="44.84" x="49.4" y="1027.0131">+setLati(lati)</text><text fill="#000000" font-family="sans-serif" font-size="8.36" lengthAdjust="spacing" textLength="55.48" x="49.4" y="1037.5284">+setLong(long)</text><text fill="#000000" font-family="sans-serif" font-size="8.36" lengthAdjust="spacing" textLength="53.2" x="49.4" y="1048.0437">+setSOG(sog)</text><text fill="#000000" font-family="sans-serif" font-size="8.36" lengthAdjust="spacing" textLength="53.2" x="49.4" y="1058.559">+setCOG(cog)</text><text fill="#000000" font-family="sans-serif" font-size="8.36" lengthAdjust="spacing" textLength="80.56" x="49.4" y="1069.0743">+setHeading(heading)</text><text fill="#000000" font-family="sans-serif" font-size="8.36" lengthAdjust="spacing" textLength="108.68" x="49.4" y="1079.5896">+setVesselType(vesselType)</text><text fill="#000000" font-family="sans-serif" font-size="8.36" lengthAdjust="spacing" textLength="69.16" x="49.4" y="1090.105">+setLenght(lenght)</text><text fill="#000000" font-family="sans-serif" font-size="8.36" lengthAdjust="spacing" textLength="63.08" x="49.4" y="1100.6203">+setWidth(width)</text><text fill="#000000" font-family="sans-serif" font-size="8.36" lengthAdjust="spacing" textLength="57.76" x="49.4" y="1111.1356">+setDraft(draft)</text><text fill="#000000" font-family="sans-serif" font-size="8.36" lengthAdjust="spacing" textLength="65.36" x="49.4" y="1121.6509">+setCargo(cargo)</text><text fill="#000000" font-family="sans-serif" font-size="8.36" lengthAdjust="spacing" textLength="148.96" x="49.4" y="1132.1662">+setTranscieverClass(transcieverClass)</text><text fill="#000000" font-family="sans-serif" font-size="8.36" lengthAdjust="spacing" textLength="26.6" x="49.4" y="1142.6815">+Ship()</text><!--MD5=[10842816a521f091e096081c0b3409a1]
class ShipMMSI--><rect codeLine="80" fill="#FEFECE" filter="url(#fu35x2d7g3jf0)" height="89.0566" id="ShipMMSI" style="stroke:#A80036;stroke-width:1.1400000000000001;" width="183.16" x="52.82" y="524.4"/><ellipse cx="120.65" cy="536.56" fill="#ADD1B2" rx="8.36" ry="8.36" style="stroke:#A80036;stroke-width:0.76;"/><path d="M122.17,533.9 Q122.3244,533.52 122.5025,533.33 Q122.6806,533.14 122.8825,533.14 Q123.2388,533.14 123.4644,533.3538 Q123.69,533.5675 123.69,534.0663 L123.69,535.2538 Q123.69,535.7525 123.4763,535.9663 Q123.2625,536.18 122.93,536.18 Q122.6331,536.18 122.4431,536.0494 Q122.2531,535.9188 122.17,535.5744 Q122.1344,535.3369 122.0038,535.2063 Q121.7663,534.9569 121.3388,534.8144 Q120.9113,534.66 120.4838,534.66 Q119.9494,534.66 119.4981,534.8738 Q119.0588,535.0875 118.7144,535.5625 Q118.37,536.0375 118.37,536.6906 L118.37,537.3913 Q118.37,538.175 119.0113,538.6975 Q119.6525,539.22 120.7925,539.22 Q121.4694,539.22 121.9444,539.0656 Q122.2175,538.9825 122.5263,538.7094 Q122.7281,538.555 122.835,538.5075 Q122.9419,538.46 123.0725,538.46 Q123.3219,538.46 123.5,538.6619 Q123.69,538.8519 123.69,539.125 Q123.69,539.3863 123.4288,539.695 Q123.0488,540.1463 122.4431,540.3956 Q121.6475,540.74 120.6738,540.74 Q119.5338,540.74 118.6194,540.2888 Q117.8831,539.9325 117.3606,539.1606 Q116.85,538.3888 116.85,537.4744 L116.85,536.6431 Q116.85,535.6931 117.3013,534.8619 Q117.7644,534.0306 118.56,533.5913 Q119.3675,533.14 120.27,533.14 Q120.8163,533.14 121.2913,533.33 Q121.7663,533.52 122.17,533.9 Z " fill="#000000"/><text fill="#000000" font-family="sans-serif" font-size="9.12" lengthAdjust="spacing" textLength="41.04" x="136.23" y="540.2917">ShipMMSI</text><line style="stroke:#A80036;stroke-width:1.1400000000000001;" x1="53.58" x2="235.22" y1="548.72" y2="548.72"/><line style="stroke:#A80036;stroke-width:1.1400000000000001;" x1="53.58" x2="235.22" y1="554.8" y2="554.8"/><text fill="#000000" font-family="sans-serif" font-size="8.36" lengthAdjust="spacing" textLength="60.8" x="57.38" y="566.5184">+ShipMMSI(ship)</text><text fill="#000000" font-family="sans-serif" font-size="8.36" lengthAdjust="spacing" textLength="174.04" x="57.38" y="577.0337">+ShipMMSI(List&lt;Map.Entry&lt;String, ShipMMSI&gt;&gt;)</text><text fill="#000000" font-family="sans-serif" font-size="8.36" lengthAdjust="spacing" textLength="50.16" x="57.38" y="587.549">+getMapList()</text><text fill="#000000" font-family="sans-serif" font-size="8.36" lengthAdjust="spacing" textLength="86.64" x="57.38" y="598.0643">+compareTo(ShipMMSI)</text><text fill="#000000" font-family="sans-serif" font-size="8.36" lengthAdjust="spacing" textLength="38.76" x="57.38" y="608.5796">+toString()</text><!--MD5=[ffdbbb0373bb49e9e682530922e848b8]
class ShipSortedTemporally--><rect codeLine="91" fill="#FEFECE" filter="url(#fu35x2d7g3jf0)" height="68.0259" id="ShipSortedTemporally" style="stroke:#A80036;stroke-width:1.1400000000000001;" width="249.28" x="136.04" y="158.08"/><ellipse cx="211.09" cy="170.24" fill="#ADD1B2" rx="8.36" ry="8.36" style="stroke:#A80036;stroke-width:0.76;"/><path d="M212.61,167.58 Q212.7644,167.2 212.9425,167.01 Q213.1206,166.82 213.3225,166.82 Q213.6788,166.82 213.9044,167.0338 Q214.13,167.2475 214.13,167.7463 L214.13,168.9338 Q214.13,169.4325 213.9163,169.6463 Q213.7025,169.86 213.37,169.86 Q213.0731,169.86 212.8831,169.7294 Q212.6931,169.5988 212.61,169.2544 Q212.5744,169.0169 212.4438,168.8863 Q212.2063,168.6369 211.7788,168.4944 Q211.3513,168.34 210.9238,168.34 Q210.3894,168.34 209.9381,168.5538 Q209.4988,168.7675 209.1544,169.2425 Q208.81,169.7175 208.81,170.3706 L208.81,171.0713 Q208.81,171.855 209.4513,172.3775 Q210.0925,172.9 211.2325,172.9 Q211.9094,172.9 212.3844,172.7456 Q212.6575,172.6625 212.9663,172.3894 Q213.1681,172.235 213.275,172.1875 Q213.3819,172.14 213.5125,172.14 Q213.7619,172.14 213.94,172.3419 Q214.13,172.5319 214.13,172.805 Q214.13,173.0663 213.8688,173.375 Q213.4888,173.8263 212.8831,174.0756 Q212.0875,174.42 211.1138,174.42 Q209.9738,174.42 209.0594,173.9688 Q208.3231,173.6125 207.8006,172.8406 Q207.29,172.0688 207.29,171.1544 L207.29,170.3231 Q207.29,169.3731 207.7413,168.5419 Q208.2044,167.7106 209,167.2713 Q209.8075,166.82 210.71,166.82 Q211.2563,166.82 211.7313,167.01 Q212.2063,167.2 212.61,167.58 Z " fill="#000000"/><text fill="#000000" font-family="sans-serif" font-size="9.12" lengthAdjust="spacing" textLength="92.72" x="226.67" y="173.9717">ShipSortedTemporally</text><line style="stroke:#A80036;stroke-width:1.1400000000000001;" x1="136.8" x2="384.56" y1="182.4" y2="182.4"/><line style="stroke:#A80036;stroke-width:1.1400000000000001;" x1="136.8" x2="384.56" y1="188.48" y2="188.48"/><text fill="#000000" font-family="sans-serif" font-size="8.36" lengthAdjust="spacing" textLength="147.44" x="140.6" y="200.1984">+sortTemporally(mMSI, BST&lt;ShipMMSI&gt;)</text><text fill="#000000" font-family="sans-serif" font-size="8.36" lengthAdjust="spacing" textLength="240.16" x="140.6" y="210.7137">+positionValues(List&lt;ShipMMSI&gt;, startDatePeriod, endDatePeriod)</text><text fill="#000000" font-family="sans-serif" font-size="8.36" lengthAdjust="spacing" textLength="149.72" x="140.6" y="221.229">+checkDate(firstDate, lastDate, testDate)</text><!--MD5=[eeba707701ec2b513fdeb4aa99d3f791]
class ShipSortedTemporallyOutput--><rect codeLine="99" fill="#FEFECE" filter="url(#fu35x2d7g3jf0)" height="46.9953" id="ShipSortedTemporallyOutput" style="stroke:#A80036;stroke-width:1.1400000000000001;" width="220.4" x="278.92" y="357.96"/><ellipse cx="325.85" cy="370.12" fill="#ADD1B2" rx="8.36" ry="8.36" style="stroke:#A80036;stroke-width:0.76;"/><path d="M327.37,367.46 Q327.5244,367.08 327.7025,366.89 Q327.8806,366.7 328.0825,366.7 Q328.4388,366.7 328.6644,366.9138 Q328.89,367.1275 328.89,367.6263 L328.89,368.8138 Q328.89,369.3125 328.6763,369.5263 Q328.4625,369.74 328.13,369.74 Q327.8331,369.74 327.6431,369.6094 Q327.4531,369.4788 327.37,369.1344 Q327.3344,368.8969 327.2038,368.7663 Q326.9663,368.5169 326.5388,368.3744 Q326.1113,368.22 325.6838,368.22 Q325.1494,368.22 324.6981,368.4338 Q324.2588,368.6475 323.9144,369.1225 Q323.57,369.5975 323.57,370.2506 L323.57,370.9513 Q323.57,371.735 324.2113,372.2575 Q324.8525,372.78 325.9925,372.78 Q326.6694,372.78 327.1444,372.6256 Q327.4175,372.5425 327.7263,372.2694 Q327.9281,372.115 328.035,372.0675 Q328.1419,372.02 328.2725,372.02 Q328.5219,372.02 328.7,372.2219 Q328.89,372.4119 328.89,372.685 Q328.89,372.9463 328.6288,373.255 Q328.2488,373.7063 327.6431,373.9556 Q326.8475,374.3 325.8738,374.3 Q324.7338,374.3 323.8194,373.8488 Q323.0831,373.4925 322.5606,372.7206 Q322.05,371.9488 322.05,371.0344 L322.05,370.2031 Q322.05,369.2531 322.5013,368.4219 Q322.9644,367.5906 323.76,367.1513 Q324.5675,366.7 325.47,366.7 Q326.0163,366.7 326.4913,366.89 Q326.9663,367.08 327.37,367.46 Z " fill="#000000"/><text fill="#000000" font-family="sans-serif" font-size="9.12" lengthAdjust="spacing" textLength="120.08" x="341.43" y="373.8517">ShipSortedTemporallyOutput</text><line style="stroke:#A80036;stroke-width:1.1400000000000001;" x1="279.68" x2="498.56" y1="382.28" y2="382.28"/><line style="stroke:#A80036;stroke-width:1.1400000000000001;" x1="279.68" x2="498.56" y1="388.36" y2="388.36"/><text fill="#000000" font-family="sans-serif" font-size="8.36" lengthAdjust="spacing" textLength="211.28" x="283.48" y="400.0784">+outputShipSorted(List&lt;PositionalMessage&gt; positionsList)</text><!--MD5=[1fc721dd1b7909ec9dcd431c53e69de5]
link ShipSortedTemporallyController to ShipSortedTemporally--><path codeLine="103" d="M260.68,100.6088 C260.68,117.1616 260.68,137.1572 260.68,154.1736 " fill="none" id="ShipSortedTemporallyController-to-ShipSortedTemporally" style="stroke:#A80036;stroke-width:0.76;stroke-dasharray:7.0,7.0;"/><polygon fill="#A80036" points="260.68,157.9812,263.72,151.1412,260.68,154.1812,257.64,151.1412,260.68,157.9812" style="stroke:#A80036;stroke-width:0.76;"/><!--MD5=[7cc3921e1a7feb0e47a76d1bf2863e5f]
link PositionalMMessage to Ship--><path codeLine="104" d="M88.4792,440.3668 C69.0384,464.4132 49.5824,493.8176 39.52,524.4 C18.8556,587.1988 26.5012,657.5064 43.7532,720.3128 " fill="none" id="PositionalMMessage-to-Ship" style="stroke:#A80036;stroke-width:0.76;stroke-dasharray:7.0,7.0;"/><polygon fill="#A80036" points="44.7944,724.052,45.8849,716.6467,43.7734,720.3917,40.0284,718.2803,44.7944,724.052" style="stroke:#A80036;stroke-width:0.76;"/><!--MD5=[dec486febd54d433dcd34efa7a04f1ef]
link PositionalMMessage to ShipMMSI--><path codeLine="105" d="M144.4,478.9976 C144.4,493.3844 144.4,507.6496 144.4,520.41 " fill="none" id="PositionalMMessage-to-ShipMMSI" style="stroke:#A80036;stroke-width:0.76;stroke-dasharray:7.0,7.0;"/><polygon fill="#A80036" points="144.4,524.3164,147.44,517.4764,144.4,520.5164,141.36,517.4764,144.4,524.3164" style="stroke:#A80036;stroke-width:0.76;"/><!--MD5=[0498da91a90329ce9bdd3d5d84728d21]
link ShipSortedTemporally to PositionalMMessage--><path codeLine="106" d="M239.894,226.6016 C229.3224,243.6712 215.8856,265.3464 202.464,287.0216 " fill="none" id="ShipSortedTemporally-to-PositionalMMessage" style="stroke:#A80036;stroke-width:0.76;stroke-dasharray:7.0,7.0;"/><polygon fill="#A80036" points="200.3132,290.5024,206.5036,286.2946,202.3174,287.2739,201.3381,283.0878,200.3132,290.5024" style="stroke:#A80036;stroke-width:0.76;"/><!--MD5=[d4a68437b74f47126a4d80b20cf56ec7]
link ShipSortedTemporally to ShipSortedTemporallyOutput--><path codeLine="107" d="M283.6396,226.6016 C308.7348,263.2792 348.4068,321.2596 371.2752,354.6768 " fill="none" id="ShipSortedTemporally-to-ShipSortedTemporallyOutput" style="stroke:#A80036;stroke-width:0.76;stroke-dasharray:7.0,7.0;"/><polygon fill="#A80036" points="373.4336,357.8308,372.0929,350.4667,371.2933,354.6909,367.0691,353.8913,373.4336,357.8308" style="stroke:#A80036;stroke-width:0.76;"/><!--MD5=[a1b029cdb24dba4faabf1ab8ad44429c]
link ShipMMSI to Ship--><path codeLine="108" d="M141.6944,613.4796 C140.9496,625.6092 140.0832,639.6768 139.1408,654.9604 " fill="none" id="ShipMMSI-to-Ship" style="stroke:#A80036;stroke-width:0.76;stroke-dasharray:7.0,7.0;"/><polygon fill="#A80036" points="138.8976,658.8668,142.3607,652.231,139.136,655.0743,136.2927,651.8496,138.8976,658.8668" style="stroke:#A80036;stroke-width:0.76;"/><!--MD5=[109ae057a1f429f02c80e07bac8f53c8]
@startuml
skinparam classAttributeIconSize 0


package Controller{
class ShipSortedTemporallyController{
+ShipSortedTemporallyController()
+sortTemporally(mMSI, BST<ShipMMSI>)
+positionValues(List<ShipMMSI>, startDatePeriod, endDatePeriod)
}
}


package Domain{
class PositionalMMessage{
 -mMSI
 -vesselType
 -date
 -lat
 -lon
 -sog
 -cog

 +getMMSI()
 +getVesselType()
 +getBaseDateTime()
 +getLat()
 +getLon()
 +getSOG()
 +getCOG()
 +toString()
}

class Ship {
  - mMSI
  -baseDateTime
  -lat
  -lon
  -sog
  -cog
  -heading
  -vesselName
  -iMO
  -callSign
  -vesselType
  -length
  -width
  -draft
  -cargo
  -transcieverClass

  +getMMSI()
  +getBaseDateTime()
  +getLat()
  +getLon()
  +getSOG()
  +getCOG()
  +getHeading()
  +getVesselType()
  +getLenght()
  +getWidth()
  +getDraft()
  +getCargo()
  +getTranscieverClass()
  +setMMSI(mMSI)
  +setBaseDateTime(baseDateTime)
  +setLati(lati)
  +setLong(long)
  +setSOG(sog)
  +setCOG(cog)
  +setHeading(heading)
  +setVesselType(vesselType)
  +setLenght(lenght)
  +setWidth(width)
  +setDraft(draft)
  +setCargo(cargo)
  +setTranscieverClass(transcieverClass)
  +Ship()
}

class ShipMMSI{
+ShipMMSI(ship)
+ShipMMSI(List<Map.Entry<String, ShipMMSI>>)
+getMapList()
+compareTo(ShipMMSI)
+toString()
}

}

package Services{
class ShipSortedTemporally{
+sortTemporally(mMSI, BST<ShipMMSI>)
+positionValues(List<ShipMMSI>, startDatePeriod, endDatePeriod)
+checkDate(firstDate, lastDate, testDate)
}
}

package Utils{
class ShipSortedTemporallyOutput{
+outputShipSorted(List<PositionalMessage> positionsList)
}

ShipSortedTemporallyController..> ShipSortedTemporally
PositionalMMessage..>Ship
PositionalMMessage..>ShipMMSI
ShipSortedTemporally..>PositionalMMessage
ShipSortedTemporally..>ShipSortedTemporallyOutput
ShipMMSI..>Ship
}
@enduml

PlantUML version 1.2021.00(Sun Jan 10 10:25:05 GMT 2021)
(GPL source distribution)
Java Runtime: OpenJDK Runtime Environment
JVM: OpenJDK 64-Bit Server VM
Default Encoding: Cp1252
Language: pt
Country: PT
--></g></svg>