<?xml version="1.0" encoding="UTF-8" standalone="no"?><svg xmlns="http://www.w3.org/2000/svg" xmlns:xlink="http://www.w3.org/1999/xlink" contentScriptType="application/ecmascript" contentStyleType="text/css" height="822.63px" preserveAspectRatio="none" style="width:363px;height:822px;" version="1.1" viewBox="0 0 363 822" width="363.63px" zoomAndPan="magnify"><defs><filter height="300%" id="fujgurnaowcdj" width="300%" x="-1" y="-1"><feGaussianBlur result="blurOut" stdDeviation="1.02"/><feColorMatrix in="blurOut" result="blurOut2" type="matrix" values="0 0 0 0 0 0 0 0 0 0 0 0 0 0 0 0 0 0 .4 0"/><feOffset dx="2.04" dy="2.04" in="blurOut2" result="blurOut3"/><feBlend in="SourceGraphic" in2="blurOut3" mode="normal"/></filter></defs><g><!--MD5=[1f2cfc53d9d308f53762fd0fcbaa4873]
cluster Controller--><polygon fill="#FFFFFF" filter="url(#fujgurnaowcdj)" points="109.14,3.06,148.41,3.06,151.98,15.1008,234.6,15.1008,234.6,75.48,109.14,75.48,109.14,3.06" style="stroke:#000000;stroke-width:0.765;"/><line style="stroke:#000000;stroke-width:0.765;" x1="109.14" x2="151.98" y1="15.1008" y2="15.1008"/><text fill="#000000" font-family="sans-serif" font-size="7.14" font-weight="bold" lengthAdjust="spacing" textLength="36.21" x="111.18" y="11.4919">Controller</text><!--MD5=[121a8bf1197281ab89ed693fab589f94]
cluster Domain--><polygon fill="#FFFFFF" filter="url(#fujgurnaowcdj)" points="8.16,87.72,37.74,87.72,41.31,99.7608,255,99.7608,255,819.06,8.16,819.06,8.16,87.72" style="stroke:#000000;stroke-width:0.765;"/><line style="stroke:#000000;stroke-width:0.765;" x1="8.16" x2="41.31" y1="99.7608" y2="99.7608"/><text fill="#000000" font-family="sans-serif" font-size="7.14" font-weight="bold" lengthAdjust="spacing" textLength="26.52" x="10.2" y="96.1519">Domain</text><!--MD5=[7e40339c58605559321960399585b560]
cluster Utils--><polygon fill="#FFFFFF" filter="url(#fujgurnaowcdj)" points="267.24,248.625,286.11,248.625,289.68,260.6658,354.96,260.6658,354.96,306.765,267.24,306.765,267.24,248.625" style="stroke:#000000;stroke-width:0.765;"/><line style="stroke:#000000;stroke-width:0.765;" x1="267.24" x2="289.68" y1="260.6658" y2="260.6658"/><text fill="#000000" font-family="sans-serif" font-size="7.14" font-weight="bold" lengthAdjust="spacing" textLength="15.81" x="269.28" y="257.0569">Utils</text><!--MD5=[5e4c7f5c353a6eae5023ab8e0cd3486d]
class ListMmsiMovTDDDController--><rect codeLine="5" fill="#FEFECE" filter="url(#fujgurnaowcdj)" height="45.649" id="ListMmsiMovTDDDController" style="stroke:#A80036;stroke-width:0.765;" width="109.14" x="117.3" y="21.42"/><ellipse cx="130.2285" cy="29.58" fill="#ADD1B2" rx="5.61" ry="5.61" style="stroke:#A80036;stroke-width:0.51;"/><path d="M131.2485,27.795 Q131.3521,27.54 131.4716,27.4125 Q131.5912,27.285 131.7266,27.285 Q131.9657,27.285 132.1171,27.4284 Q132.2685,27.5719 132.2685,27.9066 L132.2685,28.7034 Q132.2685,29.0381 132.1251,29.1816 Q131.9816,29.325 131.7585,29.325 Q131.5593,29.325 131.4318,29.2373 Q131.3043,29.1497 131.2485,28.9186 Q131.2246,28.7592 131.1369,28.6716 Q130.9776,28.5042 130.6907,28.4086 Q130.4038,28.305 130.1169,28.305 Q129.7583,28.305 129.4555,28.4484 Q129.1607,28.5919 128.9296,28.9106 Q128.6985,29.2294 128.6985,29.6677 L128.6985,30.1378 Q128.6985,30.6638 129.1288,31.0144 Q129.5591,31.365 130.3241,31.365 Q130.7783,31.365 131.0971,31.2614 Q131.2804,31.2056 131.4876,31.0223 Q131.623,30.9188 131.6948,30.8869 Q131.7665,30.855 131.8541,30.855 Q132.0215,30.855 132.141,30.9905 Q132.2685,31.118 132.2685,31.3013 Q132.2685,31.4766 132.0932,31.6838 Q131.8382,31.9866 131.4318,32.1539 Q130.8979,32.385 130.2444,32.385 Q129.4794,32.385 128.8658,32.0822 Q128.3718,31.8431 128.0212,31.3252 Q127.6785,30.8072 127.6785,30.1936 L127.6785,29.6358 Q127.6785,28.9983 127.9813,28.4405 Q128.2921,27.8827 128.826,27.5878 Q129.3679,27.285 129.9735,27.285 Q130.3401,27.285 130.6588,27.4125 Q130.9776,27.54 131.2485,27.795 Z " fill="#000000"/><text fill="#000000" font-family="sans-serif" font-size="6.12" lengthAdjust="spacing" textLength="81.09" x="138.5415" y="32.0842">ListMmsiMovTDDDController</text><line style="stroke:#A80036;stroke-width:0.765;" x1="117.81" x2="225.93" y1="37.74" y2="37.74"/><line style="stroke:#A80036;stroke-width:0.765;" x1="117.81" x2="225.93" y1="41.82" y2="41.82"/><text fill="#000000" font-family="sans-serif" font-size="5.61" lengthAdjust="spacing" textLength="65.79" x="120.36" y="49.6837">+allShips(BST&lt;ShipMMSI&gt;)</text><text fill="#000000" font-family="sans-serif" font-size="5.61" lengthAdjust="spacing" textLength="84.15" x="120.36" y="56.74">+listDescTravDist(List&lt;ShipAtrib&gt;)</text><text fill="#000000" font-family="sans-serif" font-size="5.61" lengthAdjust="spacing" textLength="103.02" x="120.36" y="63.7963">+listAsceNumMovements(List&lt;ShipAtrib&gt;)</text><!--MD5=[10842816a521f091e096081c0b3409a1]
class ShipMMSI--><rect codeLine="15" fill="#FEFECE" filter="url(#fujgurnaowcdj)" height="59.7616" id="ShipMMSI" style="stroke:#A80036;stroke-width:0.765;" width="122.91" x="16.575" y="392.7"/><ellipse cx="62.0925" cy="400.86" fill="#ADD1B2" rx="5.61" ry="5.61" style="stroke:#A80036;stroke-width:0.51;"/><path d="M63.1125,399.075 Q63.2161,398.82 63.3356,398.6925 Q63.4552,398.565 63.5906,398.565 Q63.8297,398.565 63.9811,398.7084 Q64.1325,398.8519 64.1325,399.1866 L64.1325,399.9834 Q64.1325,400.3181 63.9891,400.4616 Q63.8456,400.605 63.6225,400.605 Q63.4233,400.605 63.2958,400.5173 Q63.1683,400.4297 63.1125,400.1986 Q63.0886,400.0392 63.0009,399.9516 Q62.8416,399.7842 62.5547,399.6886 Q62.2678,399.585 61.9809,399.585 Q61.6223,399.585 61.3195,399.7284 Q61.0247,399.8719 60.7936,400.1906 Q60.5625,400.5094 60.5625,400.9477 L60.5625,401.4178 Q60.5625,401.9438 60.9928,402.2944 Q61.4231,402.645 62.1881,402.645 Q62.6423,402.645 62.9611,402.5414 Q63.1444,402.4856 63.3516,402.3023 Q63.487,402.1988 63.5588,402.1669 Q63.6305,402.135 63.7181,402.135 Q63.8855,402.135 64.005,402.2705 Q64.1325,402.398 64.1325,402.5813 Q64.1325,402.7566 63.9572,402.9638 Q63.7022,403.2666 63.2958,403.4339 Q62.7619,403.665 62.1084,403.665 Q61.3434,403.665 60.7298,403.3622 Q60.2358,403.1231 59.8852,402.6052 Q59.5425,402.0872 59.5425,401.4736 L59.5425,400.9158 Q59.5425,400.2783 59.8453,399.7205 Q60.1561,399.1627 60.69,398.8678 Q61.2319,398.565 61.8375,398.565 Q62.2041,398.565 62.5228,398.6925 Q62.8416,398.82 63.1125,399.075 Z " fill="#000000"/><text fill="#000000" font-family="sans-serif" font-size="6.12" lengthAdjust="spacing" textLength="27.54" x="72.5475" y="403.3642">ShipMMSI</text><line style="stroke:#A80036;stroke-width:0.765;" x1="17.085" x2="138.975" y1="409.02" y2="409.02"/><line style="stroke:#A80036;stroke-width:0.765;" x1="17.085" x2="138.975" y1="413.1" y2="413.1"/><text fill="#000000" font-family="sans-serif" font-size="5.61" lengthAdjust="spacing" textLength="40.8" x="19.635" y="420.9637">+ShipMMSI(ship)</text><text fill="#000000" font-family="sans-serif" font-size="5.61" lengthAdjust="spacing" textLength="116.79" x="19.635" y="428.02">+ShipMMSI(List&lt;Map.Entry&lt;String, ShipMMSI&gt;&gt;)</text><text fill="#000000" font-family="sans-serif" font-size="5.61" lengthAdjust="spacing" textLength="33.66" x="19.635" y="435.0763">+getMapList()</text><text fill="#000000" font-family="sans-serif" font-size="5.61" lengthAdjust="spacing" textLength="58.14" x="19.635" y="442.1326">+compareTo(ShipMMSI)</text><text fill="#000000" font-family="sans-serif" font-size="5.61" lengthAdjust="spacing" textLength="26.01" x="19.635" y="449.189">+toString()</text><!--MD5=[0dc7f2ddb409b58bcf52b12238c25399]
class Ship--><rect codeLine="23" fill="#FEFECE" filter="url(#fujgurnaowcdj)" height="327.9021" id="Ship" style="stroke:#A80036;stroke-width:0.765;" width="106.08" x="64.77" y="482.97"/><ellipse cx="109.2675" cy="491.13" fill="#ADD1B2" rx="5.61" ry="5.61" style="stroke:#A80036;stroke-width:0.51;"/><path d="M110.2875,489.345 Q110.3911,489.09 110.5106,488.9625 Q110.6302,488.835 110.7656,488.835 Q111.0047,488.835 111.1561,488.9784 Q111.3075,489.1219 111.3075,489.4566 L111.3075,490.2534 Q111.3075,490.5881 111.1641,490.7316 Q111.0206,490.875 110.7975,490.875 Q110.5983,490.875 110.4708,490.7873 Q110.3433,490.6997 110.2875,490.4686 Q110.2636,490.3092 110.1759,490.2216 Q110.0166,490.0542 109.7297,489.9586 Q109.4428,489.855 109.1559,489.855 Q108.7973,489.855 108.4945,489.9984 Q108.1997,490.1419 107.9686,490.4606 Q107.7375,490.7794 107.7375,491.2177 L107.7375,491.6878 Q107.7375,492.2138 108.1678,492.5644 Q108.5981,492.915 109.3631,492.915 Q109.8173,492.915 110.1361,492.8114 Q110.3194,492.7556 110.5266,492.5723 Q110.662,492.4688 110.7338,492.4369 Q110.8055,492.405 110.8931,492.405 Q111.0605,492.405 111.18,492.5405 Q111.3075,492.668 111.3075,492.8513 Q111.3075,493.0266 111.1322,493.2338 Q110.8772,493.5366 110.4708,493.7039 Q109.9369,493.935 109.2834,493.935 Q108.5184,493.935 107.9048,493.6322 Q107.4108,493.3931 107.0602,492.8752 Q106.7175,492.3572 106.7175,491.7436 L106.7175,491.1858 Q106.7175,490.5483 107.0203,489.9905 Q107.3311,489.4327 107.865,489.1378 Q108.4069,488.835 109.0125,488.835 Q109.3791,488.835 109.6978,488.9625 Q110.0166,489.09 110.2875,489.345 Z " fill="#000000"/><text fill="#000000" font-family="sans-serif" font-size="6.12" lengthAdjust="spacing" textLength="12.75" x="119.7225" y="493.6342">Ship</text><line style="stroke:#A80036;stroke-width:0.765;" x1="65.28" x2="170.34" y1="499.29" y2="499.29"/><text fill="#000000" font-family="sans-serif" font-size="5.61" lengthAdjust="spacing" textLength="14.79" x="67.83" y="507.1537">-mMSI</text><text fill="#000000" font-family="sans-serif" font-size="5.61" lengthAdjust="spacing" textLength="36.72" x="67.83" y="514.21">-baseDateTime</text><text fill="#000000" font-family="sans-serif" font-size="5.61" lengthAdjust="spacing" textLength="8.67" x="67.83" y="521.2663">-lati</text><text fill="#000000" font-family="sans-serif" font-size="5.61" lengthAdjust="spacing" textLength="12.24" x="67.83" y="528.3226">-long</text><text fill="#000000" font-family="sans-serif" font-size="5.61" lengthAdjust="spacing" textLength="11.22" x="67.83" y="535.379">-sog</text><text fill="#000000" font-family="sans-serif" font-size="5.61" lengthAdjust="spacing" textLength="11.22" x="67.83" y="542.4353">-cog</text><text fill="#000000" font-family="sans-serif" font-size="5.61" lengthAdjust="spacing" textLength="21.42" x="67.83" y="549.4916">-heading</text><text fill="#000000" font-family="sans-serif" font-size="5.61" lengthAdjust="spacing" textLength="32.13" x="67.83" y="556.548">-vesselName</text><text fill="#000000" font-family="sans-serif" font-size="5.61" lengthAdjust="spacing" textLength="11.22" x="67.83" y="563.6043">-iMO</text><text fill="#000000" font-family="sans-serif" font-size="5.61" lengthAdjust="spacing" textLength="20.91" x="67.83" y="570.6606">-callSign</text><text fill="#000000" font-family="sans-serif" font-size="5.61" lengthAdjust="spacing" textLength="30.6" x="67.83" y="577.7169">-vesselType</text><text fill="#000000" font-family="sans-serif" font-size="5.61" lengthAdjust="spacing" textLength="16.83" x="67.83" y="584.7733">-length</text><text fill="#000000" font-family="sans-serif" font-size="5.61" lengthAdjust="spacing" textLength="15.81" x="67.83" y="591.8296">-width</text><text fill="#000000" font-family="sans-serif" font-size="5.61" lengthAdjust="spacing" textLength="13.77" x="67.83" y="598.8859">-draft</text><text fill="#000000" font-family="sans-serif" font-size="5.61" lengthAdjust="spacing" textLength="16.32" x="67.83" y="605.9423">-cargo</text><text fill="#000000" font-family="sans-serif" font-size="5.61" lengthAdjust="spacing" textLength="43.86" x="67.83" y="612.9986">-transcieverClass</text><line style="stroke:#A80036;stroke-width:0.765;" x1="65.28" x2="170.34" y1="616.2713" y2="616.2713"/><text fill="#000000" font-family="sans-serif" font-size="5.61" lengthAdjust="spacing" textLength="27.54" x="67.83" y="624.1349">+getMMSI()</text><text fill="#000000" font-family="sans-serif" font-size="5.61" lengthAdjust="spacing" textLength="49.98" x="67.83" y="631.1912">+getBaseDateTime()</text><text fill="#000000" font-family="sans-serif" font-size="5.61" lengthAdjust="spacing" textLength="23.46" x="67.83" y="638.2476">+getLati()</text><text fill="#000000" font-family="sans-serif" font-size="5.61" lengthAdjust="spacing" textLength="27.03" x="67.83" y="645.3039">+getLong()</text><text fill="#000000" font-family="sans-serif" font-size="5.61" lengthAdjust="spacing" textLength="26.52" x="67.83" y="652.3602">+getSOG()</text><text fill="#000000" font-family="sans-serif" font-size="5.61" lengthAdjust="spacing" textLength="26.52" x="67.83" y="659.4166">+getCOG()</text><text fill="#000000" font-family="sans-serif" font-size="5.61" lengthAdjust="spacing" textLength="34.68" x="67.83" y="666.4729">+getHeading()</text><text fill="#000000" font-family="sans-serif" font-size="5.61" lengthAdjust="spacing" textLength="44.37" x="67.83" y="673.5292">+getVesselType()</text><text fill="#000000" font-family="sans-serif" font-size="5.61" lengthAdjust="spacing" textLength="31.62" x="67.83" y="680.5855">+getLenght()</text><text fill="#000000" font-family="sans-serif" font-size="5.61" lengthAdjust="spacing" textLength="28.56" x="67.83" y="687.6419">+getWidth()</text><text fill="#000000" font-family="sans-serif" font-size="5.61" lengthAdjust="spacing" textLength="27.03" x="67.83" y="694.6982">+getDraft()</text><text fill="#000000" font-family="sans-serif" font-size="5.61" lengthAdjust="spacing" textLength="29.58" x="67.83" y="701.7545">+getCargo()</text><text fill="#000000" font-family="sans-serif" font-size="5.61" lengthAdjust="spacing" textLength="58.14" x="67.83" y="708.8108">+getTranscieverClass()</text><text fill="#000000" font-family="sans-serif" font-size="5.61" lengthAdjust="spacing" textLength="40.29" x="67.83" y="715.8672">+setMMSI(mMSI)</text><text fill="#000000" font-family="sans-serif" font-size="5.61" lengthAdjust="spacing" textLength="84.66" x="67.83" y="722.9235">+setBaseDateTime(baseDateTime)</text><text fill="#000000" font-family="sans-serif" font-size="5.61" lengthAdjust="spacing" textLength="30.09" x="67.83" y="729.9798">+setLati(lati)</text><text fill="#000000" font-family="sans-serif" font-size="5.61" lengthAdjust="spacing" textLength="37.23" x="67.83" y="737.0362">+setLong(long)</text><text fill="#000000" font-family="sans-serif" font-size="5.61" lengthAdjust="spacing" textLength="35.7" x="67.83" y="744.0925">+setSOG(sog)</text><text fill="#000000" font-family="sans-serif" font-size="5.61" lengthAdjust="spacing" textLength="35.7" x="67.83" y="751.1488">+setCOG(cog)</text><text fill="#000000" font-family="sans-serif" font-size="5.61" lengthAdjust="spacing" textLength="54.06" x="67.83" y="758.2051">+setHeading(heading)</text><text fill="#000000" font-family="sans-serif" font-size="5.61" lengthAdjust="spacing" textLength="72.93" x="67.83" y="765.2615">+setVesselType(vesselType)</text><text fill="#000000" font-family="sans-serif" font-size="5.61" lengthAdjust="spacing" textLength="46.41" x="67.83" y="772.3178">+setLenght(lenght)</text><text fill="#000000" font-family="sans-serif" font-size="5.61" lengthAdjust="spacing" textLength="42.33" x="67.83" y="779.3741">+setWidth(width)</text><text fill="#000000" font-family="sans-serif" font-size="5.61" lengthAdjust="spacing" textLength="38.76" x="67.83" y="786.4305">+setDraft(draft)</text><text fill="#000000" font-family="sans-serif" font-size="5.61" lengthAdjust="spacing" textLength="43.86" x="67.83" y="793.4868">+setCargo(cargo)</text><text fill="#000000" font-family="sans-serif" font-size="5.61" lengthAdjust="spacing" textLength="99.96" x="67.83" y="800.5431">+setTranscieverClass(transcieverClass)</text><text fill="#000000" font-family="sans-serif" font-size="5.61" lengthAdjust="spacing" textLength="17.85" x="67.83" y="807.5994">+Ship()</text><!--MD5=[8e9e34819b0bce9c5c84d38fa9d61244]
class ShipAtrib--><rect codeLine="69" fill="#FEFECE" filter="url(#fujgurnaowcdj)" height="158.5502" id="ShipAtrib" style="stroke:#A80036;stroke-width:0.765;" width="62.73" x="16.575" y="203.49"/><ellipse cx="33.864" cy="211.65" fill="#ADD1B2" rx="5.61" ry="5.61" style="stroke:#A80036;stroke-width:0.51;"/><path d="M34.884,209.865 Q34.9876,209.61 35.1071,209.4825 Q35.2267,209.355 35.3621,209.355 Q35.6012,209.355 35.7526,209.4984 Q35.904,209.6419 35.904,209.9766 L35.904,210.7734 Q35.904,211.1081 35.7606,211.2516 Q35.6171,211.395 35.394,211.395 Q35.1948,211.395 35.0673,211.3073 Q34.9398,211.2197 34.884,210.9886 Q34.8601,210.8292 34.7724,210.7416 Q34.6131,210.5742 34.3262,210.4786 Q34.0393,210.375 33.7524,210.375 Q33.3938,210.375 33.091,210.5184 Q32.7962,210.6619 32.5651,210.9806 Q32.334,211.2994 32.334,211.7377 L32.334,212.2078 Q32.334,212.7338 32.7643,213.0844 Q33.1946,213.435 33.9596,213.435 Q34.4138,213.435 34.7326,213.3314 Q34.9159,213.2756 35.1231,213.0923 Q35.2585,212.9888 35.3303,212.9569 Q35.402,212.925 35.4896,212.925 Q35.657,212.925 35.7765,213.0605 Q35.904,213.188 35.904,213.3713 Q35.904,213.5466 35.7287,213.7538 Q35.4737,214.0566 35.0673,214.2239 Q34.5334,214.455 33.8799,214.455 Q33.1149,214.455 32.5013,214.1522 Q32.0073,213.9131 31.6567,213.3952 Q31.314,212.8772 31.314,212.2636 L31.314,211.7058 Q31.314,211.0683 31.6168,210.5105 Q31.9276,209.9527 32.4615,209.6578 Q33.0034,209.355 33.609,209.355 Q33.9756,209.355 34.2943,209.4825 Q34.6131,209.61 34.884,209.865 Z " fill="#000000"/><text fill="#000000" font-family="sans-serif" font-size="6.12" lengthAdjust="spacing" textLength="24.99" x="43.146" y="214.1542">ShipAtrib</text><line style="stroke:#A80036;stroke-width:0.765;" x1="17.085" x2="78.795" y1="219.81" y2="219.81"/><text fill="#000000" font-family="sans-serif" font-size="5.61" lengthAdjust="spacing" textLength="14.79" x="19.635" y="227.6737">-mMSI</text><text fill="#000000" font-family="sans-serif" font-size="5.61" lengthAdjust="spacing" textLength="17.85" x="19.635" y="234.73">-mMSI1</text><text fill="#000000" font-family="sans-serif" font-size="5.61" lengthAdjust="spacing" textLength="29.58" x="19.635" y="241.7863">-dDistance1</text><text fill="#000000" font-family="sans-serif" font-size="5.61" lengthAdjust="spacing" textLength="29.58" x="19.635" y="248.8426">-dDistance2</text><text fill="#000000" font-family="sans-serif" font-size="5.61" lengthAdjust="spacing" textLength="40.29" x="19.635" y="255.899">-numMovements</text><text fill="#000000" font-family="sans-serif" font-size="5.61" lengthAdjust="spacing" textLength="43.35" x="19.635" y="262.9553">-numMovements1</text><text fill="#000000" font-family="sans-serif" font-size="5.61" lengthAdjust="spacing" textLength="32.13" x="19.635" y="270.0116">-travelledDist</text><text fill="#000000" font-family="sans-serif" font-size="5.61" lengthAdjust="spacing" textLength="35.19" x="19.635" y="277.068">-travelledDist1</text><text fill="#000000" font-family="sans-serif" font-size="5.61" lengthAdjust="spacing" textLength="56.1" x="19.635" y="284.1243">-travelledDistDiference</text><line style="stroke:#A80036;stroke-width:0.765;" x1="17.085" x2="78.795" y1="287.397" y2="287.397"/><text fill="#000000" font-family="sans-serif" font-size="5.61" lengthAdjust="spacing" textLength="27.54" x="19.635" y="295.2606">+getMMSI()</text><text fill="#000000" font-family="sans-serif" font-size="5.61" lengthAdjust="spacing" textLength="30.6" x="19.635" y="302.3169">+getMMSI1()</text><text fill="#000000" font-family="sans-serif" font-size="5.61" lengthAdjust="spacing" textLength="53.55" x="19.635" y="309.3733">+getNumMovements()</text><text fill="#000000" font-family="sans-serif" font-size="5.61" lengthAdjust="spacing" textLength="56.61" x="19.635" y="316.4296">+getNumMovements1()</text><text fill="#000000" font-family="sans-serif" font-size="5.61" lengthAdjust="spacing" textLength="46.41" x="19.635" y="323.4859">+getTravelledDist()</text><text fill="#000000" font-family="sans-serif" font-size="5.61" lengthAdjust="spacing" textLength="30.6" x="19.635" y="330.5423">+getDDist1()</text><text fill="#000000" font-family="sans-serif" font-size="5.61" lengthAdjust="spacing" textLength="56.61" x="19.635" y="337.5986">+getNumMovements1()</text><text fill="#000000" font-family="sans-serif" font-size="5.61" lengthAdjust="spacing" textLength="49.47" x="19.635" y="344.6549">+getTravelledDist1()</text><text fill="#000000" font-family="sans-serif" font-size="5.61" lengthAdjust="spacing" textLength="30.6" x="19.635" y="351.7112">+getDDist2()</text><text fill="#000000" font-family="sans-serif" font-size="5.61" lengthAdjust="spacing" textLength="29.58" x="19.635" y="358.7676">+ShipAtrib()</text><!--MD5=[8a24afd1cedb2dcfeab70d9bc588ea4f]
class ShipResume--><rect codeLine="92" fill="#FEFECE" filter="url(#fujgurnaowcdj)" height="137.3813" id="ShipResume" style="stroke:#A80036;stroke-width:0.765;" width="149.43" x="97.155" y="214.2"/><ellipse cx="151.0875" cy="222.36" fill="#ADD1B2" rx="5.61" ry="5.61" style="stroke:#A80036;stroke-width:0.51;"/><path d="M152.1075,220.575 Q152.2111,220.32 152.3306,220.1925 Q152.4502,220.065 152.5856,220.065 Q152.8247,220.065 152.9761,220.2084 Q153.1275,220.3519 153.1275,220.6866 L153.1275,221.4834 Q153.1275,221.8181 152.9841,221.9616 Q152.8406,222.105 152.6175,222.105 Q152.4183,222.105 152.2908,222.0173 Q152.1633,221.9297 152.1075,221.6986 Q152.0836,221.5392 151.9959,221.4516 Q151.8366,221.2842 151.5497,221.1886 Q151.2628,221.085 150.9759,221.085 Q150.6173,221.085 150.3145,221.2284 Q150.0197,221.3719 149.7886,221.6906 Q149.5575,222.0094 149.5575,222.4477 L149.5575,222.9178 Q149.5575,223.4438 149.9878,223.7944 Q150.4181,224.145 151.1831,224.145 Q151.6373,224.145 151.9561,224.0414 Q152.1394,223.9856 152.3466,223.8023 Q152.482,223.6988 152.5538,223.6669 Q152.6255,223.635 152.7131,223.635 Q152.8805,223.635 153,223.7705 Q153.1275,223.898 153.1275,224.0813 Q153.1275,224.2566 152.9522,224.4638 Q152.6972,224.7666 152.2908,224.9339 Q151.7569,225.165 151.1034,225.165 Q150.3384,225.165 149.7248,224.8622 Q149.2308,224.6231 148.8802,224.1052 Q148.5375,223.5872 148.5375,222.9736 L148.5375,222.4158 Q148.5375,221.7783 148.8403,221.2205 Q149.1511,220.6627 149.685,220.3678 Q150.2269,220.065 150.8325,220.065 Q151.1991,220.065 151.5178,220.1925 Q151.8366,220.32 152.1075,220.575 Z " fill="#000000"/><text fill="#000000" font-family="sans-serif" font-size="6.12" lengthAdjust="spacing" textLength="37.23" x="161.5425" y="224.8642">ShipResume</text><line style="stroke:#A80036;stroke-width:0.765;" x1="97.665" x2="246.075" y1="230.52" y2="230.52"/><line style="stroke:#A80036;stroke-width:0.765;" x1="97.665" x2="246.075" y1="234.6" y2="234.6"/><text fill="#000000" font-family="sans-serif" font-size="5.61" lengthAdjust="spacing" textLength="104.04" x="100.215" y="242.4637">+getShipResume( mMSI, BST&lt;ShipMMSI&gt; )</text><text fill="#000000" font-family="sans-serif" font-size="5.61" lengthAdjust="spacing" textLength="101.49" x="100.215" y="249.52">+getBaseDateTimeInicial(List&lt;ShipMMSI&gt;)</text><text fill="#000000" font-family="sans-serif" font-size="5.61" lengthAdjust="spacing" textLength="100.98" x="100.215" y="256.5763">+getBaseDateTimeFinal(List&lt;ShipMMSI&gt; )</text><text fill="#000000" font-family="sans-serif" font-size="5.61" lengthAdjust="spacing" textLength="100.98" x="100.215" y="263.6326">+getTotalMovementTime(List&lt;ShipMMSI&gt;)</text><text fill="#000000" font-family="sans-serif" font-size="5.61" lengthAdjust="spacing" textLength="117.81" x="100.215" y="270.689">+getTotalNumberOfMovements(List&lt;ShipMMSI&gt;)</text><text fill="#000000" font-family="sans-serif" font-size="5.61" lengthAdjust="spacing" textLength="74.97" x="100.215" y="277.7453">+getMaxSOG(List&lt;ShipMMSI&gt;)</text><text fill="#000000" font-family="sans-serif" font-size="5.61" lengthAdjust="spacing" textLength="79.56" x="100.215" y="284.8016">+getMeanSOG(List&lt;ShipMMSI&gt; )</text><text fill="#000000" font-family="sans-serif" font-size="5.61" lengthAdjust="spacing" textLength="79.56" x="100.215" y="291.858">+getMeanCOG(List&lt;ShipMMSI&gt; )</text><text fill="#000000" font-family="sans-serif" font-size="5.61" lengthAdjust="spacing" textLength="74.97" x="100.215" y="298.9143">+getMaxCOG(List&lt;ShipMMSI&gt;)</text><text fill="#000000" font-family="sans-serif" font-size="5.61" lengthAdjust="spacing" textLength="143.31" x="100.215" y="305.9706">+containShip( mMSI, List&lt;Map.Entry&lt;ShipMMSI, Double&gt;&gt; )</text><text fill="#000000" font-family="sans-serif" font-size="5.61" lengthAdjust="spacing" textLength="96.9" x="100.215" y="313.0269">+getDepartureLatitude(List&lt;ShipMMSI&gt;)</text><text fill="#000000" font-family="sans-serif" font-size="5.61" lengthAdjust="spacing" textLength="103.02" x="100.215" y="320.0833">+getDepartureLongitude(List&lt;ShipMMSI&gt; )</text><text fill="#000000" font-family="sans-serif" font-size="5.61" lengthAdjust="spacing" textLength="90.27" x="100.215" y="327.1396">+getArrivalLatitude(List&lt;ShipMMSI&gt; )</text><text fill="#000000" font-family="sans-serif" font-size="5.61" lengthAdjust="spacing" textLength="94.86" x="100.215" y="334.1959">+getArrivalLongitude(List&lt;ShipMMSI&gt; )</text><text fill="#000000" font-family="sans-serif" font-size="5.61" lengthAdjust="spacing" textLength="91.29" x="100.215" y="341.2523">+getTravelDistance(List&lt;ShipMMSI&gt; )</text><text fill="#000000" font-family="sans-serif" font-size="5.61" lengthAdjust="spacing" textLength="88.23" x="100.215" y="348.3086">+getDeltaDistance(List&lt;ShipMMSI&gt; )</text><!--MD5=[d90162fa110fe5a3170c7f42321b0e74]
class ListMmsiMovTDDD--><rect codeLine="111" fill="#FEFECE" filter="url(#fujgurnaowcdj)" height="66.818" id="ListMmsiMovTDDD" style="stroke:#A80036;stroke-width:0.765;" width="126.48" x="108.63" y="106.08"/><ellipse cx="142.9275" cy="114.24" fill="#ADD1B2" rx="5.61" ry="5.61" style="stroke:#A80036;stroke-width:0.51;"/><path d="M143.9475,112.455 Q144.0511,112.2 144.1706,112.0725 Q144.2902,111.945 144.4256,111.945 Q144.6647,111.945 144.8161,112.0884 Q144.9675,112.2319 144.9675,112.5666 L144.9675,113.3634 Q144.9675,113.6981 144.8241,113.8416 Q144.6806,113.985 144.4575,113.985 Q144.2583,113.985 144.1308,113.8973 Q144.0033,113.8097 143.9475,113.5786 Q143.9236,113.4192 143.8359,113.3316 Q143.6766,113.1642 143.3897,113.0686 Q143.1028,112.965 142.8159,112.965 Q142.4573,112.965 142.1545,113.1084 Q141.8597,113.2519 141.6286,113.5706 Q141.3975,113.8894 141.3975,114.3277 L141.3975,114.7978 Q141.3975,115.3238 141.8278,115.6744 Q142.2581,116.025 143.0231,116.025 Q143.4773,116.025 143.7961,115.9214 Q143.9794,115.8656 144.1866,115.6823 Q144.322,115.5788 144.3938,115.5469 Q144.4655,115.515 144.5531,115.515 Q144.7205,115.515 144.84,115.6505 Q144.9675,115.778 144.9675,115.9613 Q144.9675,116.1366 144.7922,116.3438 Q144.5372,116.6466 144.1308,116.8139 Q143.5969,117.045 142.9434,117.045 Q142.1784,117.045 141.5648,116.7422 Q141.0708,116.5031 140.7202,115.9852 Q140.3775,115.4672 140.3775,114.8536 L140.3775,114.2958 Q140.3775,113.6583 140.6803,113.1005 Q140.9911,112.5427 141.525,112.2478 Q142.0669,111.945 142.6725,111.945 Q143.0391,111.945 143.3578,112.0725 Q143.6766,112.2 143.9475,112.455 Z " fill="#000000"/><text fill="#000000" font-family="sans-serif" font-size="6.12" lengthAdjust="spacing" textLength="53.55" x="153.3825" y="116.7442">ListMmsiMovTDDD</text><line style="stroke:#A80036;stroke-width:0.765;" x1="109.14" x2="234.6" y1="122.4" y2="122.4"/><line style="stroke:#A80036;stroke-width:0.765;" x1="109.14" x2="234.6" y1="126.48" y2="126.48"/><text fill="#000000" font-family="sans-serif" font-size="5.61" lengthAdjust="spacing" textLength="65.79" x="111.69" y="134.3437">+allShips(BST&lt;ShipMMSI&gt;)</text><text fill="#000000" font-family="sans-serif" font-size="5.61" lengthAdjust="spacing" textLength="120.36" x="111.69" y="141.4">+shipMmsiMovTDDD((List&lt;ShipMMSI&gt;, ShipMMSI)</text><text fill="#000000" font-family="sans-serif" font-size="5.61" lengthAdjust="spacing" textLength="95.88" x="111.69" y="148.4563">+sameMMSIList(List&lt;ShipMMSI&gt;, mMSI)</text><text fill="#000000" font-family="sans-serif" font-size="5.61" lengthAdjust="spacing" textLength="88.74" x="111.69" y="155.5126">+containShip(List&lt;ShipAtrib&gt;, mMSI)</text><text fill="#000000" font-family="sans-serif" font-size="5.61" lengthAdjust="spacing" textLength="84.15" x="111.69" y="162.569">+listDescTravDist(List&lt;ShipAtrib&gt;)</text><text fill="#000000" font-family="sans-serif" font-size="5.61" lengthAdjust="spacing" textLength="103.02" x="111.69" y="169.6253">+listAsceNumMovements(List&lt;ShipAtrib&gt;)</text><!--MD5=[35bc758913235b3ddaac6a0bf09e932f]
class ListMMTDDDOutput--><rect codeLine="123" fill="#FEFECE" filter="url(#fujgurnaowcdj)" height="31.5363" id="ListMMTDDDOutput" style="stroke:#A80036;stroke-width:0.765;" width="71.4" x="275.4" y="266.985"/><ellipse cx="283.05" cy="275.145" fill="#ADD1B2" rx="5.61" ry="5.61" style="stroke:#A80036;stroke-width:0.51;"/><path d="M284.07,273.36 Q284.1736,273.105 284.2931,272.9775 Q284.4127,272.85 284.5481,272.85 Q284.7872,272.85 284.9386,272.9934 Q285.09,273.1369 285.09,273.4716 L285.09,274.2684 Q285.09,274.6031 284.9466,274.7466 Q284.8031,274.89 284.58,274.89 Q284.3808,274.89 284.2533,274.8023 Q284.1258,274.7147 284.07,274.4836 Q284.0461,274.3242 283.9584,274.2366 Q283.7991,274.0692 283.5122,273.9736 Q283.2253,273.87 282.9384,273.87 Q282.5798,273.87 282.277,274.0134 Q281.9822,274.1569 281.7511,274.4756 Q281.52,274.7944 281.52,275.2327 L281.52,275.7028 Q281.52,276.2288 281.9503,276.5794 Q282.3806,276.93 283.1456,276.93 Q283.5998,276.93 283.9186,276.8264 Q284.1019,276.7706 284.3091,276.5873 Q284.4445,276.4838 284.5163,276.4519 Q284.588,276.42 284.6756,276.42 Q284.843,276.42 284.9625,276.5555 Q285.09,276.683 285.09,276.8663 Q285.09,277.0416 284.9147,277.2488 Q284.6597,277.5516 284.2533,277.7189 Q283.7194,277.95 283.0659,277.95 Q282.3009,277.95 281.6873,277.6472 Q281.1933,277.4081 280.8427,276.8902 Q280.5,276.3722 280.5,275.7586 L280.5,275.2008 Q280.5,274.5633 280.8028,274.0055 Q281.1136,273.4477 281.6475,273.1528 Q282.1894,272.85 282.795,272.85 Q283.1616,272.85 283.4803,272.9775 Q283.7991,273.105 284.07,273.36 Z " fill="#000000"/><text fill="#000000" font-family="sans-serif" font-size="6.12" lengthAdjust="spacing" textLength="55.08" x="290.19" y="277.6492">ListMMTDDDOutput</text><line style="stroke:#A80036;stroke-width:0.765;" x1="275.91" x2="346.29" y1="283.305" y2="283.305"/><line style="stroke:#A80036;stroke-width:0.765;" x1="275.91" x2="346.29" y1="287.385" y2="287.385"/><text fill="#000000" font-family="sans-serif" font-size="5.61" lengthAdjust="spacing" textLength="65.28" x="278.46" y="295.2487">outputList(List&lt;ShipAtrib&gt;)</text><!--MD5=[135d84b612f6515f02848b6c5e8be13a]
link ListMmsiMovTDDDController to ListMmsiMovTDDD--><path codeLine="128" d="M171.87,67.4169 C171.87,78.1779 171.87,91.3155 171.87,103.377 " fill="none" id="ListMmsiMovTDDDController-to-ListMmsiMovTDDD" style="stroke:#A80036;stroke-width:0.51;stroke-dasharray:7.0,7.0;"/><polygon fill="#A80036" points="171.87,105.9372,173.91,101.3472,171.87,103.3872,169.83,101.3472,171.87,105.9372" style="stroke:#A80036;stroke-width:0.51;"/><!--MD5=[14da921d04f9d9ef5bcd76d398e5748d]
link ShipAtrib to Ship--><path codeLine="129" d="M79.356,351.8745 C82.1202,355.5057 85.0782,358.9533 88.23,362.1 C109.4715,383.2956 132.7224,367.1235 148.41,392.7 C164.4852,418.9089 169.6158,449.5242 168.5499,480.2364 " fill="none" id="ShipAtrib-to-Ship" style="stroke:#A80036;stroke-width:0.51;stroke-dasharray:7.0,7.0;"/><polygon fill="#A80036" points="168.4428,482.8272,170.6651,478.3227,168.545,480.2792,166.5884,478.1591,168.4428,482.8272" style="stroke:#A80036;stroke-width:0.51;"/><!--MD5=[d88d13b80fcbc9d13806f7005a93fc78]
link ShipAtrib to ShipMMSI--><path codeLine="130" d="M65.0505,362.1867 C67.1721,371.9736 69.2376,381.5004 71.0787,389.9715 " fill="none" id="ShipAtrib-to-ShipMMSI" style="stroke:#A80036;stroke-width:0.51;stroke-dasharray:7.0,7.0;"/><polygon fill="#A80036" points="71.6397,392.5623,72.6629,387.6447,71.1004,390.07,68.6751,388.5075,71.6397,392.5623" style="stroke:#A80036;stroke-width:0.51;"/><!--MD5=[cf367e315a4a1eea581321bc7b29baaa]
link ListMmsiMovTDDD to ShipAtrib--><path codeLine="131" d="M120.9057,172.9053 C109.2726,181.9119 97.5936,192.3057 88.23,203.49 C85.6545,206.5653 83.1912,209.8293 80.835,213.2157 " fill="none" id="ListMmsiMovTDDD-to-ShipAtrib" style="stroke:#A80036;stroke-width:0.51;stroke-dasharray:7.0,7.0;"/><polygon fill="#A80036" points="79.3815,215.3373,83.6587,212.7037,80.8227,213.2337,80.2928,210.3977,79.3815,215.3373" style="stroke:#A80036;stroke-width:0.51;"/><!--MD5=[8f209a5bcc97f69faecdf61511184af4]
link ListMmsiMovTDDD to ShipResume--><path codeLine="132" d="M171.87,172.9971 C171.87,184.5435 171.87,197.9871 171.87,211.4256 " fill="none" id="ListMmsiMovTDDD-to-ShipResume" style="stroke:#A80036;stroke-width:0.51;stroke-dasharray:7.0,7.0;"/><polygon fill="#A80036" points="171.87,214.1082,173.91,209.5182,171.87,211.5582,169.83,209.5182,171.87,214.1082" style="stroke:#A80036;stroke-width:0.51;"/><!--MD5=[231e22f90e17b9194ba65d05f879c744]
link ListMmsiMovTDDD to ListMMTDDDOutput--><path codeLine="133" d="M220.0956,172.9512 C232.101,182.172 244.5195,192.6525 255,203.49 C273.3753,222.4926 290.3685,247.9263 300.7266,264.69 " fill="none" id="ListMmsiMovTDDD-to-ListMMTDDDOutput" style="stroke:#A80036;stroke-width:0.51;stroke-dasharray:7.0,7.0;"/><polygon fill="#A80036" points="302.0832,266.8932,301.4075,261.9159,300.7435,264.7235,297.936,264.0595,302.0832,266.8932" style="stroke:#A80036;stroke-width:0.51;"/><!--MD5=[a1b029cdb24dba4faabf1ab8ad44429c]
link ShipMMSI to Ship--><path codeLine="134" d="M83.2728,452.4771 C84.7212,460.6167 86.4042,470.0568 88.23,480.3129 " fill="none" id="ShipMMSI-to-Ship" style="stroke:#A80036;stroke-width:0.51;stroke-dasharray:7.0,7.0;"/><polygon fill="#A80036" points="88.6941,482.9343,89.8901,478.0558,88.2431,480.4245,85.8744,478.7775,88.6941,482.9343" style="stroke:#A80036;stroke-width:0.51;"/><!--MD5=[9057c6b62d2d581a708b4bbae7c8e0c0]
@startuml
skinparam classAttributeIconSize 0


package Controller{
class ListMmsiMovTDDDController {
    +allShips(BST<ShipMMSI>)
   +listDescTravDist(List<ShipAtrib>)
    +listAsceNumMovements(List<ShipAtrib>)
}
}


package Domain {

class ShipMMSI{
+ShipMMSI(ship)
+ShipMMSI(List<Map.Entry<String, ShipMMSI>>)
+getMapList()
+compareTo(ShipMMSI)
+toString()
}

class Ship {
  - mMSI
  -baseDateTime
  -lati
  -long
  -sog
  -cog
  -heading
  -vesselName
  -iMO
  -callSign
  -vesselType
  -length
  -width
  -draft
  -cargo
  -transcieverClass

  +getMMSI()
  +getBaseDateTime()
  +getLati()
  +getLong()
  +getSOG()
  +getCOG()
  +getHeading()
  +getVesselType()
  +getLenght()
  +getWidth()
  +getDraft()
  +getCargo()
  +getTranscieverClass()
  +setMMSI(mMSI)
  +setBaseDateTime(baseDateTime)
  +setLati(lati)
  +setLong(long)
  +setSOG(sog)
  +setCOG(cog)
  +setHeading(heading)
  +setVesselType(vesselType)
  +setLenght(lenght)
  +setWidth(width)
  +setDraft(draft)
  +setCargo(cargo)
  +setTranscieverClass(transcieverClass)
  +Ship()
}
  class ShipAtrib {
    -mMSI
    -mMSI1
    -dDistance1
    -dDistance2
    -numMovements
    -numMovements1
    -travelledDist
    -travelledDist1
    -travelledDistDiference

    +getMMSI()
    +getMMSI1()
    +getNumMovements()
    +getNumMovements1()
    +getTravelledDist()
    +getDDist1()
    +getNumMovements1()
    +getTravelledDist1()
    +getDDist2()
    +ShipAtrib()
}

  class ShipResume {
    +getShipResume( mMSI, BST<ShipMMSI> )
    +getBaseDateTimeInicial(List<ShipMMSI>)
    +getBaseDateTimeFinal(List<ShipMMSI> )
    +getTotalMovementTime(List<ShipMMSI>)
    +getTotalNumberOfMovements(List<ShipMMSI>)
    +getMaxSOG(List<ShipMMSI>)
    +getMeanSOG(List<ShipMMSI> )
    +getMeanCOG(List<ShipMMSI> )
    +getMaxCOG(List<ShipMMSI>)
    +containShip( mMSI, List<Map.Entry<ShipMMSI, Double>> )
    +getDepartureLatitude(List<ShipMMSI>)
    + getDepartureLongitude(List<ShipMMSI> )
    +getArrivalLatitude(List<ShipMMSI> )
    +getArrivalLongitude(List<ShipMMSI> )
    +getTravelDistance(List<ShipMMSI> )
    +getDeltaDistance(List<ShipMMSI> )
}

 class ListMmsiMovTDDD {
    +allShips(BST<ShipMMSI>)
    +shipMmsiMovTDDD((List<ShipMMSI>, ShipMMSI)
    +sameMMSIList(List<ShipMMSI>, mMSI)
    +containShip(List<ShipAtrib>, mMSI)
    +listDescTravDist(List<ShipAtrib>)
    +listAsceNumMovements(List<ShipAtrib>)


}
}
package Utils{
class ListMMTDDDOutput{
outputList(List<ShipAtrib>)
}
}

 ListMmsiMovTDDDController..> ListMmsiMovTDDD
ShipAtrib..>Ship
ShipAtrib..>ShipMMSI
ListMmsiMovTDDD..>ShipAtrib
ListMmsiMovTDDD..>ShipResume
ListMmsiMovTDDD..>ListMMTDDDOutput
ShipMMSI..>Ship
@enduml

PlantUML version 1.2021.00(Sun Jan 10 10:25:05 GMT 2021)
(GPL source distribution)
Java Runtime: OpenJDK Runtime Environment
JVM: OpenJDK 64-Bit Server VM
Default Encoding: Cp1252
Language: pt
Country: PT
--></g></svg>